<?xml version="1.0" encoding="UTF-8" standalone="no"?>
<!DOCTYPE svg PUBLIC "-//W3C//DTD SVG 1.1//EN" "http://www.w3.org/Graphics/SVG/1.1/DTD/svg11.dtd">
<svg xmlns="http://www.w3.org/2000/svg" version="1.1" viewBox="0.00 0.00 820.00 281.00">
<g stroke-width="2.00" fill="none" stroke-linecap="butt">
<path stroke="#808080" vector-effect="non-scaling-stroke" d="
  M 819.70 33.93
  A 33.17 33.17 0.0 0 0 786.53 0.76
  L 34.41 0.76
  A 33.17 33.17 0.0 0 0 1.24 33.93
  L 1.24 244.79
  A 33.17 33.17 0.0 0 0 34.41 277.96
  L 786.53 277.96
  A 33.17 33.17 0.0 0 0 819.70 244.79
  L 819.70 33.93"
/>
<path stroke="#808080" vector-effect="non-scaling-stroke" d="
  M 162.89 50.70
  C 147.89 55.63 136.41 69.02 137.53 85.17
  A 0.94 0.94 0.0 0 0 138.50 86.05
  C 156.57 85.35 170.39 68.13 169.07 50.19
  A 0.48 0.48 0.0 0 0 168.59 49.74
  Q 165.69 49.78 162.89 50.70"
/>
<path stroke="#808080" vector-effect="non-scaling-stroke" d="
  M 392.06 52.33
  A 0.60 0.60 0.0 0 0 391.46 51.73
  L 386.10 51.73
  A 0.60 0.60 0.0 0 0 385.50 52.33
  L 385.50 93.55
  A 0.60 0.60 0.0 0 0 386.10 94.15
  L 391.46 94.15
  A 0.60 0.60 0.0 0 0 392.06 93.55
  L 392.06 52.33"
/>
<path stroke="#808080" vector-effect="non-scaling-stroke" d="
  M 442.50 68.20
  L 442.54 51.99
  Q 442.54 51.69 442.24 51.69
  L 436.26 51.76
  Q 436.03 51.76 436.03 51.99
  L 436.00 93.48
  Q 436.00 94.20 436.72 94.18
  L 440.57 94.11
  Q 441.47 94.09 441.49 93.20
  L 441.51 91.76
  Q 441.57 88.90 443.14 91.29
  Q 444.47 93.30 446.81 94.02
  C 456.37 96.93 462.91 89.90 463.71 80.84
  C 464.17 75.57 462.59 69.22 457.92 66.27
  Q 452.20 62.67 445.79 66.02
  C 444.77 66.55 443.96 67.66 443.13 68.46
  Q 442.50 69.06 442.50 68.20"
/>
<path stroke="#808080" vector-effect="non-scaling-stroke" d="
  M 479.76 52.30
  A 0.59 0.59 0.0 0 0 479.17 51.71
  L 473.85 51.71
  A 0.59 0.59 0.0 0 0 473.26 52.30
  L 473.26 93.56
  A 0.59 0.59 0.0 0 0 473.85 94.15
  L 479.17 94.15
  A 0.59 0.59 0.0 0 0 479.76 93.56
  L 479.76 52.30"
/>
<path stroke="#808080" vector-effect="non-scaling-stroke" d="
  M 660.74 68.08
  L 660.82 51.92
  Q 660.82 51.73 660.64 51.73
  L 654.42 51.74
  Q 654.26 51.74 654.26 51.91
  L 654.26 93.47
  A 0.70 0.70 0.0 0 0 654.97 94.17
  L 660.22 94.14
  Q 660.80 94.13 660.80 93.55
  Q 660.78 85.65 660.81 76.95
  Q 660.81 74.06 662.06 72.27
  C 664.33 68.98 670.26 68.60 672.08 72.70
  Q 673.02 74.80 673.00 77.43
  Q 672.94 85.51 672.99 93.53
  Q 672.99 94.11 673.57 94.11
  L 678.96 94.10
  Q 679.53 94.10 679.53 93.53
  Q 679.49 85.59 679.51 77.36
  Q 679.52 74.12 678.64 71.26
  C 676.50 64.30 668.83 62.50 663.23 66.49
  C 662.54 66.98 662.02 67.77 661.41 68.36
  Q 660.74 69.01 660.74 68.08"
/>
<path stroke="#808080" vector-effect="non-scaling-stroke" d="
  M 374.81 56.41
  A 3.93 3.93 0.0 0 0 370.88 52.48
  A 3.93 3.93 0.0 0 0 366.95 56.41
  A 3.93 3.93 0.0 0 0 370.88 60.34
  A 3.93 3.93 0.0 0 0 374.81 56.41"
/>
<path stroke="#808080" vector-effect="non-scaling-stroke" d="
  M 271.41 82.69
  A 0.62 0.62 0.0 0 1 272.00 82.25
  L 284.11 82.25
  A 0.62 0.62 0.0 0 1 284.71 82.68
  L 288.15 93.64
  A 0.62 0.62 0.0 0 0 288.73 94.08
  L 294.42 94.18
  A 0.62 0.62 0.0 0 0 295.02 93.37
  L 282.32 54.20
  A 0.62 0.62 0.0 0 0 281.73 53.77
  L 274.61 53.76
  A 0.62 0.62 0.0 0 0 274.02 54.19
  L 261.39 93.43
  A 0.62 0.62 0.0 0 0 261.99 94.24
  L 267.45 94.15
  A 0.62 0.62 0.0 0 0 268.03 93.71
  L 271.41 82.69"
/>
<path stroke="#808080" vector-effect="non-scaling-stroke" d="
  M 638.23 64.24
  L 638.27 58.66
  Q 638.28 57.80 637.45 58.04
  L 632.69 59.42
  Q 631.66 59.72 631.70 60.79
  L 631.84 64.42
  A 0.63 0.63 0.0 0 1 631.21 65.07
  L 628.33 65.08
  Q 627.73 65.08 627.69 65.67
  L 627.46 69.23
  Q 627.42 69.80 627.99 69.80
  L 631.11 69.78
  A 0.75 0.74 0.7 0 1 631.86 70.54
  Q 631.75 77.16 631.85 84.58
  Q 631.90 88.52 633.38 91.39
  C 635.28 95.08 640.74 95.00 644.17 94.18
  A 1.35 1.34 -9.1 0 0 645.20 92.77
  L 644.96 89.76
  Q 644.93 89.28 644.45 89.24
  C 643.13 89.15 641.58 89.53 640.41 88.93
  Q 638.37 87.87 638.32 85.40
  Q 638.17 78.11 638.27 70.42
  A 0.66 0.66 0.0 0 1 638.96 69.77
  L 644.75 69.98
  A 0.52 0.51 2.8 0 0 645.29 69.50
  L 645.53 65.70
  Q 645.57 65.07 644.94 65.06
  L 638.99 65.00
  Q 638.23 64.99 638.23 64.24"
/>
<path stroke="#808080" vector-effect="non-scaling-stroke" d="
  M 350.58 91.26
  L 350.83 93.25
  A 0.96 0.96 0.0 0 0 351.76 94.09
  L 356.03 94.18
  Q 356.75 94.19 356.71 93.47
  Q 356.33 86.03 356.45 77.24
  C 356.54 71.06 354.59 65.64 347.58 64.66
  Q 341.45 63.80 335.59 66.51
  Q 334.95 66.81 335.15 67.49
  L 336.05 70.48
  A 0.61 0.61 0.0 0 0 336.92 70.85
  Q 340.30 69.13 344.63 69.08
  A 5.05 5.04 -13.3 0 1 349.23 71.91
  Q 349.51 72.48 349.69 72.85
  Q 351.05 75.63 347.95 75.46
  C 341.88 75.14 333.81 77.96 333.02 84.96
  C 331.89 95.04 344.61 97.74 349.93 91.08
  A 0.37 0.36 -29.1 0 1 350.58 91.26"
/>
<path stroke="#808080" vector-effect="non-scaling-stroke" d="
  M 419.10 91.54
  L 419.30 93.47
  Q 419.36 94.08 419.97 94.09
  L 424.43 94.22
  Q 425.16 94.24 425.13 93.51
  Q 424.79 85.16 424.81 76.23
  Q 424.84 64.16 412.54 64.45
  Q 408.09 64.56 404.00 66.54
  Q 403.50 66.78 403.63 67.31
  L 404.45 70.69
  Q 404.59 71.27 405.11 70.98
  Q 409.30 68.69 413.92 69.20
  A 4.79 4.79 0.0 0 1 417.74 71.96
  Q 418.10 72.73 418.30 73.61
  Q 418.76 75.50 416.81 75.45
  C 412.48 75.33 407.37 76.38 404.13 79.43
  C 399.34 83.91 400.98 93.11 407.91 94.40
  Q 414.38 95.61 418.31 91.28
  A 0.46 0.45 63.0 0 1 419.10 91.54"
/>
<path stroke="#808080" vector-effect="non-scaling-stroke" d="
  M 496.26 81.19
  L 514.43 81.16
  A 0.65 0.64 1.9 0 0 515.08 80.56
  C 515.58 74.15 513.65 67.13 507.00 65.06
  C 494.04 61.02 486.68 74.83 490.25 85.74
  C 493.47 95.61 504.91 95.79 512.95 93.12
  Q 513.60 92.90 513.45 92.23
  L 512.76 89.23
  Q 512.57 88.38 511.73 88.61
  C 505.25 90.37 496.53 90.83 495.65 81.86
  Q 495.59 81.19 496.26 81.19"
/>
<path stroke="#808080" vector-effect="non-scaling-stroke" d="
  M 552.7983 94.8220
  A 15.32 14.36 95.4 0 0 568.5363 80.9214
  A 15.32 14.36 95.4 0 0 555.6817 64.3180
  A 15.32 14.36 95.4 0 0 539.9437 78.2186
  A 15.32 14.36 95.4 0 0 552.7983 94.8220"
/>
<path stroke="#808080" vector-effect="non-scaling-stroke" d="
  M 583.51 68.24
  L 583.58 65.97
  Q 583.61 65.05 582.70 65.04
  L 578.51 64.99
  Q 577.76 64.98 577.76 65.74
  L 577.88 93.55
  A 0.66 0.66 0.0 0 0 578.55 94.20
  L 583.78 94.10
  Q 584.48 94.09 584.47 93.39
  Q 584.43 86.25 584.44 79.03
  Q 584.44 75.07 585.13 73.56
  C 587.00 69.50 592.34 68.14 595.30 71.90
  C 596.56 73.49 596.68 75.84 596.70 77.79
  Q 596.79 85.89 596.70 93.54
  A 0.58 0.58 0.0 0 0 597.28 94.13
  L 602.54 94.08
  Q 603.15 94.07 603.16 93.46
  Q 603.31 83.96 603.09 75.64
  C 602.95 70.28 600.11 65.33 594.52 64.57
  Q 588.40 63.73 584.44 68.59
  Q 583.46 69.78 583.51 68.24"
/>
<path stroke="#808080" vector-effect="non-scaling-stroke" d="
  M 693.90 81.17
  L 711.91 81.17
  Q 712.59 81.17 712.64 80.49
  C 713.27 71.61 709.03 63.55 699.28 64.48
  C 688.95 65.47 685.14 76.28 687.69 85.29
  C 690.51 95.26 701.59 95.91 710.13 93.23
  A 1.15 1.15 0.0 0 0 710.91 91.87
  L 710.30 89.20
  A 0.89 0.88 74.3 0 0 709.16 88.55
  C 702.63 90.74 694.51 90.52 693.20 81.99
  Q 693.07 81.17 693.90 81.17"
/>
<path stroke="#808080" vector-effect="non-scaling-stroke" d="
  M 321.00 65.07
  A 0.32 0.32 0.0 0 0 320.70 65.29
  L 314.06 86.55
  A 0.32 0.32 0.0 0 1 313.45 86.55
  L 306.82 65.24
  A 0.32 0.32 0.0 0 0 306.51 65.01
  L 300.17 65.13
  A 0.32 0.32 0.0 0 0 299.87 65.56
  L 310.31 94.01
  A 0.32 0.32 0.0 0 0 310.62 94.22
  L 316.44 94.08
  A 0.32 0.32 0.0 0 0 316.73 93.87
  L 327.51 65.43
  A 0.32 0.32 0.0 0 0 327.21 65.00
  L 321.00 65.07"
/>
<path stroke="#808080" vector-effect="non-scaling-stroke" d="
  M 374.19 65.53
  A 0.47 0.47 0.0 0 0 373.72 65.06
  L 368.12 65.06
  A 0.47 0.47 0.0 0 0 367.65 65.53
  L 367.65 93.69
  A 0.47 0.47 0.0 0 0 368.12 94.16
  L 373.72 94.16
  A 0.47 0.47 0.0 0 0 374.19 93.69
  L 374.19 65.53"
/>
<path stroke="#808080" vector-effect="non-scaling-stroke" d="
  M 183.05 145.84
  C 176.95 129.13 182.82 113.37 197.22 103.41
  Q 197.71 103.07 197.34 102.59
  Q 185.24 87.11 165.19 87.58
  C 157.23 87.77 149.62 91.87 142.48 94.19
  Q 138.33 95.54 133.98 93.91
  C 124.58 90.40 116.60 86.42 106.25 88.70
  C 82.33 93.96 72.22 117.50 74.06 139.77
  Q 76.59 170.29 96.21 194.81
  Q 99.58 199.03 103.81 202.51
  C 111.94 209.20 119.61 206.61 128.26 202.93
  C 134.36 200.34 141.60 199.54 147.76 201.16
  C 153.35 202.63 158.59 205.84 164.31 206.36
  C 174.87 207.32 181.70 199.98 187.52 191.93
  Q 197.31 178.37 201.53 165.70
  A 0.94 0.93 21.5 0 0 201.03 164.56
  C 193.09 160.96 186.02 153.99 183.05 145.84"
/>
<path stroke="#808080" vector-effect="non-scaling-stroke" d="
  M 533.47 125.75
  C 519.52 119.34 494.06 120.27 488.65 138.57
  C 484.64 152.16 493.38 161.98 505.13 166.89
  C 513.27 170.29 525.17 173.52 523.68 185.15
  C 522.91 191.14 517.63 194.59 511.97 195.26
  Q 500.68 196.61 489.90 190.82
  Q 489.22 190.46 489.02 191.20
  L 486.35 200.94
  A 0.75 0.74 -68.3 0 0 486.71 201.79
  C 504.87 211.61 539.87 207.50 536.83 179.18
  C 535.27 164.68 520.98 160.21 509.85 155.18
  C 495.36 148.62 499.25 132.84 515.11 133.04
  Q 523.48 133.15 530.00 136.49
  A 0.66 0.66 0.0 0 0 530.93 136.10
  L 533.84 126.58
  Q 534.02 126.00 533.47 125.75"
/>
<path stroke="#808080" vector-effect="non-scaling-stroke" d="
  M 303.45 181.25
  A 0.53 0.53 0.0 0 1 303.96 181.62
  L 311.35 204.92
  A 0.53 0.53 0.0 0 0 311.86 205.29
  L 324.77 205.31
  A 0.53 0.53 0.0 0 0 325.28 204.62
  L 299.14 123.72
  A 0.53 0.53 0.0 0 0 298.63 123.35
  L 283.04 123.41
  A 0.53 0.53 0.0 0 0 282.54 123.78
  L 256.51 204.61
  A 0.53 0.53 0.0 0 0 257.02 205.30
  L 269.56 205.30
  A 0.53 0.53 0.0 0 0 270.06 204.92
  L 277.13 181.64
  A 0.53 0.53 0.0 0 1 277.63 181.26
  L 303.45 181.25"
/>
<path stroke="#808080" vector-effect="non-scaling-stroke" d="
  M 553.14 156.80
  Q 553.02 170.78 553.14 186.79
  Q 553.19 193.98 555.85 199.18
  C 560.07 207.40 570.87 207.52 578.99 205.35
  Q 579.94 205.10 579.92 204.11
  L 579.70 196.18
  Q 579.67 195.17 578.66 195.26
  C 573.61 195.76 568.63 196.50 566.91 190.45
  Q 566.02 187.35 566.05 182.45
  Q 566.13 169.51 566.08 156.67
  A 0.61 0.60 -90.0 0 1 566.68 156.06
  L 579.99 156.08
  Q 580.56 156.08 580.57 155.51
  L 580.59 146.64
  A 0.51 0.51 0.0 0 0 580.08 146.13
  L 566.69 146.18
  A 0.60 0.60 0.0 0 1 566.09 145.58
  L 566.13 132.21
  Q 566.14 131.49 565.45 131.70
  L 553.69 135.17
  A 0.87 0.86 -8.9 0 0 553.07 136.01
  L 553.17 145.51
  Q 553.18 146.01 552.68 146.06
  Q 549.16 146.37 546.09 145.94
  Q 544.63 145.74 544.62 147.22
  L 544.55 154.92
  Q 544.54 156.06 545.67 156.06
  L 552.39 156.05
  A 0.74 0.74 0.0 0 1 553.14 156.80"
/>
<path stroke="#808080" vector-effect="non-scaling-stroke" d="
  M 350.10 199.10
  Q 350.53 199.07 350.77 199.43
  C 354.55 204.99 361.69 207.04 368.18 206.63
  C 389.43 205.29 396.05 182.89 392.06 165.30
  C 389.54 154.22 381.18 145.36 369.35 145.04
  Q 356.20 144.69 349.28 154.95
  Q 348.63 155.90 348.55 154.75
  L 347.98 146.72
  A 0.52 0.52 0.0 0 0 347.47 146.24
  L 336.73 146.12
  A 0.47 0.47 0.0 0 0 336.25 146.62
  Q 336.63 153.56 336.66 159.00
  Q 336.87 192.92 336.72 228.81
  A 0.46 0.46 0.0 0 0 337.18 229.27
  L 349.46 229.27
  Q 349.95 229.27 349.95 228.79
  L 349.91 199.30
  A 0.20 0.20 0.0 0 1 350.10 199.10"
/>
<path stroke="#808080" vector-effect="non-scaling-stroke" d="
  M 416.31 154.53
  L 415.95 146.84
  Q 415.92 146.26 415.34 146.25
  L 404.73 146.12
  Q 404.54 146.11 404.54 146.31
  L 404.78 228.53
  Q 404.78 229.28 405.53 229.28
  L 417.54 229.25
  A 0.38 0.37 90.0 0 0 417.91 228.87
  L 417.91 199.75
  Q 417.91 198.53 418.65 199.50
  C 424.06 206.56 433.74 208.05 441.77 205.66
  C 457.03 201.13 462.40 185.29 460.86 170.32
  C 459.67 158.79 452.72 147.24 440.97 145.44
  Q 425.51 143.07 417.19 154.79
  Q 416.37 155.94 416.31 154.53"
/>
<path stroke="#808080" vector-effect="non-scaling-stroke" d="
  M 621.97 145.41
  C 599.13 142.58 585.79 159.31 588.05 180.69
  C 589.33 192.71 596.92 203.16 608.92 205.82
  C 621.81 208.67 634.98 204.33 641.56 192.50
  C 647.13 182.49 647.23 167.15 640.96 157.42
  Q 634.19 146.92 621.97 145.41"
/>
<path stroke="#808080" vector-effect="non-scaling-stroke" d="
  M 668.43 155.68
  Q 668.66 151.70 668.19 146.84
  Q 668.13 146.26 667.55 146.25
  L 657.24 146.14
  Q 656.80 146.13 656.81 146.58
  Q 657.39 170.64 657.12 204.58
  Q 657.11 205.28 657.81 205.28
  L 669.68 205.30
  Q 670.28 205.30 670.28 204.70
  Q 670.16 188.53 670.32 173.47
  C 670.43 162.74 676.81 156.23 687.74 157.66
  A 0.53 0.52 3.4 0 0 688.33 157.14
  L 688.30 145.54
  A 0.37 0.36 3.6 0 0 687.98 145.18
  C 679.36 144.09 673.24 148.34 669.59 155.98
  Q 668.25 158.77 668.43 155.68"
/>
<path stroke="#808080" vector-effect="non-scaling-stroke" d="
  M 708.17 178.97
  L 746.03 179.00
  A 0.66 0.65 3.5 0 0 746.68 178.43
  C 749.02 160.72 740.61 143.72 720.18 145.03
  C 699.87 146.34 691.73 167.37 695.37 184.73
  C 698.39 199.14 709.64 206.38 724.10 206.37
  Q 734.36 206.36 743.11 203.02
  Q 743.79 202.76 743.63 202.05
  L 741.87 194.23
  Q 741.72 193.59 741.10 193.80
  C 727.43 198.50 709.01 198.54 707.22 180.02
  Q 707.12 178.97 708.17 178.97"
/>
<path stroke="#808080" vector-effect="non-scaling-stroke" d="
  M 456.9328 76.4647
  A 6.61 6.61 0.0 0 0 450.3924 69.7859
  L 449.3724 69.7752
  A 6.61 6.61 0.0 0 0 442.6936 76.3156
  L 442.6272 82.6553
  A 6.61 6.61 0.0 0 0 449.1676 89.3341
  L 450.1876 89.3448
  A 6.61 6.61 0.0 0 0 456.8664 82.8044
  L 456.9328 76.4647"
/>
<path stroke="#808080" vector-effect="non-scaling-stroke" d="
  M 283.25 76.47
  Q 280.37 68.79 278.15 59.92
  A 0.21 0.21 0.0 0 0 277.74 59.92
  Q 275.91 67.86 272.77 76.66
  A 0.46 0.46 0.0 0 0 273.20 77.28
  L 282.70 77.26
  A 0.59 0.58 -10.3 0 0 283.25 76.47"
/>
<path stroke="#808080" vector-effect="non-scaling-stroke" d="
  M 339.75 87.32
  Q 340.58 89.95 343.57 89.94
  C 349.57 89.90 350.50 85.13 350.05 80.26
  Q 350.00 79.62 349.34 79.62
  C 344.74 79.68 337.75 80.98 339.75 87.32"
/>
<path stroke="#808080" vector-effect="non-scaling-stroke" d="
  M 418.45 84.51
  Q 418.56 82.25 418.53 80.23
  A 0.57 0.57 0.0 0 0 417.97 79.67
  C 413.91 79.61 407.45 80.53 407.86 85.81
  C 408.40 92.75 418.17 90.22 418.45 84.51"
/>
<path stroke="#808080" vector-effect="non-scaling-stroke" d="
  M 496.28 76.57
  L 508.64 76.45
  A 0.39 0.39 0.0 0 0 509.03 76.05
  L 509.02 75.83
  A 6.95 6.49 89.4 0 0 502.46 68.95
  L 502.30 68.95
  A 6.95 6.49 89.4 0 0 495.88 75.97
  L 495.89 76.19
  A 0.39 0.39 0.0 0 0 496.28 76.57"
/>
<path stroke="#808080" vector-effect="non-scaling-stroke" d="
  M 554.0689 89.9896
  A 10.44 7.60 90.5 0 0 561.7597 79.6163
  A 10.44 7.60 90.5 0 0 554.2511 69.1104
  A 10.44 7.60 90.5 0 0 546.5603 79.4837
  A 10.44 7.60 90.5 0 0 554.0689 89.9896"
/>
<path stroke="#808080" vector-effect="non-scaling-stroke" d="
  M 693.74 76.54
  L 706.30 76.48
  A 0.26 0.26 0.0 0 0 706.56 76.22
  L 706.56 76.04
  A 7.14 6.45 89.7 0 0 700.07 68.93
  L 699.89 68.93
  A 7.14 6.45 89.7 0 0 693.48 76.10
  L 693.48 76.28
  A 0.26 0.26 0.0 0 0 693.74 76.54"
/>
<path stroke="#808080" vector-effect="non-scaling-stroke" d="
  M 289.89 135.35
  C 287.41 147.28 283.40 158.83 279.78 170.48
  A 0.44 0.44 0.0 0 0 280.20 171.05
  L 300.73 171.09
  A 0.43 0.42 -8.5 0 0 301.14 170.54
  L 290.38 135.32
  A 0.26 0.25 -48.1 0 0 289.89 135.35"
/>
<path stroke="#808080" vector-effect="non-scaling-stroke" d="
  M 378.64 167.37
  C 373.81 149.51 351.09 152.84 350.00 170.62
  Q 349.62 176.81 350.09 182.63
  C 350.81 191.37 357.71 197.52 366.62 196.12
  C 379.51 194.11 381.29 177.14 378.64 167.37"
/>
<path stroke="#808080" vector-effect="non-scaling-stroke" d="
  M 437.84 195.15
  C 451.47 189.31 451.42 158.77 435.49 155.84
  C 426.49 154.18 419.31 160.29 418.09 169.00
  Q 417.45 173.52 418.04 183.50
  Q 418.29 187.74 421.94 191.94
  C 425.82 196.40 432.50 197.44 437.84 195.15"
/>
<path stroke="#808080" vector-effect="non-scaling-stroke" d="
  M 616.4612 196.9695
  A 21.31 15.54 90.4 0 0 632.1496 175.7685
  A 21.31 15.54 90.4 0 0 616.7588 154.3505
  A 21.31 15.54 90.4 0 0 601.0704 175.5515
  A 21.31 15.54 90.4 0 0 616.4612 196.9695"
/>
<path stroke="#808080" vector-effect="non-scaling-stroke" d="
  M 707.96 169.62
  L 734.48 169.48
  A 0.25 0.25 0.0 0 0 734.73 169.23
  L 734.73 168.87
  A 14.95 13.50 89.7 0 0 721.15 153.99
  L 721.13 153.99
  A 14.95 13.50 89.7 0 0 707.71 169.01
  L 707.71 169.37
  A 0.25 0.25 0.0 0 0 707.96 169.62"
/>
</g>
<path fill="#ffffff" d="
  M 0.00 0.00
  L 820.00 0.00
  L 820.00 281.00
  L 0.00 281.00
  L 0.00 0.00
  Z
  M 819.70 33.93
  A 33.17 33.17 0.0 0 0 786.53 0.76
  L 34.41 0.76
  A 33.17 33.17 0.0 0 0 1.24 33.93
  L 1.24 244.79
  A 33.17 33.17 0.0 0 0 34.41 277.96
  L 786.53 277.96
  A 33.17 33.17 0.0 0 0 819.70 244.79
  L 819.70 33.93
  Z"
/>
<path fill="#000000" d="
  M 819.70 244.79
  A 33.17 33.17 0.0 0 1 786.53 277.96
  L 34.41 277.96
  A 33.17 33.17 0.0 0 1 1.24 244.79
  L 1.24 33.93
  A 33.17 33.17 0.0 0 1 34.41 0.76
  L 786.53 0.76
  A 33.17 33.17 0.0 0 1 819.70 33.93
  L 819.70 244.79
  Z
  M 162.89 50.70
  C 147.89 55.63 136.41 69.02 137.53 85.17
  A 0.94 0.94 0.0 0 0 138.50 86.05
  C 156.57 85.35 170.39 68.13 169.07 50.19
  A 0.48 0.48 0.0 0 0 168.59 49.74
  Q 165.69 49.78 162.89 50.70
  Z
  M 392.06 52.33
  A 0.60 0.60 0.0 0 0 391.46 51.73
  L 386.10 51.73
  A 0.60 0.60 0.0 0 0 385.50 52.33
  L 385.50 93.55
  A 0.60 0.60 0.0 0 0 386.10 94.15
  L 391.46 94.15
  A 0.60 0.60 0.0 0 0 392.06 93.55
  L 392.06 52.33
  Z
  M 442.50 68.20
  L 442.54 51.99
  Q 442.54 51.69 442.24 51.69
  L 436.26 51.76
  Q 436.03 51.76 436.03 51.99
  L 436.00 93.48
  Q 436.00 94.20 436.72 94.18
  L 440.57 94.11
  Q 441.47 94.09 441.49 93.20
  L 441.51 91.76
  Q 441.57 88.90 443.14 91.29
  Q 444.47 93.30 446.81 94.02
  C 456.37 96.93 462.91 89.90 463.71 80.84
  C 464.17 75.57 462.59 69.22 457.92 66.27
  Q 452.20 62.67 445.79 66.02
  C 444.77 66.55 443.96 67.66 443.13 68.46
  Q 442.50 69.06 442.50 68.20
  Z
  M 479.76 52.30
  A 0.59 0.59 0.0 0 0 479.17 51.71
  L 473.85 51.71
  A 0.59 0.59 0.0 0 0 473.26 52.30
  L 473.26 93.56
  A 0.59 0.59 0.0 0 0 473.85 94.15
  L 479.17 94.15
  A 0.59 0.59 0.0 0 0 479.76 93.56
  L 479.76 52.30
  Z
  M 660.74 68.08
  L 660.82 51.92
  Q 660.82 51.73 660.64 51.73
  L 654.42 51.74
  Q 654.26 51.74 654.26 51.91
  L 654.26 93.47
  A 0.70 0.70 0.0 0 0 654.97 94.17
  L 660.22 94.14
  Q 660.80 94.13 660.80 93.55
  Q 660.78 85.65 660.81 76.95
  Q 660.81 74.06 662.06 72.27
  C 664.33 68.98 670.26 68.60 672.08 72.70
  Q 673.02 74.80 673.00 77.43
  Q 672.94 85.51 672.99 93.53
  Q 672.99 94.11 673.57 94.11
  L 678.96 94.10
  Q 679.53 94.10 679.53 93.53
  Q 679.49 85.59 679.51 77.36
  Q 679.52 74.12 678.64 71.26
  C 676.50 64.30 668.83 62.50 663.23 66.49
  C 662.54 66.98 662.02 67.77 661.41 68.36
  Q 660.74 69.01 660.74 68.08
  Z
  M 374.81 56.41
  A 3.93 3.93 0.0 0 0 370.88 52.48
  A 3.93 3.93 0.0 0 0 366.95 56.41
  A 3.93 3.93 0.0 0 0 370.88 60.34
  A 3.93 3.93 0.0 0 0 374.81 56.41
  Z
  M 271.41 82.69
  A 0.62 0.62 0.0 0 1 272.00 82.25
  L 284.11 82.25
  A 0.62 0.62 0.0 0 1 284.71 82.68
  L 288.15 93.64
  A 0.62 0.62 0.0 0 0 288.73 94.08
  L 294.42 94.18
  A 0.62 0.62 0.0 0 0 295.02 93.37
  L 282.32 54.20
  A 0.62 0.62 0.0 0 0 281.73 53.77
  L 274.61 53.76
  A 0.62 0.62 0.0 0 0 274.02 54.19
  L 261.39 93.43
  A 0.62 0.62 0.0 0 0 261.99 94.24
  L 267.45 94.15
  A 0.62 0.62 0.0 0 0 268.03 93.71
  L 271.41 82.69
  Z
  M 638.23 64.24
  L 638.27 58.66
  Q 638.28 57.80 637.45 58.04
  L 632.69 59.42
  Q 631.66 59.72 631.70 60.79
  L 631.84 64.42
  A 0.63 0.63 0.0 0 1 631.21 65.07
  L 628.33 65.08
  Q 627.73 65.08 627.69 65.67
  L 627.46 69.23
  Q 627.42 69.80 627.99 69.80
  L 631.11 69.78
  A 0.75 0.74 0.7 0 1 631.86 70.54
  Q 631.75 77.16 631.85 84.58
  Q 631.90 88.52 633.38 91.39
  C 635.28 95.08 640.74 95.00 644.17 94.18
  A 1.35 1.34 -9.1 0 0 645.20 92.77
  L 644.96 89.76
  Q 644.93 89.28 644.45 89.24
  C 643.13 89.15 641.58 89.53 640.41 88.93
  Q 638.37 87.87 638.32 85.40
  Q 638.17 78.11 638.27 70.42
  A 0.66 0.66 0.0 0 1 638.96 69.77
  L 644.75 69.98
  A 0.52 0.51 2.8 0 0 645.29 69.50
  L 645.53 65.70
  Q 645.57 65.07 644.94 65.06
  L 638.99 65.00
  Q 638.23 64.99 638.23 64.24
  Z
  M 350.58 91.26
  L 350.83 93.25
  A 0.96 0.96 0.0 0 0 351.76 94.09
  L 356.03 94.18
  Q 356.75 94.19 356.71 93.47
  Q 356.33 86.03 356.45 77.24
  C 356.54 71.06 354.59 65.64 347.58 64.66
  Q 341.45 63.80 335.59 66.51
  Q 334.95 66.81 335.15 67.49
  L 336.05 70.48
  A 0.61 0.61 0.0 0 0 336.92 70.85
  Q 340.30 69.13 344.63 69.08
  A 5.05 5.04 -13.3 0 1 349.23 71.91
  Q 349.51 72.48 349.69 72.85
  Q 351.05 75.63 347.95 75.46
  C 341.88 75.14 333.81 77.96 333.02 84.96
  C 331.89 95.04 344.61 97.74 349.93 91.08
  A 0.37 0.36 -29.1 0 1 350.58 91.26
  Z
  M 419.10 91.54
  L 419.30 93.47
  Q 419.36 94.08 419.97 94.09
  L 424.43 94.22
  Q 425.16 94.24 425.13 93.51
  Q 424.79 85.16 424.81 76.23
  Q 424.84 64.16 412.54 64.45
  Q 408.09 64.56 404.00 66.54
  Q 403.50 66.78 403.63 67.31
  L 404.45 70.69
  Q 404.59 71.27 405.11 70.98
  Q 409.30 68.69 413.92 69.20
  A 4.79 4.79 0.0 0 1 417.74 71.96
  Q 418.10 72.73 418.30 73.61
  Q 418.76 75.50 416.81 75.45
  C 412.48 75.33 407.37 76.38 404.13 79.43
  C 399.34 83.91 400.98 93.11 407.91 94.40
  Q 414.38 95.61 418.31 91.28
  A 0.46 0.45 63.0 0 1 419.10 91.54
  Z
  M 496.26 81.19
  L 514.43 81.16
  A 0.65 0.64 1.9 0 0 515.08 80.56
  C 515.58 74.15 513.65 67.13 507.00 65.06
  C 494.04 61.02 486.68 74.83 490.25 85.74
  C 493.47 95.61 504.91 95.79 512.95 93.12
  Q 513.60 92.90 513.45 92.23
  L 512.76 89.23
  Q 512.57 88.38 511.73 88.61
  C 505.25 90.37 496.53 90.83 495.65 81.86
  Q 495.59 81.19 496.26 81.19
  Z
  M 552.7983 94.8220
  A 15.32 14.36 95.4 0 0 568.5363 80.9214
  A 15.32 14.36 95.4 0 0 555.6817 64.3180
  A 15.32 14.36 95.4 0 0 539.9437 78.2186
  A 15.32 14.36 95.4 0 0 552.7983 94.8220
  Z
  M 583.51 68.24
  L 583.58 65.97
  Q 583.61 65.05 582.70 65.04
  L 578.51 64.99
  Q 577.76 64.98 577.76 65.74
  L 577.88 93.55
  A 0.66 0.66 0.0 0 0 578.55 94.20
  L 583.78 94.10
  Q 584.48 94.09 584.47 93.39
  Q 584.43 86.25 584.44 79.03
  Q 584.44 75.07 585.13 73.56
  C 587.00 69.50 592.34 68.14 595.30 71.90
  C 596.56 73.49 596.68 75.84 596.70 77.79
  Q 596.79 85.89 596.70 93.54
  A 0.58 0.58 0.0 0 0 597.28 94.13
  L 602.54 94.08
  Q 603.15 94.07 603.16 93.46
  Q 603.31 83.96 603.09 75.64
  C 602.95 70.28 600.11 65.33 594.52 64.57
  Q 588.40 63.73 584.44 68.59
  Q 583.46 69.78 583.51 68.24
  Z
  M 693.90 81.17
  L 711.91 81.17
  Q 712.59 81.17 712.64 80.49
  C 713.27 71.61 709.03 63.55 699.28 64.48
  C 688.95 65.47 685.14 76.28 687.69 85.29
  C 690.51 95.26 701.59 95.91 710.13 93.23
  A 1.15 1.15 0.0 0 0 710.91 91.87
  L 710.30 89.20
  A 0.89 0.88 74.3 0 0 709.16 88.55
  C 702.63 90.74 694.51 90.52 693.20 81.99
  Q 693.07 81.17 693.90 81.17
  Z
  M 321.00 65.07
  A 0.32 0.32 0.0 0 0 320.70 65.29
  L 314.06 86.55
  A 0.32 0.32 0.0 0 1 313.45 86.55
  L 306.82 65.24
  A 0.32 0.32 0.0 0 0 306.51 65.01
  L 300.17 65.13
  A 0.32 0.32 0.0 0 0 299.87 65.56
  L 310.31 94.01
  A 0.32 0.32 0.0 0 0 310.62 94.22
  L 316.44 94.08
  A 0.32 0.32 0.0 0 0 316.73 93.87
  L 327.51 65.43
  A 0.32 0.32 0.0 0 0 327.21 65.00
  L 321.00 65.07
  Z
  M 374.19 65.53
  A 0.47 0.47 0.0 0 0 373.72 65.06
  L 368.12 65.06
  A 0.47 0.47 0.0 0 0 367.65 65.53
  L 367.65 93.69
  A 0.47 0.47 0.0 0 0 368.12 94.16
  L 373.72 94.16
  A 0.47 0.47 0.0 0 0 374.19 93.69
  L 374.19 65.53
  Z
  M 183.05 145.84
  C 176.95 129.13 182.82 113.37 197.22 103.41
  Q 197.71 103.07 197.34 102.59
  Q 185.24 87.11 165.19 87.58
  C 157.23 87.77 149.62 91.87 142.48 94.19
  Q 138.33 95.54 133.98 93.91
  C 124.58 90.40 116.60 86.42 106.25 88.70
  C 82.33 93.96 72.22 117.50 74.06 139.77
  Q 76.59 170.29 96.21 194.81
  Q 99.58 199.03 103.81 202.51
  C 111.94 209.20 119.61 206.61 128.26 202.93
  C 134.36 200.34 141.60 199.54 147.76 201.16
  C 153.35 202.63 158.59 205.84 164.31 206.36
  C 174.87 207.32 181.70 199.98 187.52 191.93
  Q 197.31 178.37 201.53 165.70
  A 0.94 0.93 21.5 0 0 201.03 164.56
  C 193.09 160.96 186.02 153.99 183.05 145.84
  Z
  M 533.47 125.75
  C 519.52 119.34 494.06 120.27 488.65 138.57
  C 484.64 152.16 493.38 161.98 505.13 166.89
  C 513.27 170.29 525.17 173.52 523.68 185.15
  C 522.91 191.14 517.63 194.59 511.97 195.26
  Q 500.68 196.61 489.90 190.82
  Q 489.22 190.46 489.02 191.20
  L 486.35 200.94
  A 0.75 0.74 -68.3 0 0 486.71 201.79
  C 504.87 211.61 539.87 207.50 536.83 179.18
  C 535.27 164.68 520.98 160.21 509.85 155.18
  C 495.36 148.62 499.25 132.84 515.11 133.04
  Q 523.48 133.15 530.00 136.49
  A 0.66 0.66 0.0 0 0 530.93 136.10
  L 533.84 126.58
  Q 534.02 126.00 533.47 125.75
  Z
  M 303.45 181.25
  A 0.53 0.53 0.0 0 1 303.96 181.62
  L 311.35 204.92
  A 0.53 0.53 0.0 0 0 311.86 205.29
  L 324.77 205.31
  A 0.53 0.53 0.0 0 0 325.28 204.62
  L 299.14 123.72
  A 0.53 0.53 0.0 0 0 298.63 123.35
  L 283.04 123.41
  A 0.53 0.53 0.0 0 0 282.54 123.78
  L 256.51 204.61
  A 0.53 0.53 0.0 0 0 257.02 205.30
  L 269.56 205.30
  A 0.53 0.53 0.0 0 0 270.06 204.92
  L 277.13 181.64
  A 0.53 0.53 0.0 0 1 277.63 181.26
  L 303.45 181.25
  Z
  M 553.14 156.80
  Q 553.02 170.78 553.14 186.79
  Q 553.19 193.98 555.85 199.18
  C 560.07 207.40 570.87 207.52 578.99 205.35
  Q 579.94 205.10 579.92 204.11
  L 579.70 196.18
  Q 579.67 195.17 578.66 195.26
  C 573.61 195.76 568.63 196.50 566.91 190.45
  Q 566.02 187.35 566.05 182.45
  Q 566.13 169.51 566.08 156.67
  A 0.61 0.60 -90.0 0 1 566.68 156.06
  L 579.99 156.08
  Q 580.56 156.08 580.57 155.51
  L 580.59 146.64
  A 0.51 0.51 0.0 0 0 580.08 146.13
  L 566.69 146.18
  A 0.60 0.60 0.0 0 1 566.09 145.58
  L 566.13 132.21
  Q 566.14 131.49 565.45 131.70
  L 553.69 135.17
  A 0.87 0.86 -8.9 0 0 553.07 136.01
  L 553.17 145.51
  Q 553.18 146.01 552.68 146.06
  Q 549.16 146.37 546.09 145.94
  Q 544.63 145.74 544.62 147.22
  L 544.55 154.92
  Q 544.54 156.06 545.67 156.06
  L 552.39 156.05
  A 0.74 0.74 0.0 0 1 553.14 156.80
  Z
  M 350.10 199.10
  Q 350.53 199.07 350.77 199.43
  C 354.55 204.99 361.69 207.04 368.18 206.63
  C 389.43 205.29 396.05 182.89 392.06 165.30
  C 389.54 154.22 381.18 145.36 369.35 145.04
  Q 356.20 144.69 349.28 154.95
  Q 348.63 155.90 348.55 154.75
  L 347.98 146.72
  A 0.52 0.52 0.0 0 0 347.47 146.24
  L 336.73 146.12
  A 0.47 0.47 0.0 0 0 336.25 146.62
  Q 336.63 153.56 336.66 159.00
  Q 336.87 192.92 336.72 228.81
  A 0.46 0.46 0.0 0 0 337.18 229.27
  L 349.46 229.27
  Q 349.95 229.27 349.95 228.79
  L 349.91 199.30
  A 0.20 0.20 0.0 0 1 350.10 199.10
  Z
  M 416.31 154.53
  L 415.95 146.84
  Q 415.92 146.26 415.34 146.25
  L 404.73 146.12
  Q 404.54 146.11 404.54 146.31
  L 404.78 228.53
  Q 404.78 229.28 405.53 229.28
  L 417.54 229.25
  A 0.38 0.37 90.0 0 0 417.91 228.87
  L 417.91 199.75
  Q 417.91 198.53 418.65 199.50
  C 424.06 206.56 433.74 208.05 441.77 205.66
  C 457.03 201.13 462.40 185.29 460.86 170.32
  C 459.67 158.79 452.72 147.24 440.97 145.44
  Q 425.51 143.07 417.19 154.79
  Q 416.37 155.94 416.31 154.53
  Z
  M 621.97 145.41
  C 599.13 142.58 585.79 159.31 588.05 180.69
  C 589.33 192.71 596.92 203.16 608.92 205.82
  C 621.81 208.67 634.98 204.33 641.56 192.50
  C 647.13 182.49 647.23 167.15 640.96 157.42
  Q 634.19 146.92 621.97 145.41
  Z
  M 668.43 155.68
  Q 668.66 151.70 668.19 146.84
  Q 668.13 146.26 667.55 146.25
  L 657.24 146.14
  Q 656.80 146.13 656.81 146.58
  Q 657.39 170.64 657.12 204.58
  Q 657.11 205.28 657.81 205.28
  L 669.68 205.30
  Q 670.28 205.30 670.28 204.70
  Q 670.16 188.53 670.32 173.47
  C 670.43 162.74 676.81 156.23 687.74 157.66
  A 0.53 0.52 3.4 0 0 688.33 157.14
  L 688.30 145.54
  A 0.37 0.36 3.6 0 0 687.98 145.18
  C 679.36 144.09 673.24 148.34 669.59 155.98
  Q 668.25 158.77 668.43 155.68
  Z
  M 708.17 178.97
  L 746.03 179.00
  A 0.66 0.65 3.5 0 0 746.68 178.43
  C 749.02 160.72 740.61 143.72 720.18 145.03
  C 699.87 146.34 691.73 167.37 695.37 184.73
  C 698.39 199.14 709.64 206.38 724.10 206.37
  Q 734.36 206.36 743.11 203.02
  Q 743.79 202.76 743.63 202.05
  L 741.87 194.23
  Q 741.72 193.59 741.10 193.80
  C 727.43 198.50 709.01 198.54 707.22 180.02
  Q 707.12 178.97 708.17 178.97
  Z"
/>
<path fill="#ffffff" d="
  M 137.53 85.17
  C 136.41 69.02 147.89 55.63 162.89 50.70
  Q 165.69 49.78 168.59 49.74
  A 0.48 0.48 0.0 0 1 169.07 50.19
  C 170.39 68.13 156.57 85.35 138.50 86.05
  A 0.94 0.94 0.0 0 1 137.53 85.17
  Z"
/>
<rect fill="#ffffff" x="385.50" y="51.73" width="6.56" height="42.42" rx="0.60"/>
<path fill="#ffffff" d="
  M 443.13 68.46
  C 443.96 67.66 444.77 66.55 445.79 66.02
  Q 452.20 62.67 457.92 66.27
  C 462.59 69.22 464.17 75.57 463.71 80.84
  C 462.91 89.90 456.37 96.93 446.81 94.02
  Q 444.47 93.30 443.14 91.29
  Q 441.57 88.90 441.51 91.76
  L 441.49 93.20
  Q 441.47 94.09 440.57 94.11
  L 436.72 94.18
  Q 436.00 94.20 436.00 93.48
  L 436.03 51.99
  Q 436.03 51.76 436.26 51.76
  L 442.24 51.69
  Q 442.54 51.69 442.54 51.99
  L 442.50 68.20
  Q 442.50 69.06 443.13 68.46
  Z
  M 456.9328 76.4647
  A 6.61 6.61 0.0 0 0 450.3924 69.7859
  L 449.3724 69.7752
  A 6.61 6.61 0.0 0 0 442.6936 76.3156
  L 442.6272 82.6553
  A 6.61 6.61 0.0 0 0 449.1676 89.3341
  L 450.1876 89.3448
  A 6.61 6.61 0.0 0 0 456.8664 82.8044
  L 456.9328 76.4647
  Z"
/>
<rect fill="#ffffff" x="473.26" y="51.71" width="6.50" height="42.44" rx="0.59"/>
<path fill="#ffffff" d="
  M 661.41 68.36
  C 662.02 67.77 662.54 66.98 663.23 66.49
  C 668.83 62.50 676.50 64.30 678.64 71.26
  Q 679.52 74.12 679.51 77.36
  Q 679.49 85.59 679.53 93.53
  Q 679.53 94.10 678.96 94.10
  L 673.57 94.11
  Q 672.99 94.11 672.99 93.53
  Q 672.94 85.51 673.00 77.43
  Q 673.02 74.80 672.08 72.70
  C 670.26 68.60 664.33 68.98 662.06 72.27
  Q 660.81 74.06 660.81 76.95
  Q 660.78 85.65 660.80 93.55
  Q 660.80 94.13 660.22 94.14
  L 654.97 94.17
  A 0.70 0.70 0.0 0 1 654.26 93.47
  L 654.26 51.91
  Q 654.26 51.74 654.42 51.74
  L 660.64 51.73
  Q 660.82 51.73 660.82 51.92
  L 660.74 68.08
  Q 660.74 69.01 661.41 68.36
  Z"
/>
<circle fill="#ffffff" cx="370.88" cy="56.41" r="3.93"/>
<path fill="#ffffff" d="
  M 271.41 82.69
  L 268.03 93.71
  A 0.62 0.62 0.0 0 1 267.45 94.15
  L 261.99 94.24
  A 0.62 0.62 0.0 0 1 261.39 93.43
  L 274.02 54.19
  A 0.62 0.62 0.0 0 1 274.61 53.76
  L 281.73 53.77
  A 0.62 0.62 0.0 0 1 282.32 54.20
  L 295.02 93.37
  A 0.62 0.62 0.0 0 1 294.42 94.18
  L 288.73 94.08
  A 0.62 0.62 0.0 0 1 288.15 93.64
  L 284.71 82.68
  A 0.62 0.62 0.0 0 0 284.11 82.25
  L 272.00 82.25
  A 0.62 0.62 0.0 0 0 271.41 82.69
  Z
  M 283.25 76.47
  Q 280.37 68.79 278.15 59.92
  A 0.21 0.21 0.0 0 0 277.74 59.92
  Q 275.91 67.86 272.77 76.66
  A 0.46 0.46 0.0 0 0 273.20 77.28
  L 282.70 77.26
  A 0.59 0.58 -10.3 0 0 283.25 76.47
  Z"
/>
<path fill="#ffffff" d="
  M 638.99 65.00
  L 644.94 65.06
  Q 645.57 65.07 645.53 65.70
  L 645.29 69.50
  A 0.52 0.51 2.8 0 1 644.75 69.98
  L 638.96 69.77
  A 0.66 0.66 0.0 0 0 638.27 70.42
  Q 638.17 78.11 638.32 85.40
  Q 638.37 87.87 640.41 88.93
  C 641.58 89.53 643.13 89.15 644.45 89.24
  Q 644.93 89.28 644.96 89.76
  L 645.20 92.77
  A 1.35 1.34 -9.1 0 1 644.17 94.18
  C 640.74 95.00 635.28 95.08 633.38 91.39
  Q 631.90 88.52 631.85 84.58
  Q 631.75 77.16 631.86 70.54
  A 0.75 0.74 0.7 0 0 631.11 69.78
  L 627.99 69.80
  Q 627.42 69.80 627.46 69.23
  L 627.69 65.67
  Q 627.73 65.08 628.33 65.08
  L 631.21 65.07
  A 0.63 0.63 0.0 0 0 631.84 64.42
  L 631.70 60.79
  Q 631.66 59.72 632.69 59.42
  L 637.45 58.04
  Q 638.28 57.80 638.27 58.66
  L 638.23 64.24
  Q 638.23 64.99 638.99 65.00
  Z"
/>
<path fill="#000000" d="
  M 283.25 76.47
  A 0.59 0.58 -10.3 0 1 282.70 77.26
  L 273.20 77.28
  A 0.46 0.46 0.0 0 1 272.77 76.66
  Q 275.91 67.86 277.74 59.92
  A 0.21 0.21 0.0 0 1 278.15 59.92
  Q 280.37 68.79 283.25 76.47
  Z"
/>
<path fill="#ffffff" d="
  M 350.58 91.26
  A 0.37 0.36 -29.1 0 0 349.93 91.08
  C 344.61 97.74 331.89 95.04 333.02 84.96
  C 333.81 77.96 341.88 75.14 347.95 75.46
  Q 351.05 75.63 349.69 72.85
  Q 349.51 72.48 349.23 71.91
  A 5.05 5.04 -13.3 0 0 344.63 69.08
  Q 340.30 69.13 336.92 70.85
  A 0.61 0.61 0.0 0 1 336.05 70.48
  L 335.15 67.49
  Q 334.95 66.81 335.59 66.51
  Q 341.45 63.80 347.58 64.66
  C 354.59 65.64 356.54 71.06 356.45 77.24
  Q 356.33 86.03 356.71 93.47
  Q 356.75 94.19 356.03 94.18
  L 351.76 94.09
  A 0.96 0.96 0.0 0 1 350.83 93.25
  L 350.58 91.26
  Z
  M 339.75 87.32
  Q 340.58 89.95 343.57 89.94
  C 349.57 89.90 350.50 85.13 350.05 80.26
  Q 350.00 79.62 349.34 79.62
  C 344.74 79.68 337.75 80.98 339.75 87.32
  Z"
/>
<path fill="#ffffff" d="
  M 419.10 91.54
  A 0.46 0.45 63.0 0 0 418.31 91.28
  Q 414.38 95.61 407.91 94.40
  C 400.98 93.11 399.34 83.91 404.13 79.43
  C 407.37 76.38 412.48 75.33 416.81 75.45
  Q 418.76 75.50 418.30 73.61
  Q 418.10 72.73 417.74 71.96
  A 4.79 4.79 0.0 0 0 413.92 69.20
  Q 409.30 68.69 405.11 70.98
  Q 404.59 71.27 404.45 70.69
  L 403.63 67.31
  Q 403.50 66.78 404.00 66.54
  Q 408.09 64.56 412.54 64.45
  Q 424.84 64.16 424.81 76.23
  Q 424.79 85.16 425.13 93.51
  Q 425.16 94.24 424.43 94.22
  L 419.97 94.09
  Q 419.36 94.08 419.30 93.47
  L 419.10 91.54
  Z
  M 418.45 84.51
  Q 418.56 82.25 418.53 80.23
  A 0.57 0.57 0.0 0 0 417.97 79.67
  C 413.91 79.61 407.45 80.53 407.86 85.81
  C 408.40 92.75 418.17 90.22 418.45 84.51
  Z"
/>
<path fill="#ffffff" d="
  M 495.65 81.86
  C 496.53 90.83 505.25 90.37 511.73 88.61
  Q 512.57 88.38 512.76 89.23
  L 513.45 92.23
  Q 513.60 92.90 512.95 93.12
  C 504.91 95.79 493.47 95.61 490.25 85.74
  C 486.68 74.83 494.04 61.02 507.00 65.06
  C 513.65 67.13 515.58 74.15 515.08 80.56
  A 0.65 0.64 1.9 0 1 514.43 81.16
  L 496.26 81.19
  Q 495.59 81.19 495.65 81.86
  Z
  M 496.28 76.57
  L 508.64 76.45
  A 0.39 0.39 0.0 0 0 509.03 76.05
  L 509.02 75.83
  A 6.95 6.49 89.4 0 0 502.46 68.95
  L 502.30 68.95
  A 6.95 6.49 89.4 0 0 495.88 75.97
  L 495.89 76.19
  A 0.39 0.39 0.0 0 0 496.28 76.57
  Z"
/>
<path fill="#ffffff" d="
  M 552.7983 94.8220
  A 15.32 14.36 95.4 0 1 539.9437 78.2186
  A 15.32 14.36 95.4 0 1 555.6817 64.3180
  A 15.32 14.36 95.4 0 1 568.5363 80.9214
  A 15.32 14.36 95.4 0 1 552.7983 94.8220
  Z
  M 554.0689 89.9896
  A 10.44 7.60 90.5 0 0 561.7597 79.6163
  A 10.44 7.60 90.5 0 0 554.2511 69.1104
  A 10.44 7.60 90.5 0 0 546.5603 79.4837
  A 10.44 7.60 90.5 0 0 554.0689 89.9896
  Z"
/>
<path fill="#ffffff" d="
  M 583.51 68.24
  Q 583.46 69.78 584.44 68.59
  Q 588.40 63.73 594.52 64.57
  C 600.11 65.33 602.95 70.28 603.09 75.64
  Q 603.31 83.96 603.16 93.46
  Q 603.15 94.07 602.54 94.08
  L 597.28 94.13
  A 0.58 0.58 0.0 0 1 596.70 93.54
  Q 596.79 85.89 596.70 77.79
  C 596.68 75.84 596.56 73.49 595.30 71.90
  C 592.34 68.14 587.00 69.50 585.13 73.56
  Q 584.44 75.07 584.44 79.03
  Q 584.43 86.25 584.47 93.39
  Q 584.48 94.09 583.78 94.10
  L 578.55 94.20
  A 0.66 0.66 0.0 0 1 577.88 93.55
  L 577.76 65.74
  Q 577.76 64.98 578.51 64.99
  L 582.70 65.04
  Q 583.61 65.05 583.58 65.97
  L 583.51 68.24
  Z"
/>
<path fill="#ffffff" d="
  M 693.20 81.99
  C 694.51 90.52 702.63 90.74 709.16 88.55
  A 0.89 0.88 74.3 0 1 710.30 89.20
  L 710.91 91.87
  A 1.15 1.15 0.0 0 1 710.13 93.23
  C 701.59 95.91 690.51 95.26 687.69 85.29
  C 685.14 76.28 688.95 65.47 699.28 64.48
  C 709.03 63.55 713.27 71.61 712.64 80.49
  Q 712.59 81.17 711.91 81.17
  L 693.90 81.17
  Q 693.07 81.17 693.20 81.99
  Z
  M 693.74 76.54
  L 706.30 76.48
  A 0.26 0.26 0.0 0 0 706.56 76.22
  L 706.56 76.04
  A 7.14 6.45 89.7 0 0 700.07 68.93
  L 699.89 68.93
  A 7.14 6.45 89.7 0 0 693.48 76.10
  L 693.48 76.28
  A 0.26 0.26 0.0 0 0 693.74 76.54
  Z"
/>
<path fill="#ffffff" d="
  M 321.00 65.07
  L 327.21 65.00
  A 0.32 0.32 0.0 0 1 327.51 65.43
  L 316.73 93.87
  A 0.32 0.32 0.0 0 1 316.44 94.08
  L 310.62 94.22
  A 0.32 0.32 0.0 0 1 310.31 94.01
  L 299.87 65.56
  A 0.32 0.32 0.0 0 1 300.17 65.13
  L 306.51 65.01
  A 0.32 0.32 0.0 0 1 306.82 65.24
  L 313.45 86.55
  A 0.32 0.32 0.0 0 0 314.06 86.55
  L 320.70 65.29
  A 0.32 0.32 0.0 0 1 321.00 65.07
  Z"
/>
<rect fill="#ffffff" x="367.65" y="65.06" width="6.54" height="29.10" rx="0.47"/>
<path fill="#000000" d="
  M 496.28 76.57
  A 0.39 0.39 0.0 0 1 495.89 76.19
  L 495.88 75.97
  A 6.95 6.49 89.4 0 1 502.30 68.95
  L 502.46 68.95
  A 6.95 6.49 89.4 0 1 509.02 75.83
  L 509.03 76.05
  A 0.39 0.39 0.0 0 1 508.64 76.45
  L 496.28 76.57
  Z"
/>
<path fill="#000000" d="
  M 693.74 76.54
  A 0.26 0.26 0.0 0 1 693.48 76.28
  L 693.48 76.10
  A 7.14 6.45 89.7 0 1 699.89 68.93
  L 700.07 68.93
  A 7.14 6.45 89.7 0 1 706.56 76.04
  L 706.56 76.22
  A 0.26 0.26 0.0 0 1 706.30 76.48
  L 693.74 76.54
  Z"
/>
<ellipse fill="#000000" cx="0.00" cy="0.00" transform="translate(554.16,79.55) rotate(90.5)" rx="10.44" ry="7.60"/>
<rect fill="#000000" x="-7.12" y="-9.78" transform="translate(449.78,79.56) rotate(0.6)" width="14.24" height="19.56" rx="6.61"/>
<path fill="#000000" d="
  M 339.75 87.32
  C 337.75 80.98 344.74 79.68 349.34 79.62
  Q 350.00 79.62 350.05 80.26
  C 350.50 85.13 349.57 89.90 343.57 89.94
  Q 340.58 89.95 339.75 87.32
  Z"
/>
<path fill="#000000" d="
  M 418.45 84.51
  C 418.17 90.22 408.40 92.75 407.86 85.81
  C 407.45 80.53 413.91 79.61 417.97 79.67
  A 0.57 0.57 0.0 0 1 418.53 80.23
  Q 418.56 82.25 418.45 84.51
  Z"
/>
<path fill="#ffffff" d="
  M 197.22 103.41
  C 182.82 113.37 176.95 129.13 183.05 145.84
  C 186.02 153.99 193.09 160.96 201.03 164.56
  A 0.94 0.93 21.5 0 1 201.53 165.70
  Q 197.31 178.37 187.52 191.93
  C 181.70 199.98 174.87 207.32 164.31 206.36
  C 158.59 205.84 153.35 202.63 147.76 201.16
  C 141.60 199.54 134.36 200.34 128.26 202.93
  C 119.61 206.61 111.94 209.20 103.81 202.51
  Q 99.58 199.03 96.21 194.81
  Q 76.59 170.29 74.06 139.77
  C 72.22 117.50 82.33 93.96 106.25 88.70
  C 116.60 86.42 124.58 90.40 133.98 93.91
  Q 138.33 95.54 142.48 94.19
  C 149.62 91.87 157.23 87.77 165.19 87.58
  Q 185.24 87.11 197.34 102.59
  Q 197.71 103.07 197.22 103.41
  Z"
/>
<path fill="#ffffff" d="
  M 533.47 125.75
  Q 534.02 126.00 533.84 126.58
  L 530.93 136.10
  A 0.66 0.66 0.0 0 1 530.00 136.49
  Q 523.48 133.15 515.11 133.04
  C 499.25 132.84 495.36 148.62 509.85 155.18
  C 520.98 160.21 535.27 164.68 536.83 179.18
  C 539.87 207.50 504.87 211.61 486.71 201.79
  A 0.75 0.74 -68.3 0 1 486.35 200.94
  L 489.02 191.20
  Q 489.22 190.46 489.90 190.82
  Q 500.68 196.61 511.97 195.26
  C 517.63 194.59 522.91 191.14 523.68 185.15
  C 525.17 173.52 513.27 170.29 505.13 166.89
  C 493.38 161.98 484.64 152.16 488.65 138.57
  C 494.06 120.27 519.52 119.34 533.47 125.75
  Z"
/>
<path fill="#ffffff" d="
  M 303.45 181.25
  L 277.63 181.26
  A 0.53 0.53 0.0 0 0 277.13 181.64
  L 270.06 204.92
  A 0.53 0.53 0.0 0 1 269.56 205.30
  L 257.02 205.30
  A 0.53 0.53 0.0 0 1 256.51 204.61
  L 282.54 123.78
  A 0.53 0.53 0.0 0 1 283.04 123.41
  L 298.63 123.35
  A 0.53 0.53 0.0 0 1 299.14 123.72
  L 325.28 204.62
  A 0.53 0.53 0.0 0 1 324.77 205.31
  L 311.86 205.29
  A 0.53 0.53 0.0 0 1 311.35 204.92
  L 303.96 181.62
  A 0.53 0.53 0.0 0 0 303.45 181.25
  Z
  M 289.89 135.35
  C 287.41 147.28 283.40 158.83 279.78 170.48
  A 0.44 0.44 0.0 0 0 280.20 171.05
  L 300.73 171.09
  A 0.43 0.42 -8.5 0 0 301.14 170.54
  L 290.38 135.32
  A 0.26 0.25 -48.1 0 0 289.89 135.35
  Z"
/>
<path fill="#ffffff" d="
  M 553.14 156.80
  A 0.74 0.74 0.0 0 0 552.39 156.05
  L 545.67 156.06
  Q 544.54 156.06 544.55 154.92
  L 544.62 147.22
  Q 544.63 145.74 546.09 145.94
  Q 549.16 146.37 552.68 146.06
  Q 553.18 146.01 553.17 145.51
  L 553.07 136.01
  A 0.87 0.86 -8.9 0 1 553.69 135.17
  L 565.45 131.70
  Q 566.14 131.49 566.13 132.21
  L 566.09 145.58
  A 0.60 0.60 0.0 0 0 566.69 146.18
  L 580.08 146.13
  A 0.51 0.51 0.0 0 1 580.59 146.64
  L 580.57 155.51
  Q 580.56 156.08 579.99 156.08
  L 566.68 156.06
  A 0.61 0.60 90.0 0 0 566.08 156.67
  Q 566.13 169.51 566.05 182.45
  Q 566.02 187.35 566.91 190.45
  C 568.63 196.50 573.61 195.76 578.66 195.26
  Q 579.67 195.17 579.70 196.18
  L 579.92 204.11
  Q 579.94 205.10 578.99 205.35
  C 570.87 207.52 560.07 207.40 555.85 199.18
  Q 553.19 193.98 553.14 186.79
  Q 553.02 170.78 553.14 156.80
  Z"
/>
<path fill="#000000" d="
  M 279.78 170.48
  C 283.40 158.83 287.41 147.28 289.89 135.35
  A 0.26 0.25 -48.1 0 1 290.38 135.32
  L 301.14 170.54
  A 0.43 0.42 -8.5 0 1 300.73 171.09
  L 280.20 171.05
  A 0.44 0.44 0.0 0 1 279.78 170.48
  Z"
/>
<path fill="#ffffff" d="
  M 350.10 199.10
  A 0.20 0.20 0.0 0 0 349.91 199.30
  L 349.95 228.79
  Q 349.95 229.27 349.46 229.27
  L 337.18 229.27
  A 0.46 0.46 0.0 0 1 336.72 228.81
  Q 336.87 192.92 336.66 159.00
  Q 336.63 153.56 336.25 146.62
  A 0.47 0.47 0.0 0 1 336.73 146.12
  L 347.47 146.24
  A 0.52 0.52 0.0 0 1 347.98 146.72
  L 348.55 154.75
  Q 348.63 155.90 349.28 154.95
  Q 356.20 144.69 369.35 145.04
  C 381.18 145.36 389.54 154.22 392.06 165.30
  C 396.05 182.89 389.43 205.29 368.18 206.63
  C 361.69 207.04 354.55 204.99 350.77 199.43
  Q 350.53 199.07 350.10 199.10
  Z
  M 378.64 167.37
  C 373.81 149.51 351.09 152.84 350.00 170.62
  Q 349.62 176.81 350.09 182.63
  C 350.81 191.37 357.71 197.52 366.62 196.12
  C 379.51 194.11 381.29 177.14 378.64 167.37
  Z"
/>
<path fill="#ffffff" d="
  M 416.31 154.53
  Q 416.37 155.94 417.19 154.79
  Q 425.51 143.07 440.97 145.44
  C 452.72 147.24 459.67 158.79 460.86 170.32
  C 462.40 185.29 457.03 201.13 441.77 205.66
  C 433.74 208.05 424.06 206.56 418.65 199.50
  Q 417.91 198.53 417.91 199.75
  L 417.91 228.87
  A 0.38 0.37 -90.0 0 1 417.54 229.25
  L 405.53 229.28
  Q 404.78 229.28 404.78 228.53
  L 404.54 146.31
  Q 404.54 146.11 404.73 146.12
  L 415.34 146.25
  Q 415.92 146.26 415.95 146.84
  L 416.31 154.53
  Z
  M 437.84 195.15
  C 451.47 189.31 451.42 158.77 435.49 155.84
  C 426.49 154.18 419.31 160.29 418.09 169.00
  Q 417.45 173.52 418.04 183.50
  Q 418.29 187.74 421.94 191.94
  C 425.82 196.40 432.50 197.44 437.84 195.15
  Z"
/>
<path fill="#ffffff" d="
  M 588.05 180.69
  C 585.79 159.31 599.13 142.58 621.97 145.41
  Q 634.19 146.92 640.96 157.42
  C 647.23 167.15 647.13 182.49 641.56 192.50
  C 634.98 204.33 621.81 208.67 608.92 205.82
  C 596.92 203.16 589.33 192.71 588.05 180.69
  Z
  M 616.4612 196.9695
  A 21.31 15.54 90.4 0 0 632.1496 175.7685
  A 21.31 15.54 90.4 0 0 616.7588 154.3505
  A 21.31 15.54 90.4 0 0 601.0704 175.5515
  A 21.31 15.54 90.4 0 0 616.4612 196.9695
  Z"
/>
<path fill="#ffffff" d="
  M 668.43 155.68
  Q 668.25 158.77 669.59 155.98
  C 673.24 148.34 679.36 144.09 687.98 145.18
  A 0.37 0.36 3.6 0 1 688.30 145.54
  L 688.33 157.14
  A 0.53 0.52 3.4 0 1 687.74 157.66
  C 676.81 156.23 670.43 162.74 670.32 173.47
  Q 670.16 188.53 670.28 204.70
  Q 670.28 205.30 669.68 205.30
  L 657.81 205.28
  Q 657.11 205.28 657.12 204.58
  Q 657.39 170.64 656.81 146.58
  Q 656.80 146.13 657.24 146.14
  L 667.55 146.25
  Q 668.13 146.26 668.19 146.84
  Q 668.66 151.70 668.43 155.68
  Z"
/>
<path fill="#ffffff" d="
  M 708.17 178.97
  Q 707.12 178.97 707.22 180.02
  C 709.01 198.54 727.43 198.50 741.10 193.80
  Q 741.72 193.59 741.87 194.23
  L 743.63 202.05
  Q 743.79 202.76 743.11 203.02
  Q 734.36 206.36 724.10 206.37
  C 709.64 206.38 698.39 199.14 695.37 184.73
  C 691.73 167.37 699.87 146.34 720.18 145.03
  C 740.61 143.72 749.02 160.72 746.68 178.43
  A 0.66 0.65 3.5 0 1 746.03 179.00
  L 708.17 178.97
  Z
  M 707.96 169.62
  L 734.48 169.48
  A 0.25 0.25 0.0 0 0 734.73 169.23
  L 734.73 168.87
  A 14.95 13.50 89.7 0 0 721.15 153.99
  L 721.13 153.99
  A 14.95 13.50 89.7 0 0 707.71 169.01
  L 707.71 169.37
  A 0.25 0.25 0.0 0 0 707.96 169.62
  Z"
/>
<path fill="#000000" d="
  M 707.96 169.62
  A 0.25 0.25 0.0 0 1 707.71 169.37
  L 707.71 169.01
  A 14.95 13.50 89.7 0 1 721.13 153.99
  L 721.15 153.99
  A 14.95 13.50 89.7 0 1 734.73 168.87
  L 734.73 169.23
  A 0.25 0.25 0.0 0 1 734.48 169.48
  L 707.96 169.62
  Z"
/>
<ellipse fill="#000000" cx="0.00" cy="0.00" transform="translate(616.61,175.66) rotate(90.4)" rx="21.31" ry="15.54"/>
<path fill="#000000" d="
  M 350.00 170.62
  C 351.09 152.84 373.81 149.51 378.64 167.37
  C 381.29 177.14 379.51 194.11 366.62 196.12
  C 357.71 197.52 350.81 191.37 350.09 182.63
  Q 349.62 176.81 350.00 170.62
  Z"
/>
<path fill="#000000" d="
  M 435.49 155.84
  C 451.42 158.77 451.47 189.31 437.84 195.15
  C 432.50 197.44 425.82 196.40 421.94 191.94
  Q 418.29 187.74 418.04 183.50
  Q 417.45 173.52 418.09 169.00
  C 419.31 160.29 426.49 154.18 435.49 155.84
  Z"
/>
</svg>
