<?xml version="1.0" encoding="UTF-8" standalone="no"?>
<!DOCTYPE svg PUBLIC "-//W3C//DTD SVG 1.1//EN" "http://www.w3.org/Graphics/SVG/1.1/DTD/svg11.dtd">
<svg xmlns="http://www.w3.org/2000/svg" version="1.1" viewBox="0.00 0.00 920.00 282.00">
<g stroke-width="2.00" fill="none" stroke-linecap="butt">
<path stroke="#d6d6d6" vector-effect="non-scaling-stroke" d="
  M 897.85 5.58
  Q 892.91 3.57 890.00 3.23
  Q 885.70 2.72 881.40 2.86
  Q 877.17 3.00 873.09 3.09
  Q 866.62 3.22 860.86 3.35
  Q 854.63 3.49 848.66 3.31
  Q 840.82 3.06 833.50 3.72
  Q 832.09 3.84 830.90 3.32
  Q 830.44 3.12 829.95 3.14
  Q 803.39 4.07 798.25 3.71
  Q 784.12 2.71 770.01 3.92
  Q 766.95 4.18 761.42 3.38
  Q 759.96 3.17 758.52 3.24
  Q 757.04 3.31 755.58 3.16
  Q 753.53 2.95 751.38 3.12
  Q 742.52 3.85 733.76 3.78
  C 732.33 3.76 730.88 3.36 729.58 3.35
  Q 718.02 3.32 706.30 3.70
  Q 701.14 3.86 696.22 3.43
  Q 690.92 2.97 685.98 3.25
  Q 672.96 3.98 660.64 3.39
  Q 651.79 2.96 633.72 3.78
  C 631.07 3.90 628.51 3.44 625.90 3.28
  Q 622.92 3.09 620.11 3.21
  Q 613.77 3.47 607.30 3.36
  C 604.55 3.31 601.91 4.01 599.16 3.69
  Q 596.25 3.35 593.41 3.34
  Q 586.03 3.32 578.47 3.46
  C 575.90 3.50 573.42 3.15 570.84 3.33
  Q 568.06 3.52 565.16 3.43
  Q 551.08 2.98 537.00 3.56
  C 534.23 3.67 531.24 3.21 528.93 3.32
  Q 520.59 3.68 511.83 3.21
  C 508.31 3.02 504.90 3.55 501.49 3.59
  Q 484.35 3.77 466.25 3.42
  Q 465.13 3.40 464.00 3.39
  Q 435.57 3.23 405.81 3.40
  Q 398.53 3.44 391.69 3.28
  Q 384.96 3.12 377.18 3.52
  Q 369.89 3.90 358.79 3.29
  Q 354.83 3.07 350.44 3.25
  C 343.77 3.53 336.97 3.80 330.37 3.51
  Q 318.57 2.98 306.42 3.50
  Q 302.29 3.67 298.06 3.37
  C 291.64 2.92 285.03 3.70 278.73 3.76
  Q 271.93 3.83 265.12 3.79
  Q 263.13 3.77 261.09 3.33
  Q 258.62 2.79 256.57 2.89
  Q 251.71 3.14 246.45 3.55
  Q 238.50 4.18 222.61 3.22
  Q 220.25 3.08 217.33 3.44
  Q 214.68 3.76 212.15 3.68
  Q 205.99 3.47 199.92 3.70
  C 199.07 3.73 198.25 3.14 197.39 3.14
  Q 193.57 3.15 189.46 2.89
  C 188.10 2.80 186.91 3.31 185.52 3.08
  Q 184.26 2.87 182.94 3.10
  Q 180.08 3.59 176.83 3.56
  Q 173.82 3.54 170.66 3.73
  Q 167.52 3.93 164.43 3.62
  Q 157.80 2.96 151.16 3.42
  C 145.95 3.79 140.80 3.62 135.55 3.75
  C 133.53 3.80 131.55 3.24 129.48 3.26
  C 121.97 3.30 115.41 2.95 107.03 3.27
  Q 102.27 3.45 96.56 3.29
  Q 89.14 3.09 74.80 3.84
  Q 68.59 4.17 62.75 3.68
  Q 57.18 3.21 50.75 2.84
  Q 47.71 2.67 44.75 2.85
  C 39.75 3.16 34.29 2.51 29.77 3.24
  Q 14.31 5.74 5.53 19.13
  C 3.53 22.17 2.48 25.66 1.25 29.04
  C 0.73 30.46 0.58 32.00 0.54 33.50
  C 0.23 44.36 0.82 55.14 0.54 66.15
  C 0.36 73.28 0.76 80.45 0.71 87.76
  Q 0.51 118.84 0.93 148.47
  C 1.04 157.00 0.44 165.34 0.61 173.76
  Q 0.80 183.19 0.68 192.75
  C 0.53 204.93 0.89 217.04 0.56 229.26
  Q 0.34 237.41 0.71 243.70
  Q 1.62 258.93 14.54 268.86
  Q 20.83 273.70 30.73 275.35
  C 34.46 275.96 38.17 275.70 41.91 275.73
  C 49.96 275.80 60.06 274.67 65.89 275.26
  Q 72.28 275.90 77.64 275.66
  Q 87.63 275.21 96.17 275.22
  C 99.98 275.23 103.99 276.15 107.55 275.91
  Q 124.25 274.77 132.04 275.40
  Q 139.34 275.99 145.50 275.63
  Q 154.25 275.12 163.15 275.15
  C 167.91 275.16 172.33 276.04 177.20 275.68
  C 182.67 275.28 188.15 275.38 193.59 275.14
  Q 197.58 274.97 201.06 275.57
  Q 205.77 276.38 211.39 275.65
  C 216.73 274.96 221.77 275.20 227.15 275.04
  Q 231.49 274.91 235.57 275.52
  C 240.88 276.33 246.54 275.14 252.07 275.18
  Q 258.23 275.23 264.40 275.07
  C 268.03 274.98 271.27 276.19 274.97 275.91
  Q 290.09 274.75 300.43 275.53
  Q 306.11 275.95 310.57 275.66
  C 319.09 275.11 326.94 275.09 335.40 275.61
  C 343.10 276.09 350.38 275.39 357.88 275.12
  Q 359.57 275.06 370.07 275.60
  C 380.86 276.17 391.70 274.37 402.49 275.61
  Q 406.45 276.06 410.52 275.64
  C 416.17 275.05 421.85 275.29 427.56 275.08
  C 432.93 274.88 438.08 276.15 443.48 275.65
  C 450.35 275.01 457.00 275.24 463.83 275.12
  C 467.45 275.06 470.93 276.24 474.53 275.89
  Q 487.44 274.64 499.11 275.49
  Q 505.07 275.93 510.01 275.66
  Q 518.38 275.20 527.32 275.16
  C 531.66 275.15 537.27 275.99 542.00 275.76
  C 551.08 275.31 560.23 274.70 569.06 275.65
  Q 572.18 275.99 575.59 275.79
  Q 585.51 275.21 595.55 275.20
  C 600.00 275.19 604.04 276.15 608.59 275.81
  Q 616.94 275.18 626.50 275.13
  Q 630.06 275.12 633.50 275.52
  Q 637.45 275.98 640.53 275.75
  Q 650.82 274.97 661.92 275.01
  Q 665.23 275.02 668.34 275.61
  Q 672.28 276.37 676.49 275.75
  C 681.78 274.96 687.29 275.19 692.72 275.20
  Q 696.61 275.20 701.18 275.62
  Q 706.61 276.12 712.33 275.56
  C 716.90 275.10 721.54 275.29 726.09 275.26
  C 731.99 275.22 737.72 276.08 743.65 275.69
  C 751.74 275.16 760.17 275.03 768.48 275.63
  Q 772.72 275.94 777.11 275.69
  Q 785.63 275.20 794.43 275.10
  C 799.37 275.04 803.94 275.99 809.00 275.67
  Q 817.22 275.14 826.64 274.93
  C 831.25 274.83 835.57 276.39 840.20 275.95
  Q 852.39 274.80 864.03 275.28
  C 866.08 275.36 867.99 275.84 870.11 275.78
  Q 876.64 275.59 884.09 275.39
  Q 890.89 275.21 895.85 273.53
  Q 911.75 268.12 917.76 251.70
  Q 919.13 247.96 919.06 244.06
  C 918.87 232.89 919.35 221.47 918.68 210.19
  Q 918.28 203.45 918.61 195.92
  C 919.10 184.55 918.12 173.19 918.78 161.81
  C 919.24 153.88 918.71 145.50 918.79 138.16
  Q 918.90 127.91 918.90 117.00
  Q 918.89 110.67 918.90 104.75
  Q 918.91 94.58 918.85 85.07
  C 918.81 76.59 918.25 68.76 918.76 59.98
  Q 919.29 50.76 919.00 35.49
  Q 918.91 31.30 918.19 28.26
  Q 917.37 24.78 915.29 21.13
  Q 911.35 14.17 903.85 8.72
  Q 901.68 7.13 897.85 5.58"
/>
<path stroke="#575859" vector-effect="non-scaling-stroke" d="
  M 913.58 37.65
  A 29.20 29.20 0.0 0 0 884.38 8.45
  L 35.28 8.45
  A 29.20 29.20 0.0 0 0 6.08 37.65
  L 6.08 240.55
  A 29.20 29.20 0.0 0 0 35.28 269.75
  L 884.38 269.75
  A 29.20 29.20 0.0 0 0 913.58 240.55
  L 913.58 37.65"
/>
<path stroke="#818182" vector-effect="non-scaling-stroke" d="
  M 317.10 76.16
  C 313.77 91.09 292.24 89.49 288.68 75.84
  C 286.13 66.05 291.43 56.85 301.73 55.77
  Q 309.25 54.98 314.01 60.39
  A 0.46 0.46 0.0 0 0 314.69 60.41
  L 318.44 56.64
  Q 318.85 56.23 318.50 55.76
  Q 316.98 53.73 314.83 52.44
  C 299.58 43.36 281.05 53.76 281.30 71.58
  Q 281.42 80.59 287.49 86.76
  C 295.09 94.50 307.96 95.56 316.46 88.93
  Q 325.06 82.22 323.86 70.22
  Q 323.74 69.01 322.53 69.02
  L 303.21 69.05
  Q 302.47 69.05 302.46 69.79
  L 302.41 74.72
  Q 302.40 75.49 303.17 75.49
  L 316.54 75.47
  Q 317.25 75.47 317.10 76.16"
/>
<path stroke="#818182" vector-effect="non-scaling-stroke" d="
  M 487.3462 93.3189
  A 22.15 21.77 87.5 0 0 508.1293 70.2404
  A 22.15 21.77 87.5 0 0 485.4138 49.0611
  A 22.15 21.77 87.5 0 0 464.6307 72.1396
  A 22.15 21.77 87.5 0 0 487.3462 93.3189"
/>
<path stroke="#818182" vector-effect="non-scaling-stroke" d="
  M 337.05 85.79
  A 0.34 0.34 0.0 0 1 336.71 85.45
  L 336.76 74.63
  A 0.34 0.34 0.0 0 1 337.10 74.29
  L 353.18 74.31
  A 0.34 0.34 0.0 0 0 353.52 73.96
  L 353.44 68.37
  A 0.34 0.34 0.0 0 0 353.10 68.04
  L 337.13 68.00
  A 0.34 0.34 0.0 0 1 336.79 67.66
  L 336.69 56.99
  A 0.34 0.34 0.0 0 1 337.03 56.65
  L 354.86 56.63
  A 0.34 0.34 0.0 0 0 355.20 56.29
  L 355.27 50.42
  A 0.34 0.34 0.0 0 0 354.93 50.08
  L 330.39 50.11
  A 0.34 0.34 0.0 0 0 330.05 50.45
  L 330.06 91.94
  A 0.34 0.34 0.0 0 0 330.40 92.28
  L 354.92 92.26
  A 0.34 0.34 0.0 0 0 355.26 91.92
  L 355.23 86.13
  A 0.34 0.34 0.0 0 0 354.89 85.79
  L 337.05 85.79"
/>
<path stroke="#818182" vector-effect="non-scaling-stroke" d="
  M 370.10 56.65
  A 0.62 0.62 0.0 0 1 370.72 57.27
  L 370.72 91.64
  A 0.62 0.62 0.0 0 0 371.33 92.26
  L 376.66 92.31
  A 0.62 0.62 0.0 0 0 377.29 91.69
  L 377.32 57.26
  A 0.62 0.62 0.0 0 1 377.94 56.64
  L 388.13 56.70
  A 0.62 0.62 0.0 0 0 388.75 56.09
  L 388.84 50.78
  A 0.62 0.62 0.0 0 0 388.22 50.15
  L 359.87 50.04
  A 0.62 0.62 0.0 0 0 359.24 50.68
  L 359.37 56.03
  A 0.62 0.62 0.0 0 0 359.99 56.64
  L 370.10 56.65"
/>
<path stroke="#818182" vector-effect="non-scaling-stroke" d="
  M 414.44 50.64
  A 0.56 0.56 0.0 0 0 413.88 50.08
  L 408.08 50.08
  A 0.56 0.56 0.0 0 0 407.52 50.64
  L 407.52 91.76
  A 0.56 0.56 0.0 0 0 408.08 92.32
  L 413.88 92.32
  A 0.56 0.56 0.0 0 0 414.44 91.76
  L 414.44 50.64"
/>
<path stroke="#818182" vector-effect="non-scaling-stroke" d="
  M 419.51 56.18
  A 0.52 0.52 0.0 0 0 420.03 56.70
  L 430.40 56.60
  A 0.52 0.52 0.0 0 1 430.93 57.13
  L 430.89 91.88
  A 0.52 0.52 0.0 0 0 431.42 92.40
  L 437.10 92.24
  A 0.52 0.52 0.0 0 0 437.61 91.72
  L 437.65 57.14
  A 0.52 0.52 0.0 0 1 438.17 56.62
  L 448.54 56.67
  A 0.52 0.52 0.0 0 0 449.06 56.15
  L 449.06 50.66
  A 0.52 0.52 0.0 0 0 448.54 50.14
  L 420.00 50.06
  A 0.52 0.52 0.0 0 0 419.48 50.58
  L 419.51 56.18"
/>
<path stroke="#818182" vector-effect="non-scaling-stroke" d="
  M 540.44 50.05
  A 0.31 0.31 0.0 0 0 540.13 50.36
  L 540.39 79.19
  A 0.31 0.31 0.0 0 1 539.82 79.35
  L 521.74 50.33
  A 0.31 0.31 0.0 0 0 521.48 50.19
  L 514.34 50.07
  A 0.31 0.31 0.0 0 0 514.02 50.38
  L 514.03 92.03
  A 0.31 0.31 0.0 0 0 514.34 92.34
  L 520.32 92.24
  A 0.31 0.31 0.0 0 0 520.63 91.93
  L 520.49 61.51
  A 0.31 0.31 0.0 0 1 521.07 61.34
  L 540.18 92.12
  A 0.31 0.31 0.0 0 0 540.44 92.27
  L 546.61 92.25
  A 0.31 0.31 0.0 0 0 546.92 91.94
  L 546.92 50.39
  A 0.31 0.31 0.0 0 0 546.61 50.08
  L 540.44 50.05"
/>
<path stroke="#2e677e" vector-effect="non-scaling-stroke" d="
  M 70.74 55.44
  Q 68.48 59.23 68.48 63.75
  Q 68.45 139.63 68.47 215.50
  Q 68.47 220.04 71.74 223.89"
/>
<path stroke="#75212b" vector-effect="non-scaling-stroke" d="
  M 71.74 223.89
  C 75.56 227.71 81.41 226.84 85.51 224.51
  Q 135.11 196.29 184.78 168.21"
/>
<path stroke="#7f6d04" vector-effect="non-scaling-stroke" d="
  M 184.78 168.21
  C 187.88 166.54 190.75 164.58 193.86 162.86
  Q 206.30 155.95 218.51 148.98
  Q 221.74 147.14 223.21 145.20
  C 225.50 142.20 226.47 137.37 223.90 134.15
  Q 221.70 131.39 218.34 129.47
  Q 201.77 119.97 185.28 110.57"
/>
<path stroke="#3a6238" vector-effect="non-scaling-stroke" d="
  M 185.28 110.57
  Q 135.30 82.12 85.25 54.04
  Q 81.33 51.84 78.77 51.69
  Q 74.22 51.42 70.74 55.44"
/>
<path stroke="#b7cc36" vector-effect="non-scaling-stroke" d="
  M 185.28 110.57
  L 156.64 139.17"
/>
<path stroke="#ac805e" vector-effect="non-scaling-stroke" d="
  M 156.64 139.17
  Q 156.35 139.12 156.10 139.35"
/>
<path stroke="#65c6b0" vector-effect="non-scaling-stroke" d="
  M 156.10 139.35
  Q 155.74 138.63 154.68 137.59
  Q 121.21 104.71 74.75 57.50
  Q 73.41 56.13 70.74 55.44"
/>
<path stroke="#f28a2a" vector-effect="non-scaling-stroke" d="
  M 184.78 168.21
  C 184.39 167.54 184.13 166.86 183.60 166.34
  Q 172.50 155.50 161.86 144.20
  C 160.42 142.66 158.22 141.09 156.64 139.17"
/>
<path stroke="#a084a4" vector-effect="non-scaling-stroke" d="
  M 156.10 139.35
  L 71.74 223.89"
/>
<path stroke="#818182" vector-effect="non-scaling-stroke" d="
  M 354.62 172.59
  Q 353.42 183.38 346.07 189.52
  C 336.09 197.84 320.82 198.80 309.86 192.55
  C 295.78 184.51 289.91 168.11 295.11 152.95
  C 298.41 143.32 306.78 135.24 316.59 132.64
  Q 333.72 128.10 347.28 139.80
  A 0.50 0.48 -46.7 0 0 347.95 139.77
  L 355.77 131.91
  A 0.69 0.69 0.0 0 0 355.74 130.92
  C 337.25 113.95 310.11 115.54 292.66 132.90
  C 275.46 150.01 275.64 178.92 293.16 195.60
  Q 309.36 211.00 331.61 208.65
  C 340.93 207.66 348.90 203.82 355.76 197.36
  C 365.81 187.92 368.54 174.01 366.93 160.46
  A 0.65 0.63 86.0 0 0 366.29 159.89
  L 325.66 159.93
  A 0.41 0.40 90.0 0 0 325.26 160.34
  L 325.25 171.50
  A 0.76 0.75 90.0 0 0 326.00 172.26
  L 354.27 172.20
  A 0.35 0.34 -87.1 0 1 354.62 172.59"
/>
<path stroke="#818182" vector-effect="non-scaling-stroke" d="
  M 676.22 174.95
  Q 684.81 175.10 693.03 174.95
  Q 707.29 174.70 715.62 164.40
  C 723.99 154.05 722.63 138.75 712.92 129.74
  Q 704.49 121.92 691.34 121.98
  Q 676.32 122.05 663.38 121.96
  Q 662.59 121.95 662.59 122.74
  L 662.62 206.55
  A 0.68 0.67 -0.0 0 0 663.30 207.22
  L 674.98 207.23
  Q 675.45 207.23 675.45 206.77
  L 675.43 175.73
  Q 675.43 174.94 676.22 174.95"
/>
<path stroke="#818182" vector-effect="non-scaling-stroke" d="
  M 575.52 122.65
  A 0.65 0.65 0.0 0 0 574.87 122.00
  L 563.23 122.00
  A 0.65 0.65 0.0 0 0 562.58 122.65
  L 562.58 206.59
  A 0.65 0.65 0.0 0 0 563.23 207.24
  L 574.87 207.24
  A 0.65 0.65 0.0 0 0 575.52 206.59
  L 575.52 122.65"
/>
<path stroke="#818182" vector-effect="non-scaling-stroke" d="
  M 740.75 122.53
  A 0.53 0.53 0.0 0 0 740.22 122.00
  L 728.56 122.00
  A 0.53 0.53 0.0 0 0 728.03 122.53
  L 728.03 206.69
  A 0.53 0.53 0.0 0 0 728.56 207.22
  L 740.22 207.22
  A 0.53 0.53 0.0 0 0 740.75 206.69
  L 740.75 122.53"
/>
<path stroke="#818182" vector-effect="non-scaling-stroke" d="
  M 785.53 201.76
  L 785.24 205.99
  A 1.12 1.12 0.0 0 0 786.36 207.18
  L 797.20 207.21
  Q 797.79 207.21 797.78 206.62
  Q 797.57 194.00 797.79 181.43
  Q 797.99 170.16 796.44 165.99
  C 789.34 146.98 759.49 145.53 749.55 162.91
  A 0.97 0.97 0.0 0 0 750.02 164.28
  L 759.28 168.21
  Q 760.44 168.70 761.14 167.66
  C 765.36 161.42 773.94 161.15 779.99 164.48
  Q 784.76 167.10 785.53 173.11
  A 0.55 0.55 0.0 0 1 784.77 173.69
  Q 769.77 167.28 756.13 175.27
  C 751.28 178.11 747.75 183.87 747.73 189.65
  C 747.67 203.64 761.32 210.98 774.11 208.23
  Q 780.31 206.90 784.40 201.35
  Q 785.68 199.62 785.53 201.76"
/>
<path stroke="#818182" vector-effect="non-scaling-stroke" d="
  M 429.89 179.97
  A 29.11 29.11 0.0 0 0 400.78 150.86
  A 29.11 29.11 0.0 0 0 371.67 179.97
  A 29.11 29.11 0.0 0 0 400.78 209.08
  A 29.11 29.11 0.0 0 0 429.89 179.97"
/>
<path stroke="#818182" vector-effect="non-scaling-stroke" d="
  M 493.27 179.97
  A 29.12 29.12 0.0 0 0 464.15 150.85
  A 29.12 29.12 0.0 0 0 435.03 179.97
  A 29.12 29.12 0.0 0 0 464.15 209.09
  A 29.12 29.12 0.0 0 0 493.27 179.97"
/>
<path stroke="#818182" vector-effect="non-scaling-stroke" d="
  M 541.95 202.82
  Q 541.85 206.25 541.58 209.73
  C 541.03 216.75 536.75 222.05 529.52 223.13
  C 521.31 224.37 515.85 220.73 512.12 213.60
  Q 511.85 213.08 511.31 213.30
  L 501.96 217.20
  Q 500.49 217.81 501.27 219.19
  Q 508.40 231.83 520.20 234.16
  C 536.14 237.30 549.80 229.95 553.20 213.32
  Q 554.11 208.89 554.10 203.06
  Q 554.05 178.57 554.09 153.11
  Q 554.09 152.75 553.73 152.75
  L 542.51 152.76
  Q 541.80 152.76 541.75 153.47
  Q 541.67 154.77 541.98 156.05
  Q 542.52 158.30 540.82 156.73
  C 530.58 147.24 515.05 150.36 506.17 160.24
  C 492.22 175.76 497.97 201.18 518.52 207.71
  Q 531.70 211.90 541.49 202.62
  A 0.27 0.27 0.0 0 1 541.95 202.82"
/>
<path stroke="#818182" vector-effect="non-scaling-stroke" d="
  M 597.01 188.45
  L 634.21 173.07
  Q 634.79 172.83 634.60 172.23
  C 631.00 160.77 622.85 151.97 610.57 151.12
  C 587.91 149.55 575.00 174.24 584.67 193.50
  C 590.39 204.89 602.57 210.45 615.03 208.58
  Q 626.16 206.90 634.02 196.69
  A 0.73 0.72 -54.7 0 0 633.85 195.65
  L 624.85 189.68
  Q 624.41 189.39 624.12 189.83
  C 617.47 199.84 602.93 200.47 596.66 189.49
  Q 596.24 188.77 597.01 188.45"
/>
<path stroke="#818182" vector-effect="non-scaling-stroke" d="
  M 827.61 189.12
  A 0.27 0.27 0.0 0 1 827.16 189.03
  L 812.53 153.26
  A 0.85 0.84 78.4 0 0 811.75 152.74
  L 799.17 152.72
  Q 798.51 152.72 798.78 153.32
  L 820.82 203.39
  A 2.07 2.06 -44.8 0 1 820.81 205.05
  L 808.57 232.28
  Q 808.22 233.06 809.08 233.06
  L 820.81 232.99
  A 1.20 1.19 11.5 0 0 821.89 232.28
  L 856.36 153.11
  A 0.29 0.29 0.0 0 0 856.09 152.70
  L 842.78 152.73
  Q 842.26 152.73 842.07 153.21
  Q 835.84 168.97 829.03 186.75
  Q 828.49 188.17 827.61 189.12"
/>
<path stroke="#818182" vector-effect="non-scaling-stroke" d="
  M 486.2738 86.7794
  A 15.61 15.02 90.5 0 0 501.4294 71.3011
  A 15.61 15.02 90.5 0 0 486.5462 55.5606
  A 15.61 15.02 90.5 0 0 471.3906 71.0389
  A 15.61 15.02 90.5 0 0 486.2738 86.7794"
/>
<path stroke="#818182" vector-effect="non-scaling-stroke" d="
  M 675.35 134.61
  L 675.49 162.55
  A 0.61 0.61 0.0 0 0 676.11 163.15
  L 693.26 163.06
  A 15.10 14.56 -0.3 0 0 708.28 148.42
  L 708.28 148.38
  A 15.10 14.56 -0.3 0 0 693.10 133.90
  L 675.95 133.99
  A 0.61 0.61 0.0 0 0 675.35 134.61"
/>
<path stroke="#818182" vector-effect="non-scaling-stroke" d="
  M 784.42 187.70
  Q 784.88 186.55 785.26 185.34
  A 1.47 1.47 0.0 0 0 784.47 183.56
  Q 776.00 179.68 767.01 182.32
  C 763.41 183.38 760.59 186.26 760.49 190.21
  C 760.44 192.05 761.23 193.92 762.77 195.00
  C 770.70 200.56 781.05 196.21 784.42 187.70"
/>
<path stroke="#818182" vector-effect="non-scaling-stroke" d="
  M 400.5558 197.4887
  A 17.53 16.31 90.7 0 0 417.0788 180.1593
  A 17.53 16.31 90.7 0 0 400.9842 162.4313
  A 17.53 16.31 90.7 0 0 384.4612 179.7607
  A 17.53 16.31 90.7 0 0 400.5558 197.4887"
/>
<path stroke="#818182" vector-effect="non-scaling-stroke" d="
  M 464.2119 197.5198
  A 17.55 16.32 89.7 0 0 480.4398 179.8845
  A 17.55 16.32 89.7 0 0 464.0281 162.4202
  A 17.55 16.32 89.7 0 0 447.8002 180.0555
  A 17.55 16.32 89.7 0 0 464.2119 197.5198"
/>
<path stroke="#818182" vector-effect="non-scaling-stroke" d="
  M 526.8968 197.5393
  A 17.55 15.75 90.5 0 0 542.7994 180.1274
  A 17.55 15.75 90.5 0 0 527.2032 162.4407
  A 17.55 15.75 90.5 0 0 511.3006 179.8526
  A 17.55 15.75 90.5 0 0 526.8968 197.5393"
/>
<path stroke="#818182" vector-effect="non-scaling-stroke" d="
  M 594.99 178.64
  L 619.38 168.59
  A 0.71 0.71 0.0 0 0 619.69 167.52
  C 614.56 160.32 605.15 160.92 599.17 166.59
  Q 594.44 171.08 594.10 178.02
  Q 594.05 179.03 594.99 178.64"
/>
</g>
<path fill="#ffffff" d="
  M 0.00 0.00
  L 920.00 0.00
  L 920.00 282.00
  L 0.00 282.00
  L 0.00 0.00
  Z
  M 897.85 5.58
  Q 892.91 3.57 890.00 3.23
  Q 885.70 2.72 881.40 2.86
  Q 877.17 3.00 873.09 3.09
  Q 866.62 3.22 860.86 3.35
  Q 854.63 3.49 848.66 3.31
  Q 840.82 3.06 833.50 3.72
  Q 832.09 3.84 830.90 3.32
  Q 830.44 3.12 829.95 3.14
  Q 803.39 4.07 798.25 3.71
  Q 784.12 2.71 770.01 3.92
  Q 766.95 4.18 761.42 3.38
  Q 759.96 3.17 758.52 3.24
  Q 757.04 3.31 755.58 3.16
  Q 753.53 2.95 751.38 3.12
  Q 742.52 3.85 733.76 3.78
  C 732.33 3.76 730.88 3.36 729.58 3.35
  Q 718.02 3.32 706.30 3.70
  Q 701.14 3.86 696.22 3.43
  Q 690.92 2.97 685.98 3.25
  Q 672.96 3.98 660.64 3.39
  Q 651.79 2.96 633.72 3.78
  C 631.07 3.90 628.51 3.44 625.90 3.28
  Q 622.92 3.09 620.11 3.21
  Q 613.77 3.47 607.30 3.36
  C 604.55 3.31 601.91 4.01 599.16 3.69
  Q 596.25 3.35 593.41 3.34
  Q 586.03 3.32 578.47 3.46
  C 575.90 3.50 573.42 3.15 570.84 3.33
  Q 568.06 3.52 565.16 3.43
  Q 551.08 2.98 537.00 3.56
  C 534.23 3.67 531.24 3.21 528.93 3.32
  Q 520.59 3.68 511.83 3.21
  C 508.31 3.02 504.90 3.55 501.49 3.59
  Q 484.35 3.77 466.25 3.42
  Q 465.13 3.40 464.00 3.39
  Q 435.57 3.23 405.81 3.40
  Q 398.53 3.44 391.69 3.28
  Q 384.96 3.12 377.18 3.52
  Q 369.89 3.90 358.79 3.29
  Q 354.83 3.07 350.44 3.25
  C 343.77 3.53 336.97 3.80 330.37 3.51
  Q 318.57 2.98 306.42 3.50
  Q 302.29 3.67 298.06 3.37
  C 291.64 2.92 285.03 3.70 278.73 3.76
  Q 271.93 3.83 265.12 3.79
  Q 263.13 3.77 261.09 3.33
  Q 258.62 2.79 256.57 2.89
  Q 251.71 3.14 246.45 3.55
  Q 238.50 4.18 222.61 3.22
  Q 220.25 3.08 217.33 3.44
  Q 214.68 3.76 212.15 3.68
  Q 205.99 3.47 199.92 3.70
  C 199.07 3.73 198.25 3.14 197.39 3.14
  Q 193.57 3.15 189.46 2.89
  C 188.10 2.80 186.91 3.31 185.52 3.08
  Q 184.26 2.87 182.94 3.10
  Q 180.08 3.59 176.83 3.56
  Q 173.82 3.54 170.66 3.73
  Q 167.52 3.93 164.43 3.62
  Q 157.80 2.96 151.16 3.42
  C 145.95 3.79 140.80 3.62 135.55 3.75
  C 133.53 3.80 131.55 3.24 129.48 3.26
  C 121.97 3.30 115.41 2.95 107.03 3.27
  Q 102.27 3.45 96.56 3.29
  Q 89.14 3.09 74.80 3.84
  Q 68.59 4.17 62.75 3.68
  Q 57.18 3.21 50.75 2.84
  Q 47.71 2.67 44.75 2.85
  C 39.75 3.16 34.29 2.51 29.77 3.24
  Q 14.31 5.74 5.53 19.13
  C 3.53 22.17 2.48 25.66 1.25 29.04
  C 0.73 30.46 0.58 32.00 0.54 33.50
  C 0.23 44.36 0.82 55.14 0.54 66.15
  C 0.36 73.28 0.76 80.45 0.71 87.76
  Q 0.51 118.84 0.93 148.47
  C 1.04 157.00 0.44 165.34 0.61 173.76
  Q 0.80 183.19 0.68 192.75
  C 0.53 204.93 0.89 217.04 0.56 229.26
  Q 0.34 237.41 0.71 243.70
  Q 1.62 258.93 14.54 268.86
  Q 20.83 273.70 30.73 275.35
  C 34.46 275.96 38.17 275.70 41.91 275.73
  C 49.96 275.80 60.06 274.67 65.89 275.26
  Q 72.28 275.90 77.64 275.66
  Q 87.63 275.21 96.17 275.22
  C 99.98 275.23 103.99 276.15 107.55 275.91
  Q 124.25 274.77 132.04 275.40
  Q 139.34 275.99 145.50 275.63
  Q 154.25 275.12 163.15 275.15
  C 167.91 275.16 172.33 276.04 177.20 275.68
  C 182.67 275.28 188.15 275.38 193.59 275.14
  Q 197.58 274.97 201.06 275.57
  Q 205.77 276.38 211.39 275.65
  C 216.73 274.96 221.77 275.20 227.15 275.04
  Q 231.49 274.91 235.57 275.52
  C 240.88 276.33 246.54 275.14 252.07 275.18
  Q 258.23 275.23 264.40 275.07
  C 268.03 274.98 271.27 276.19 274.97 275.91
  Q 290.09 274.75 300.43 275.53
  Q 306.11 275.95 310.57 275.66
  C 319.09 275.11 326.94 275.09 335.40 275.61
  C 343.10 276.09 350.38 275.39 357.88 275.12
  Q 359.57 275.06 370.07 275.60
  C 380.86 276.17 391.70 274.37 402.49 275.61
  Q 406.45 276.06 410.52 275.64
  C 416.17 275.05 421.85 275.29 427.56 275.08
  C 432.93 274.88 438.08 276.15 443.48 275.65
  C 450.35 275.01 457.00 275.24 463.83 275.12
  C 467.45 275.06 470.93 276.24 474.53 275.89
  Q 487.44 274.64 499.11 275.49
  Q 505.07 275.93 510.01 275.66
  Q 518.38 275.20 527.32 275.16
  C 531.66 275.15 537.27 275.99 542.00 275.76
  C 551.08 275.31 560.23 274.70 569.06 275.65
  Q 572.18 275.99 575.59 275.79
  Q 585.51 275.21 595.55 275.20
  C 600.00 275.19 604.04 276.15 608.59 275.81
  Q 616.94 275.18 626.50 275.13
  Q 630.06 275.12 633.50 275.52
  Q 637.45 275.98 640.53 275.75
  Q 650.82 274.97 661.92 275.01
  Q 665.23 275.02 668.34 275.61
  Q 672.28 276.37 676.49 275.75
  C 681.78 274.96 687.29 275.19 692.72 275.20
  Q 696.61 275.20 701.18 275.62
  Q 706.61 276.12 712.33 275.56
  C 716.90 275.10 721.54 275.29 726.09 275.26
  C 731.99 275.22 737.72 276.08 743.65 275.69
  C 751.74 275.16 760.17 275.03 768.48 275.63
  Q 772.72 275.94 777.11 275.69
  Q 785.63 275.20 794.43 275.10
  C 799.37 275.04 803.94 275.99 809.00 275.67
  Q 817.22 275.14 826.64 274.93
  C 831.25 274.83 835.57 276.39 840.20 275.95
  Q 852.39 274.80 864.03 275.28
  C 866.08 275.36 867.99 275.84 870.11 275.78
  Q 876.64 275.59 884.09 275.39
  Q 890.89 275.21 895.85 273.53
  Q 911.75 268.12 917.76 251.70
  Q 919.13 247.96 919.06 244.06
  C 918.87 232.89 919.35 221.47 918.68 210.19
  Q 918.28 203.45 918.61 195.92
  C 919.10 184.55 918.12 173.19 918.78 161.81
  C 919.24 153.88 918.71 145.50 918.79 138.16
  Q 918.90 127.91 918.90 117.00
  Q 918.89 110.67 918.90 104.75
  Q 918.91 94.58 918.85 85.07
  C 918.81 76.59 918.25 68.76 918.76 59.98
  Q 919.29 50.76 919.00 35.49
  Q 918.91 31.30 918.19 28.26
  Q 917.37 24.78 915.29 21.13
  Q 911.35 14.17 903.85 8.72
  Q 901.68 7.13 897.85 5.58
  Z"
/>
<path fill="#acadac" d="
  M 897.85 5.58
  Q 901.68 7.13 903.85 8.72
  Q 911.35 14.17 915.29 21.13
  Q 917.37 24.78 918.19 28.26
  Q 918.91 31.30 919.00 35.49
  Q 919.29 50.76 918.76 59.98
  C 918.25 68.76 918.81 76.59 918.85 85.07
  Q 918.91 94.58 918.90 104.75
  Q 918.89 110.67 918.90 117.00
  Q 918.90 127.91 918.79 138.16
  C 918.71 145.50 919.24 153.88 918.78 161.81
  C 918.12 173.19 919.10 184.55 918.61 195.92
  Q 918.28 203.45 918.68 210.19
  C 919.35 221.47 918.87 232.89 919.06 244.06
  Q 919.13 247.96 917.76 251.70
  Q 911.75 268.12 895.85 273.53
  Q 890.89 275.21 884.09 275.39
  Q 876.64 275.59 870.11 275.78
  C 867.99 275.84 866.08 275.36 864.03 275.28
  Q 852.39 274.80 840.20 275.95
  C 835.57 276.39 831.25 274.83 826.64 274.93
  Q 817.22 275.14 809.00 275.67
  C 803.94 275.99 799.37 275.04 794.43 275.10
  Q 785.63 275.20 777.11 275.69
  Q 772.72 275.94 768.48 275.63
  C 760.17 275.03 751.74 275.16 743.65 275.69
  C 737.72 276.08 731.99 275.22 726.09 275.26
  C 721.54 275.29 716.90 275.10 712.33 275.56
  Q 706.61 276.12 701.18 275.62
  Q 696.61 275.20 692.72 275.20
  C 687.29 275.19 681.78 274.96 676.49 275.75
  Q 672.28 276.37 668.34 275.61
  Q 665.23 275.02 661.92 275.01
  Q 650.82 274.97 640.53 275.75
  Q 637.45 275.98 633.50 275.52
  Q 630.06 275.12 626.50 275.13
  Q 616.94 275.18 608.59 275.81
  C 604.04 276.15 600.00 275.19 595.55 275.20
  Q 585.51 275.21 575.59 275.79
  Q 572.18 275.99 569.06 275.65
  C 560.23 274.70 551.08 275.31 542.00 275.76
  C 537.27 275.99 531.66 275.15 527.32 275.16
  Q 518.38 275.20 510.01 275.66
  Q 505.07 275.93 499.11 275.49
  Q 487.44 274.64 474.53 275.89
  C 470.93 276.24 467.45 275.06 463.83 275.12
  C 457.00 275.24 450.35 275.01 443.48 275.65
  C 438.08 276.15 432.93 274.88 427.56 275.08
  C 421.85 275.29 416.17 275.05 410.52 275.64
  Q 406.45 276.06 402.49 275.61
  C 391.70 274.37 380.86 276.17 370.07 275.60
  Q 359.57 275.06 357.88 275.12
  C 350.38 275.39 343.10 276.09 335.40 275.61
  C 326.94 275.09 319.09 275.11 310.57 275.66
  Q 306.11 275.95 300.43 275.53
  Q 290.09 274.75 274.97 275.91
  C 271.27 276.19 268.03 274.98 264.40 275.07
  Q 258.23 275.23 252.07 275.18
  C 246.54 275.14 240.88 276.33 235.57 275.52
  Q 231.49 274.91 227.15 275.04
  C 221.77 275.20 216.73 274.96 211.39 275.65
  Q 205.77 276.38 201.06 275.57
  Q 197.58 274.97 193.59 275.14
  C 188.15 275.38 182.67 275.28 177.20 275.68
  C 172.33 276.04 167.91 275.16 163.15 275.15
  Q 154.25 275.12 145.50 275.63
  Q 139.34 275.99 132.04 275.40
  Q 124.25 274.77 107.55 275.91
  C 103.99 276.15 99.98 275.23 96.17 275.22
  Q 87.63 275.21 77.64 275.66
  Q 72.28 275.90 65.89 275.26
  C 60.06 274.67 49.96 275.80 41.91 275.73
  C 38.17 275.70 34.46 275.96 30.73 275.35
  Q 20.83 273.70 14.54 268.86
  Q 1.62 258.93 0.71 243.70
  Q 0.34 237.41 0.56 229.26
  C 0.89 217.04 0.53 204.93 0.68 192.75
  Q 0.80 183.19 0.61 173.76
  C 0.44 165.34 1.04 157.00 0.93 148.47
  Q 0.51 118.84 0.71 87.76
  C 0.76 80.45 0.36 73.28 0.54 66.15
  C 0.82 55.14 0.23 44.36 0.54 33.50
  C 0.58 32.00 0.73 30.46 1.25 29.04
  C 2.48 25.66 3.53 22.17 5.53 19.13
  Q 14.31 5.74 29.77 3.24
  C 34.29 2.51 39.75 3.16 44.75 2.85
  Q 47.71 2.67 50.75 2.84
  Q 57.18 3.21 62.75 3.68
  Q 68.59 4.17 74.80 3.84
  Q 89.14 3.09 96.56 3.29
  Q 102.27 3.45 107.03 3.27
  C 115.41 2.95 121.97 3.30 129.48 3.26
  C 131.55 3.24 133.53 3.80 135.55 3.75
  C 140.80 3.62 145.95 3.79 151.16 3.42
  Q 157.80 2.96 164.43 3.62
  Q 167.52 3.93 170.66 3.73
  Q 173.82 3.54 176.83 3.56
  Q 180.08 3.59 182.94 3.10
  Q 184.26 2.87 185.52 3.08
  C 186.91 3.31 188.10 2.80 189.46 2.89
  Q 193.57 3.15 197.39 3.14
  C 198.25 3.14 199.07 3.73 199.92 3.70
  Q 205.99 3.47 212.15 3.68
  Q 214.68 3.76 217.33 3.44
  Q 220.25 3.08 222.61 3.22
  Q 238.50 4.18 246.45 3.55
  Q 251.71 3.14 256.57 2.89
  Q 258.62 2.79 261.09 3.33
  Q 263.13 3.77 265.12 3.79
  Q 271.93 3.83 278.73 3.76
  C 285.03 3.70 291.64 2.92 298.06 3.37
  Q 302.29 3.67 306.42 3.50
  Q 318.57 2.98 330.37 3.51
  C 336.97 3.80 343.77 3.53 350.44 3.25
  Q 354.83 3.07 358.79 3.29
  Q 369.89 3.90 377.18 3.52
  Q 384.96 3.12 391.69 3.28
  Q 398.53 3.44 405.81 3.40
  Q 435.57 3.23 464.00 3.39
  Q 465.13 3.40 466.25 3.42
  Q 484.35 3.77 501.49 3.59
  C 504.90 3.55 508.31 3.02 511.83 3.21
  Q 520.59 3.68 528.93 3.32
  C 531.24 3.21 534.23 3.67 537.00 3.56
  Q 551.08 2.98 565.16 3.43
  Q 568.06 3.52 570.84 3.33
  C 573.42 3.15 575.90 3.50 578.47 3.46
  Q 586.03 3.32 593.41 3.34
  Q 596.25 3.35 599.16 3.69
  C 601.91 4.01 604.55 3.31 607.30 3.36
  Q 613.77 3.47 620.11 3.21
  Q 622.92 3.09 625.90 3.28
  C 628.51 3.44 631.07 3.90 633.72 3.78
  Q 651.79 2.96 660.64 3.39
  Q 672.96 3.98 685.98 3.25
  Q 690.92 2.97 696.22 3.43
  Q 701.14 3.86 706.30 3.70
  Q 718.02 3.32 729.58 3.35
  C 730.88 3.36 732.33 3.76 733.76 3.78
  Q 742.52 3.85 751.38 3.12
  Q 753.53 2.95 755.58 3.16
  Q 757.04 3.31 758.52 3.24
  Q 759.96 3.17 761.42 3.38
  Q 766.95 4.18 770.01 3.92
  Q 784.12 2.71 798.25 3.71
  Q 803.39 4.07 829.95 3.14
  Q 830.44 3.12 830.90 3.32
  Q 832.09 3.84 833.50 3.72
  Q 840.82 3.06 848.66 3.31
  Q 854.63 3.49 860.86 3.35
  Q 866.62 3.22 873.09 3.09
  Q 877.17 3.00 881.40 2.86
  Q 885.70 2.72 890.00 3.23
  Q 892.91 3.57 897.85 5.58
  Z
  M 913.58 37.65
  A 29.20 29.20 0.0 0 0 884.38 8.45
  L 35.28 8.45
  A 29.20 29.20 0.0 0 0 6.08 37.65
  L 6.08 240.55
  A 29.20 29.20 0.0 0 0 35.28 269.75
  L 884.38 269.75
  A 29.20 29.20 0.0 0 0 913.58 240.55
  L 913.58 37.65
  Z"
/>
<path fill="#020305" d="
  M 913.58 240.55
  A 29.20 29.20 0.0 0 1 884.38 269.75
  L 35.28 269.75
  A 29.20 29.20 0.0 0 1 6.08 240.55
  L 6.08 37.65
  A 29.20 29.20 0.0 0 1 35.28 8.45
  L 884.38 8.45
  A 29.20 29.20 0.0 0 1 913.58 37.65
  L 913.58 240.55
  Z
  M 317.10 76.16
  C 313.77 91.09 292.24 89.49 288.68 75.84
  C 286.13 66.05 291.43 56.85 301.73 55.77
  Q 309.25 54.98 314.01 60.39
  A 0.46 0.46 0.0 0 0 314.69 60.41
  L 318.44 56.64
  Q 318.85 56.23 318.50 55.76
  Q 316.98 53.73 314.83 52.44
  C 299.58 43.36 281.05 53.76 281.30 71.58
  Q 281.42 80.59 287.49 86.76
  C 295.09 94.50 307.96 95.56 316.46 88.93
  Q 325.06 82.22 323.86 70.22
  Q 323.74 69.01 322.53 69.02
  L 303.21 69.05
  Q 302.47 69.05 302.46 69.79
  L 302.41 74.72
  Q 302.40 75.49 303.17 75.49
  L 316.54 75.47
  Q 317.25 75.47 317.10 76.16
  Z
  M 487.3462 93.3189
  A 22.15 21.77 87.5 0 0 508.1293 70.2404
  A 22.15 21.77 87.5 0 0 485.4138 49.0611
  A 22.15 21.77 87.5 0 0 464.6307 72.1396
  A 22.15 21.77 87.5 0 0 487.3462 93.3189
  Z
  M 337.05 85.79
  A 0.34 0.34 0.0 0 1 336.71 85.45
  L 336.76 74.63
  A 0.34 0.34 0.0 0 1 337.10 74.29
  L 353.18 74.31
  A 0.34 0.34 0.0 0 0 353.52 73.96
  L 353.44 68.37
  A 0.34 0.34 0.0 0 0 353.10 68.04
  L 337.13 68.00
  A 0.34 0.34 0.0 0 1 336.79 67.66
  L 336.69 56.99
  A 0.34 0.34 0.0 0 1 337.03 56.65
  L 354.86 56.63
  A 0.34 0.34 0.0 0 0 355.20 56.29
  L 355.27 50.42
  A 0.34 0.34 0.0 0 0 354.93 50.08
  L 330.39 50.11
  A 0.34 0.34 0.0 0 0 330.05 50.45
  L 330.06 91.94
  A 0.34 0.34 0.0 0 0 330.40 92.28
  L 354.92 92.26
  A 0.34 0.34 0.0 0 0 355.26 91.92
  L 355.23 86.13
  A 0.34 0.34 0.0 0 0 354.89 85.79
  L 337.05 85.79
  Z
  M 370.10 56.65
  A 0.62 0.62 0.0 0 1 370.72 57.27
  L 370.72 91.64
  A 0.62 0.62 0.0 0 0 371.33 92.26
  L 376.66 92.31
  A 0.62 0.62 0.0 0 0 377.29 91.69
  L 377.32 57.26
  A 0.62 0.62 0.0 0 1 377.94 56.64
  L 388.13 56.70
  A 0.62 0.62 0.0 0 0 388.75 56.09
  L 388.84 50.78
  A 0.62 0.62 0.0 0 0 388.22 50.15
  L 359.87 50.04
  A 0.62 0.62 0.0 0 0 359.24 50.68
  L 359.37 56.03
  A 0.62 0.62 0.0 0 0 359.99 56.64
  L 370.10 56.65
  Z
  M 414.44 50.64
  A 0.56 0.56 0.0 0 0 413.88 50.08
  L 408.08 50.08
  A 0.56 0.56 0.0 0 0 407.52 50.64
  L 407.52 91.76
  A 0.56 0.56 0.0 0 0 408.08 92.32
  L 413.88 92.32
  A 0.56 0.56 0.0 0 0 414.44 91.76
  L 414.44 50.64
  Z
  M 419.51 56.18
  A 0.52 0.52 0.0 0 0 420.03 56.70
  L 430.40 56.60
  A 0.52 0.52 0.0 0 1 430.93 57.13
  L 430.89 91.88
  A 0.52 0.52 0.0 0 0 431.42 92.40
  L 437.10 92.24
  A 0.52 0.52 0.0 0 0 437.61 91.72
  L 437.65 57.14
  A 0.52 0.52 0.0 0 1 438.17 56.62
  L 448.54 56.67
  A 0.52 0.52 0.0 0 0 449.06 56.15
  L 449.06 50.66
  A 0.52 0.52 0.0 0 0 448.54 50.14
  L 420.00 50.06
  A 0.52 0.52 0.0 0 0 419.48 50.58
  L 419.51 56.18
  Z
  M 540.44 50.05
  A 0.31 0.31 0.0 0 0 540.13 50.36
  L 540.39 79.19
  A 0.31 0.31 0.0 0 1 539.82 79.35
  L 521.74 50.33
  A 0.31 0.31 0.0 0 0 521.48 50.19
  L 514.34 50.07
  A 0.31 0.31 0.0 0 0 514.02 50.38
  L 514.03 92.03
  A 0.31 0.31 0.0 0 0 514.34 92.34
  L 520.32 92.24
  A 0.31 0.31 0.0 0 0 520.63 91.93
  L 520.49 61.51
  A 0.31 0.31 0.0 0 1 521.07 61.34
  L 540.18 92.12
  A 0.31 0.31 0.0 0 0 540.44 92.27
  L 546.61 92.25
  A 0.31 0.31 0.0 0 0 546.92 91.94
  L 546.92 50.39
  A 0.31 0.31 0.0 0 0 546.61 50.08
  L 540.44 50.05
  Z
  M 70.74 55.44
  Q 68.48 59.23 68.48 63.75
  Q 68.45 139.63 68.47 215.50
  Q 68.47 220.04 71.74 223.89
  C 75.56 227.71 81.41 226.84 85.51 224.51
  Q 135.11 196.29 184.78 168.21
  C 187.88 166.54 190.75 164.58 193.86 162.86
  Q 206.30 155.95 218.51 148.98
  Q 221.74 147.14 223.21 145.20
  C 225.50 142.20 226.47 137.37 223.90 134.15
  Q 221.70 131.39 218.34 129.47
  Q 201.77 119.97 185.28 110.57
  Q 135.30 82.12 85.25 54.04
  Q 81.33 51.84 78.77 51.69
  Q 74.22 51.42 70.74 55.44
  Z
  M 354.62 172.59
  Q 353.42 183.38 346.07 189.52
  C 336.09 197.84 320.82 198.80 309.86 192.55
  C 295.78 184.51 289.91 168.11 295.11 152.95
  C 298.41 143.32 306.78 135.24 316.59 132.64
  Q 333.72 128.10 347.28 139.80
  A 0.50 0.48 -46.7 0 0 347.95 139.77
  L 355.77 131.91
  A 0.69 0.69 0.0 0 0 355.74 130.92
  C 337.25 113.95 310.11 115.54 292.66 132.90
  C 275.46 150.01 275.64 178.92 293.16 195.60
  Q 309.36 211.00 331.61 208.65
  C 340.93 207.66 348.90 203.82 355.76 197.36
  C 365.81 187.92 368.54 174.01 366.93 160.46
  A 0.65 0.63 86.0 0 0 366.29 159.89
  L 325.66 159.93
  A 0.41 0.40 90.0 0 0 325.26 160.34
  L 325.25 171.50
  A 0.76 0.75 90.0 0 0 326.00 172.26
  L 354.27 172.20
  A 0.35 0.34 -87.1 0 1 354.62 172.59
  Z
  M 676.22 174.95
  Q 684.81 175.10 693.03 174.95
  Q 707.29 174.70 715.62 164.40
  C 723.99 154.05 722.63 138.75 712.92 129.74
  Q 704.49 121.92 691.34 121.98
  Q 676.32 122.05 663.38 121.96
  Q 662.59 121.95 662.59 122.74
  L 662.62 206.55
  A 0.68 0.67 -0.0 0 0 663.30 207.22
  L 674.98 207.23
  Q 675.45 207.23 675.45 206.77
  L 675.43 175.73
  Q 675.43 174.94 676.22 174.95
  Z
  M 575.52 122.65
  A 0.65 0.65 0.0 0 0 574.87 122.00
  L 563.23 122.00
  A 0.65 0.65 0.0 0 0 562.58 122.65
  L 562.58 206.59
  A 0.65 0.65 0.0 0 0 563.23 207.24
  L 574.87 207.24
  A 0.65 0.65 0.0 0 0 575.52 206.59
  L 575.52 122.65
  Z
  M 740.75 122.53
  A 0.53 0.53 0.0 0 0 740.22 122.00
  L 728.56 122.00
  A 0.53 0.53 0.0 0 0 728.03 122.53
  L 728.03 206.69
  A 0.53 0.53 0.0 0 0 728.56 207.22
  L 740.22 207.22
  A 0.53 0.53 0.0 0 0 740.75 206.69
  L 740.75 122.53
  Z
  M 785.53 201.76
  L 785.24 205.99
  A 1.12 1.12 0.0 0 0 786.36 207.18
  L 797.20 207.21
  Q 797.79 207.21 797.78 206.62
  Q 797.57 194.00 797.79 181.43
  Q 797.99 170.16 796.44 165.99
  C 789.34 146.98 759.49 145.53 749.55 162.91
  A 0.97 0.97 0.0 0 0 750.02 164.28
  L 759.28 168.21
  Q 760.44 168.70 761.14 167.66
  C 765.36 161.42 773.94 161.15 779.99 164.48
  Q 784.76 167.10 785.53 173.11
  A 0.55 0.55 0.0 0 1 784.77 173.69
  Q 769.77 167.28 756.13 175.27
  C 751.28 178.11 747.75 183.87 747.73 189.65
  C 747.67 203.64 761.32 210.98 774.11 208.23
  Q 780.31 206.90 784.40 201.35
  Q 785.68 199.62 785.53 201.76
  Z
  M 429.89 179.97
  A 29.11 29.11 0.0 0 0 400.78 150.86
  A 29.11 29.11 0.0 0 0 371.67 179.97
  A 29.11 29.11 0.0 0 0 400.78 209.08
  A 29.11 29.11 0.0 0 0 429.89 179.97
  Z
  M 493.27 179.97
  A 29.12 29.12 0.0 0 0 464.15 150.85
  A 29.12 29.12 0.0 0 0 435.03 179.97
  A 29.12 29.12 0.0 0 0 464.15 209.09
  A 29.12 29.12 0.0 0 0 493.27 179.97
  Z
  M 541.95 202.82
  Q 541.85 206.25 541.58 209.73
  C 541.03 216.75 536.75 222.05 529.52 223.13
  C 521.31 224.37 515.85 220.73 512.12 213.60
  Q 511.85 213.08 511.31 213.30
  L 501.96 217.20
  Q 500.49 217.81 501.27 219.19
  Q 508.40 231.83 520.20 234.16
  C 536.14 237.30 549.80 229.95 553.20 213.32
  Q 554.11 208.89 554.10 203.06
  Q 554.05 178.57 554.09 153.11
  Q 554.09 152.75 553.73 152.75
  L 542.51 152.76
  Q 541.80 152.76 541.75 153.47
  Q 541.67 154.77 541.98 156.05
  Q 542.52 158.30 540.82 156.73
  C 530.58 147.24 515.05 150.36 506.17 160.24
  C 492.22 175.76 497.97 201.18 518.52 207.71
  Q 531.70 211.90 541.49 202.62
  A 0.27 0.27 0.0 0 1 541.95 202.82
  Z
  M 597.01 188.45
  L 634.21 173.07
  Q 634.79 172.83 634.60 172.23
  C 631.00 160.77 622.85 151.97 610.57 151.12
  C 587.91 149.55 575.00 174.24 584.67 193.50
  C 590.39 204.89 602.57 210.45 615.03 208.58
  Q 626.16 206.90 634.02 196.69
  A 0.73 0.72 -54.7 0 0 633.85 195.65
  L 624.85 189.68
  Q 624.41 189.39 624.12 189.83
  C 617.47 199.84 602.93 200.47 596.66 189.49
  Q 596.24 188.77 597.01 188.45
  Z
  M 827.61 189.12
  A 0.27 0.27 0.0 0 1 827.16 189.03
  L 812.53 153.26
  A 0.85 0.84 78.4 0 0 811.75 152.74
  L 799.17 152.72
  Q 798.51 152.72 798.78 153.32
  L 820.82 203.39
  A 2.07 2.06 -44.8 0 1 820.81 205.05
  L 808.57 232.28
  Q 808.22 233.06 809.08 233.06
  L 820.81 232.99
  A 1.20 1.19 11.5 0 0 821.89 232.28
  L 856.36 153.11
  A 0.29 0.29 0.0 0 0 856.09 152.70
  L 842.78 152.73
  Q 842.26 152.73 842.07 153.21
  Q 835.84 168.97 829.03 186.75
  Q 828.49 188.17 827.61 189.12
  Z"
/>
<path fill="#ffffff" d="
  M 316.54 75.47
  L 303.17 75.49
  Q 302.40 75.49 302.41 74.72
  L 302.46 69.79
  Q 302.47 69.05 303.21 69.05
  L 322.53 69.02
  Q 323.74 69.01 323.86 70.22
  Q 325.06 82.22 316.46 88.93
  C 307.96 95.56 295.09 94.50 287.49 86.76
  Q 281.42 80.59 281.30 71.58
  C 281.05 53.76 299.58 43.36 314.83 52.44
  Q 316.98 53.73 318.50 55.76
  Q 318.85 56.23 318.44 56.64
  L 314.69 60.41
  A 0.46 0.46 0.0 0 1 314.01 60.39
  Q 309.25 54.98 301.73 55.77
  C 291.43 56.85 286.13 66.05 288.68 75.84
  C 292.24 89.49 313.77 91.09 317.10 76.16
  Q 317.25 75.47 316.54 75.47
  Z"
/>
<path fill="#ffffff" d="
  M 487.3462 93.3189
  A 22.15 21.77 87.5 0 1 464.6307 72.1396
  A 22.15 21.77 87.5 0 1 485.4138 49.0611
  A 22.15 21.77 87.5 0 1 508.1293 70.2404
  A 22.15 21.77 87.5 0 1 487.3462 93.3189
  Z
  M 486.2738 86.7794
  A 15.61 15.02 90.5 0 0 501.4294 71.3011
  A 15.61 15.02 90.5 0 0 486.5462 55.5606
  A 15.61 15.02 90.5 0 0 471.3906 71.0389
  A 15.61 15.02 90.5 0 0 486.2738 86.7794
  Z"
/>
<path fill="#ffffff" d="
  M 337.05 85.79
  L 354.89 85.79
  A 0.34 0.34 0.0 0 1 355.23 86.13
  L 355.26 91.92
  A 0.34 0.34 0.0 0 1 354.92 92.26
  L 330.40 92.28
  A 0.34 0.34 0.0 0 1 330.06 91.94
  L 330.05 50.45
  A 0.34 0.34 0.0 0 1 330.39 50.11
  L 354.93 50.08
  A 0.34 0.34 0.0 0 1 355.27 50.42
  L 355.20 56.29
  A 0.34 0.34 0.0 0 1 354.86 56.63
  L 337.03 56.65
  A 0.34 0.34 0.0 0 0 336.69 56.99
  L 336.79 67.66
  A 0.34 0.34 0.0 0 0 337.13 68.00
  L 353.10 68.04
  A 0.34 0.34 0.0 0 1 353.44 68.37
  L 353.52 73.96
  A 0.34 0.34 0.0 0 1 353.18 74.31
  L 337.10 74.29
  A 0.34 0.34 0.0 0 0 336.76 74.63
  L 336.71 85.45
  A 0.34 0.34 0.0 0 0 337.05 85.79
  Z"
/>
<path fill="#ffffff" d="
  M 370.10 56.65
  L 359.99 56.64
  A 0.62 0.62 0.0 0 1 359.37 56.03
  L 359.24 50.68
  A 0.62 0.62 0.0 0 1 359.87 50.04
  L 388.22 50.15
  A 0.62 0.62 0.0 0 1 388.84 50.78
  L 388.75 56.09
  A 0.62 0.62 0.0 0 1 388.13 56.70
  L 377.94 56.64
  A 0.62 0.62 0.0 0 0 377.32 57.26
  L 377.29 91.69
  A 0.62 0.62 0.0 0 1 376.66 92.31
  L 371.33 92.26
  A 0.62 0.62 0.0 0 1 370.72 91.64
  L 370.72 57.27
  A 0.62 0.62 0.0 0 0 370.10 56.65
  Z"
/>
<rect fill="#ffffff" x="407.52" y="50.08" width="6.92" height="42.24" rx="0.56"/>
<path fill="#ffffff" d="
  M 419.51 56.18
  L 419.48 50.58
  A 0.52 0.52 0.0 0 1 420.00 50.06
  L 448.54 50.14
  A 0.52 0.52 0.0 0 1 449.06 50.66
  L 449.06 56.15
  A 0.52 0.52 0.0 0 1 448.54 56.67
  L 438.17 56.62
  A 0.52 0.52 0.0 0 0 437.65 57.14
  L 437.61 91.72
  A 0.52 0.52 0.0 0 1 437.10 92.24
  L 431.42 92.40
  A 0.52 0.52 0.0 0 1 430.89 91.88
  L 430.93 57.13
  A 0.52 0.52 0.0 0 0 430.40 56.60
  L 420.03 56.70
  A 0.52 0.52 0.0 0 1 419.51 56.18
  Z"
/>
<path fill="#ffffff" d="
  M 540.44 50.05
  L 546.61 50.08
  A 0.31 0.31 0.0 0 1 546.92 50.39
  L 546.92 91.94
  A 0.31 0.31 0.0 0 1 546.61 92.25
  L 540.44 92.27
  A 0.31 0.31 0.0 0 1 540.18 92.12
  L 521.07 61.34
  A 0.31 0.31 0.0 0 0 520.49 61.51
  L 520.63 91.93
  A 0.31 0.31 0.0 0 1 520.32 92.24
  L 514.34 92.34
  A 0.31 0.31 0.0 0 1 514.03 92.03
  L 514.02 50.38
  A 0.31 0.31 0.0 0 1 514.34 50.07
  L 521.48 50.19
  A 0.31 0.31 0.0 0 1 521.74 50.33
  L 539.82 79.35
  A 0.31 0.31 0.0 0 0 540.39 79.19
  L 540.13 50.36
  A 0.31 0.31 0.0 0 1 540.44 50.05
  Z"
/>
<path fill="#71c16a" d="
  M 185.28 110.57
  L 156.64 139.17
  Q 156.35 139.12 156.10 139.35
  Q 155.74 138.63 154.68 137.59
  Q 121.21 104.71 74.75 57.50
  Q 73.41 56.13 70.74 55.44
  Q 74.22 51.42 78.77 51.69
  Q 81.33 51.84 85.25 54.04
  Q 135.30 82.12 185.28 110.57
  Z"
/>
<path fill="#59caf6" d="
  M 70.74 55.44
  Q 73.41 56.13 74.75 57.50
  Q 121.21 104.71 154.68 137.59
  Q 155.74 138.63 156.10 139.35
  L 71.74 223.89
  Q 68.47 220.04 68.47 215.50
  Q 68.45 139.63 68.48 63.75
  Q 68.48 59.23 70.74 55.44
  Z"
/>
<ellipse fill="#020305" cx="0.00" cy="0.00" transform="translate(486.41,71.17) rotate(90.5)" rx="15.61" ry="15.02"/>
<path fill="#fcd602" d="
  M 185.28 110.57
  Q 201.77 119.97 218.34 129.47
  Q 221.70 131.39 223.90 134.15
  C 226.47 137.37 225.50 142.20 223.21 145.20
  Q 221.74 147.14 218.51 148.98
  Q 206.30 155.95 193.86 162.86
  C 190.75 164.58 187.88 166.54 184.78 168.21
  C 184.39 167.54 184.13 166.86 183.60 166.34
  Q 172.50 155.50 161.86 144.20
  C 160.42 142.66 158.22 141.09 156.64 139.17
  L 185.28 110.57
  Z"
/>
<path fill="#ffffff" d="
  M 354.62 172.59
  A 0.35 0.34 -87.1 0 0 354.27 172.20
  L 326.00 172.26
  A 0.76 0.75 90.0 0 1 325.25 171.50
  L 325.26 160.34
  A 0.41 0.40 90.0 0 1 325.66 159.93
  L 366.29 159.89
  A 0.65 0.63 86.0 0 1 366.93 160.46
  C 368.54 174.01 365.81 187.92 355.76 197.36
  C 348.90 203.82 340.93 207.66 331.61 208.65
  Q 309.36 211.00 293.16 195.60
  C 275.64 178.92 275.46 150.01 292.66 132.90
  C 310.11 115.54 337.25 113.95 355.74 130.92
  A 0.69 0.69 0.0 0 1 355.77 131.91
  L 347.95 139.77
  A 0.50 0.48 -46.7 0 1 347.28 139.80
  Q 333.72 128.10 316.59 132.64
  C 306.78 135.24 298.41 143.32 295.11 152.95
  C 289.91 168.11 295.78 184.51 309.86 192.55
  C 320.82 198.80 336.09 197.84 346.07 189.52
  Q 353.42 183.38 354.62 172.59
  Z"
/>
<path fill="#ffffff" d="
  M 675.43 175.73
  L 675.45 206.77
  Q 675.45 207.23 674.98 207.23
  L 663.30 207.22
  A 0.68 0.67 0.0 0 1 662.62 206.55
  L 662.59 122.74
  Q 662.59 121.95 663.38 121.96
  Q 676.32 122.05 691.34 121.98
  Q 704.49 121.92 712.92 129.74
  C 722.63 138.75 723.99 154.05 715.62 164.40
  Q 707.29 174.70 693.03 174.95
  Q 684.81 175.10 676.22 174.95
  Q 675.43 174.94 675.43 175.73
  Z
  M 675.35 134.61
  L 675.49 162.55
  A 0.61 0.61 0.0 0 0 676.11 163.15
  L 693.26 163.06
  A 15.10 14.56 -0.3 0 0 708.28 148.42
  L 708.28 148.38
  A 15.10 14.56 -0.3 0 0 693.10 133.90
  L 675.95 133.99
  A 0.61 0.61 0.0 0 0 675.35 134.61
  Z"
/>
<rect fill="#ffffff" x="562.58" y="122.00" width="12.94" height="85.24" rx="0.65"/>
<rect fill="#ffffff" x="728.03" y="122.00" width="12.72" height="85.22" rx="0.53"/>
<path fill="#020305" d="
  M 675.35 134.61
  A 0.61 0.61 0.0 0 1 675.95 133.99
  L 693.10 133.90
  A 15.10 14.56 -0.3 0 1 708.28 148.38
  L 708.28 148.42
  A 15.10 14.56 -0.3 0 1 693.26 163.06
  L 676.11 163.15
  A 0.61 0.61 0.0 0 1 675.49 162.55
  L 675.35 134.61
  Z"
/>
<path fill="#e73e51" d="
  M 156.10 139.35
  Q 156.35 139.12 156.64 139.17
  C 158.22 141.09 160.42 142.66 161.86 144.20
  Q 172.50 155.50 183.60 166.34
  C 184.13 166.86 184.39 167.54 184.78 168.21
  Q 135.11 196.29 85.51 224.51
  C 81.41 226.84 75.56 227.71 71.74 223.89
  L 156.10 139.35
  Z"
/>
<path fill="#ffffff" d="
  M 785.53 201.76
  Q 785.68 199.62 784.40 201.35
  Q 780.31 206.90 774.11 208.23
  C 761.32 210.98 747.67 203.64 747.73 189.65
  C 747.75 183.87 751.28 178.11 756.13 175.27
  Q 769.77 167.28 784.77 173.69
  A 0.55 0.55 0.0 0 0 785.53 173.11
  Q 784.76 167.10 779.99 164.48
  C 773.94 161.15 765.36 161.42 761.14 167.66
  Q 760.44 168.70 759.28 168.21
  L 750.02 164.28
  A 0.97 0.97 0.0 0 1 749.55 162.91
  C 759.49 145.53 789.34 146.98 796.44 165.99
  Q 797.99 170.16 797.79 181.43
  Q 797.57 194.00 797.78 206.62
  Q 797.79 207.21 797.20 207.21
  L 786.36 207.18
  A 1.12 1.12 0.0 0 1 785.24 205.99
  L 785.53 201.76
  Z
  M 784.42 187.70
  Q 784.88 186.55 785.26 185.34
  A 1.47 1.47 0.0 0 0 784.47 183.56
  Q 776.00 179.68 767.01 182.32
  C 763.41 183.38 760.59 186.26 760.49 190.21
  C 760.44 192.05 761.23 193.92 762.77 195.00
  C 770.70 200.56 781.05 196.21 784.42 187.70
  Z"
/>
<path fill="#ffffff" d="
  M 429.89 179.97
  A 29.11 29.11 0.0 0 1 400.78 209.08
  A 29.11 29.11 0.0 0 1 371.67 179.97
  A 29.11 29.11 0.0 0 1 400.78 150.86
  A 29.11 29.11 0.0 0 1 429.89 179.97
  Z
  M 400.5558 197.4887
  A 17.53 16.31 90.7 0 0 417.0788 180.1593
  A 17.53 16.31 90.7 0 0 400.9842 162.4313
  A 17.53 16.31 90.7 0 0 384.4612 179.7607
  A 17.53 16.31 90.7 0 0 400.5558 197.4887
  Z"
/>
<path fill="#ffffff" d="
  M 493.27 179.97
  A 29.12 29.12 0.0 0 1 464.15 209.09
  A 29.12 29.12 0.0 0 1 435.03 179.97
  A 29.12 29.12 0.0 0 1 464.15 150.85
  A 29.12 29.12 0.0 0 1 493.27 179.97
  Z
  M 464.2119 197.5198
  A 17.55 16.32 89.7 0 0 480.4398 179.8845
  A 17.55 16.32 89.7 0 0 464.0281 162.4202
  A 17.55 16.32 89.7 0 0 447.8002 180.0555
  A 17.55 16.32 89.7 0 0 464.2119 197.5198
  Z"
/>
<path fill="#ffffff" d="
  M 541.95 202.82
  A 0.27 0.27 0.0 0 0 541.49 202.62
  Q 531.70 211.90 518.52 207.71
  C 497.97 201.18 492.22 175.76 506.17 160.24
  C 515.05 150.36 530.58 147.24 540.82 156.73
  Q 542.52 158.30 541.98 156.05
  Q 541.67 154.77 541.75 153.47
  Q 541.80 152.76 542.51 152.76
  L 553.73 152.75
  Q 554.09 152.75 554.09 153.11
  Q 554.05 178.57 554.10 203.06
  Q 554.11 208.89 553.20 213.32
  C 549.80 229.95 536.14 237.30 520.20 234.16
  Q 508.40 231.83 501.27 219.19
  Q 500.49 217.81 501.96 217.20
  L 511.31 213.30
  Q 511.85 213.08 512.12 213.60
  C 515.85 220.73 521.31 224.37 529.52 223.13
  C 536.75 222.05 541.03 216.75 541.58 209.73
  Q 541.85 206.25 541.95 202.82
  Z
  M 526.8968 197.5393
  A 17.55 15.75 90.5 0 0 542.7994 180.1274
  A 17.55 15.75 90.5 0 0 527.2032 162.4407
  A 17.55 15.75 90.5 0 0 511.3006 179.8526
  A 17.55 15.75 90.5 0 0 526.8968 197.5393
  Z"
/>
<path fill="#ffffff" d="
  M 597.01 188.45
  Q 596.24 188.77 596.66 189.49
  C 602.93 200.47 617.47 199.84 624.12 189.83
  Q 624.41 189.39 624.85 189.68
  L 633.85 195.65
  A 0.73 0.72 -54.7 0 1 634.02 196.69
  Q 626.16 206.90 615.03 208.58
  C 602.57 210.45 590.39 204.89 584.67 193.50
  C 575.00 174.24 587.91 149.55 610.57 151.12
  C 622.85 151.97 631.00 160.77 634.60 172.23
  Q 634.79 172.83 634.21 173.07
  L 597.01 188.45
  Z
  M 594.99 178.64
  L 619.38 168.59
  A 0.71 0.71 0.0 0 0 619.69 167.52
  C 614.56 160.32 605.15 160.92 599.17 166.59
  Q 594.44 171.08 594.10 178.02
  Q 594.05 179.03 594.99 178.64
  Z"
/>
<path fill="#ffffff" d="
  M 827.61 189.12
  Q 828.49 188.17 829.03 186.75
  Q 835.84 168.97 842.07 153.21
  Q 842.26 152.73 842.78 152.73
  L 856.09 152.70
  A 0.29 0.29 0.0 0 1 856.36 153.11
  L 821.89 232.28
  A 1.20 1.19 11.5 0 1 820.81 232.99
  L 809.08 233.06
  Q 808.22 233.06 808.57 232.28
  L 820.81 205.05
  A 2.07 2.06 -44.8 0 0 820.82 203.39
  L 798.78 153.32
  Q 798.51 152.72 799.17 152.72
  L 811.75 152.74
  A 0.85 0.84 78.4 0 1 812.53 153.26
  L 827.16 189.03
  A 0.27 0.27 0.0 0 0 827.61 189.12
  Z"
/>
<path fill="#020305" d="
  M 594.99 178.64
  Q 594.05 179.03 594.10 178.02
  Q 594.44 171.08 599.17 166.59
  C 605.15 160.92 614.56 160.32 619.69 167.52
  A 0.71 0.71 0.0 0 1 619.38 168.59
  L 594.99 178.64
  Z"
/>
<ellipse fill="#020305" cx="0.00" cy="0.00" transform="translate(400.77,179.96) rotate(90.7)" rx="17.53" ry="16.31"/>
<ellipse fill="#020305" cx="0.00" cy="0.00" transform="translate(464.12,179.97) rotate(89.7)" rx="17.55" ry="16.32"/>
<ellipse fill="#020305" cx="0.00" cy="0.00" transform="translate(527.05,179.99) rotate(90.5)" rx="17.55" ry="15.75"/>
<path fill="#020305" d="
  M 784.42 187.70
  C 781.05 196.21 770.70 200.56 762.77 195.00
  C 761.23 193.92 760.44 192.05 760.49 190.21
  C 760.59 186.26 763.41 183.38 767.01 182.32
  Q 776.00 179.68 784.47 183.56
  A 1.47 1.47 0.0 0 1 785.26 185.34
  Q 784.88 186.55 784.42 187.70
  Z"
/>
</svg>
