<?xml version="1.0" encoding="UTF-8" standalone="no"?>
<!DOCTYPE svg PUBLIC "-//W3C//DTD SVG 1.1//EN" "http://www.w3.org/Graphics/SVG/1.1/DTD/svg11.dtd">
<svg xmlns="http://www.w3.org/2000/svg" version="1.1" viewBox="0.00 0.00 400.00 400.00">
<g stroke-width="2.00" fill="none" stroke-linecap="butt">
<path stroke="#fdc892" vector-effect="non-scaling-stroke" d="
  M 76.15 129.38
  Q 89.69 136.29 103.16 145.26
  Q 120.59 156.88 141.80 175.88
  C 145.01 178.76 147.49 182.18 151.08 184.56
  A 1.78 1.78 0.0 0 0 153.33 184.33
  Q 171.70 165.87 190.90 146.36
  Q 216.66 120.19 243.24 97.75
  C 260.39 83.27 278.40 70.35 298.24 59.30
  Q 300.42 58.08 302.70 56.43
  A 0.75 0.75 0.0 0 0 302.83 55.33
  Q 296.29 47.85 289.32 41.24
  C 269.65 22.59 242.55 10.34 215.59 7.55
  Q 168.07 2.64 128.48 29.14
  C 122.06 33.43 115.33 39.24 110.11 44.43
  Q 76.42 77.93 72.12 126.29
  A 1.36 1.36 0.0 0 0 72.81 127.60
  Q 74.46 128.51 76.15 129.38"
/>
<path stroke="#8cd3ab" vector-effect="non-scaling-stroke" d="
  M 240.92 259.94
  C 298.65 241.35 335.82 185.32 330.51 125.10
  Q 327.91 95.61 313.32 71.14
  Q 312.57 69.88 311.44 70.81
  Q 295.67 83.75 280.37 97.89
  Q 226.48 147.71 171.13 203.86
  Q 164.65 210.44 158.18 217.93
  C 156.30 220.11 152.30 223.65 149.60 220.41
  C 138.89 207.54 127.11 195.81 115.07 184.54
  C 106.57 176.58 97.86 169.29 89.13 161.94
  Q 82.71 156.54 73.19 149.39
  A 0.39 0.39 0.0 0 0 72.57 149.69
  Q 72.49 152.15 72.90 154.70
  Q 81.05 205.98 121.05 238.17
  C 154.25 264.88 200.15 273.07 240.92 259.94"
/>
<path stroke="#9294b4" vector-effect="non-scaling-stroke" d="
  M 155.26 303.71
  L 161.81 303.65
  A 1.32 1.32 0.0 0 1 163.07 304.54
  L 164.21 307.86
  Q 164.49 308.69 165.36 308.74
  L 167.99 308.89
  Q 169.29 308.96 168.83 307.74
  Q 164.64 296.63 161.42 287.64
  C 160.88 286.14 158.78 286.44 157.51 286.37
  A 1.36 1.35 11.4 0 0 156.15 287.27
  L 148.68 308.06
  Q 148.34 308.99 149.33 308.95
  L 151.97 308.86
  Q 153.03 308.83 153.30 307.79
  L 154.11 304.61
  A 1.20 1.20 0.0 0 1 155.26 303.71"
/>
<path stroke="#9294b4" vector-effect="non-scaling-stroke" d="
  M 190.98 286.98
  A 0.59 0.59 0.0 0 0 190.39 286.39
  L 187.43 286.39
  A 0.59 0.59 0.0 0 0 186.84 286.98
  L 186.84 308.32
  A 0.59 0.59 0.0 0 0 187.43 308.91
  L 190.39 308.91
  A 0.59 0.59 0.0 0 0 190.98 308.32
  L 190.98 286.98"
/>
<path stroke="#9294b4" vector-effect="non-scaling-stroke" d="
  M 213.9185 295.2641
  A 8.97 8.97 0.0 0 0 204.9799 286.2628
  L 203.3999 286.2573
  A 8.97 8.97 0.0 0 0 194.3986 295.1959
  L 194.3815 300.1159
  A 8.97 8.97 0.0 0 0 203.3201 309.1172
  L 204.9001 309.1227
  A 8.97 8.97 0.0 0 0 213.9014 300.1841
  L 213.9185 295.2641"
/>
<path stroke="#9294b4" vector-effect="non-scaling-stroke" d="
  M 221.79 294.92
  L 229.45 308.40
  A 1.06 1.06 0.0 0 0 230.39 308.94
  L 233.40 308.92
  Q 233.98 308.92 233.98 308.35
  L 233.97 287.42
  Q 233.97 286.10 232.66 286.28
  L 230.96 286.51
  Q 230.06 286.63 230.07 287.54
  L 230.15 300.48
  Q 230.16 301.53 229.62 300.63
  Q 226.12 294.71 222.78 288.35
  Q 221.22 285.39 218.05 286.53
  A 0.84 0.84 0.0 0 0 217.49 287.32
  L 217.48 308.04
  Q 217.48 308.86 218.29 308.86
  L 220.67 308.88
  Q 221.48 308.88 221.46 308.08
  L 221.25 295.06
  Q 221.23 293.95 221.79 294.92"
/>
<path stroke="#9294b4" vector-effect="non-scaling-stroke" d="
  M 250.43 303.75
  A 0.60 0.60 0.0 0 1 251.01 304.19
  L 252.12 308.19
  A 0.60 0.60 0.0 0 0 252.65 308.62
  L 256.22 308.92
  A 0.60 0.60 0.0 0 0 256.84 308.12
  L 248.96 286.70
  A 0.60 0.60 0.0 0 0 248.38 286.31
  L 244.78 286.44
  A 0.60 0.60 0.0 0 0 244.24 286.83
  L 236.50 308.08
  A 0.60 0.60 0.0 0 0 237.08 308.88
  L 240.34 308.81
  A 0.60 0.60 0.0 0 0 240.89 308.40
  L 242.28 304.14
  A 0.60 0.60 0.0 0 1 242.86 303.73
  L 250.43 303.75"
/>
<path stroke="#9294b4" vector-effect="non-scaling-stroke" d="
  M 142.23 300.03
  Q 142.23 301.50 141.51 300.22
  L 134.23 287.34
  Q 133.98 286.90 133.50 286.73
  Q 132.04 286.22 130.27 286.56
  Q 129.64 286.68 129.64 287.32
  L 129.58 308.01
  Q 129.58 308.94 130.51 308.96
  L 132.79 309.00
  Q 133.61 309.02 133.59 308.20
  L 133.39 295.97
  Q 133.36 293.92 134.36 295.70
  L 141.38 308.07
  Q 141.64 308.52 142.13 308.71
  Q 143.49 309.25 145.22 308.85
  A 1.05 1.05 0.0 0 0 146.03 307.83
  L 146.04 287.13
  Q 146.04 286.47 145.38 286.48
  L 142.98 286.49
  Q 142.21 286.50 142.21 287.27
  L 142.23 300.03"
/>
<path stroke="#9294b4" vector-effect="non-scaling-stroke" d="
  M 173.28 290.23
  A 0.68 0.68 0.0 0 1 173.97 290.91
  L 173.94 308.24
  A 0.68 0.68 0.0 0 0 174.61 308.92
  L 177.37 308.97
  A 0.68 0.68 0.0 0 0 178.06 308.29
  L 178.03 290.81
  A 0.68 0.68 0.0 0 1 178.75 290.13
  L 183.36 290.37
  A 0.68 0.68 0.0 0 0 184.07 289.76
  L 184.29 287.25
  A 0.68 0.68 0.0 0 0 183.62 286.51
  L 168.37 286.53
  A 0.68 0.68 0.0 0 0 167.69 287.26
  L 167.86 289.67
  A 0.68 0.68 0.0 0 0 168.55 290.30
  L 173.28 290.23"
/>
<path stroke="#9294b4" vector-effect="non-scaling-stroke" d="
  M 264.24 305.00
  A 0.60 0.60 0.0 0 1 263.64 304.40
  L 263.72 287.21
  A 0.60 0.60 0.0 0 0 263.12 286.61
  L 260.01 286.58
  A 0.60 0.60 0.0 0 0 259.41 287.18
  L 259.43 308.28
  A 0.60 0.60 0.0 0 0 260.03 308.88
  L 273.49 308.82
  A 0.60 0.60 0.0 0 0 274.09 308.20
  L 273.99 305.60
  A 0.60 0.60 0.0 0 0 273.39 305.02
  L 264.24 305.00"
/>
<path stroke="#9294b4" vector-effect="non-scaling-stroke" d="
  M 121.08 324.86
  C 122.04 325.03 122.35 325.83 122.60 326.64
  Q 122.94 327.72 124.07 327.73
  L 126.43 327.73
  Q 127.53 327.73 127.29 326.66
  Q 125.92 320.65 119.21 320.82
  C 114.36 320.94 111.19 323.53 112.12 328.66
  C 112.53 330.92 114.35 332.54 116.46 333.19
  C 118.19 333.72 121.89 334.35 123.16 335.66
  A 2.18 2.17 48.1 0 1 123.00 338.83
  C 119.92 341.43 116.71 340.30 115.36 336.64
  Q 115.06 335.82 114.20 335.91
  L 111.83 336.15
  Q 111.03 336.23 111.16 337.02
  C 112.16 343.33 117.25 344.88 122.71 343.65
  Q 127.37 342.59 127.81 337.50
  Q 128.24 332.39 123.74 330.77
  Q 120.41 329.58 117.03 328.47
  A 1.74 1.73 27.0 0 1 116.16 325.80
  C 117.27 324.28 119.42 324.57 121.08 324.86"
/>
<path stroke="#9294b4" vector-effect="non-scaling-stroke" d="
  M 192.52 336.07
  Q 192.82 338.26 191.04 339.24
  C 187.39 341.27 183.17 339.99 182.14 335.65
  Q 181.33 332.24 182.11 328.88
  C 182.97 325.11 188.21 323.09 191.01 326.09
  Q 191.58 326.70 192.04 327.39
  A 1.34 1.34 0.0 0 0 193.08 327.99
  Q 194.67 328.10 195.93 327.41
  A 0.80 0.79 66.3 0 0 196.30 326.45
  Q 194.82 322.16 190.83 321.20
  Q 183.86 319.54 179.81 324.41
  C 175.83 329.20 176.77 339.07 182.19 342.53
  C 185.93 344.92 193.43 344.19 196.40 340.75
  A 0.85 0.85 0.0 0 0 196.61 340.19
  L 196.76 332.33
  A 0.76 0.76 0.0 0 0 196.00 331.56
  L 188.76 331.57
  A 1.15 1.15 0.0 0 0 187.61 332.74
  L 187.64 334.18
  Q 187.66 335.44 188.93 335.46
  L 191.90 335.52
  A 0.64 0.64 0.0 0 1 192.52 336.07"
/>
<path stroke="#9294b4" vector-effect="non-scaling-stroke" d="
  M 242.97 336.24
  Q 243.27 338.54 241.01 339.44
  C 230.40 343.67 229.60 326.45 236.08 324.98
  Q 238.27 324.48 240.46 325.25
  A 1.33 1.32 86.6 0 1 241.23 325.94
  Q 242.83 329.33 246.37 327.30
  Q 246.92 326.98 246.67 326.39
  Q 244.48 321.29 239.69 320.88
  Q 229.27 320.00 227.93 330.72
  C 226.47 342.32 237.03 347.59 246.27 341.41
  A 1.98 1.96 -16.9 0 0 247.14 339.80
  L 247.21 332.23
  A 0.73 0.73 0.0 0 0 246.48 331.50
  L 239.23 331.55
  A 1.24 1.23 -89.5 0 0 238.00 332.77
  L 237.97 334.24
  Q 237.94 335.54 239.24 335.52
  L 242.07 335.47
  Q 242.86 335.46 242.97 336.24"
/>
<path stroke="#9294b4" vector-effect="non-scaling-stroke" d="
  M 295.36 328.24
  C 296.60 324.17 302.37 323.23 303.97 327.64
  Q 304.16 328.18 304.73 328.16
  Q 306.29 328.10 307.53 327.61
  A 1.07 1.07 0.0 0 0 308.13 326.24
  C 304.97 317.87 293.26 319.58 291.14 327.62
  Q 289.68 333.13 291.09 337.13
  Q 293.95 345.27 302.16 343.67
  Q 306.67 342.80 308.29 337.38
  Q 308.55 336.49 307.65 336.28
  L 305.28 335.73
  Q 304.44 335.54 304.21 336.36
  C 302.48 342.60 295.90 340.48 295.01 335.14
  Q 294.40 331.40 295.36 328.24"
/>
<path stroke="#9294b4" vector-effect="non-scaling-stroke" d="
  M 153.21 321.69
  A 0.53 0.53 0.0 0 0 152.68 321.16
  L 149.54 321.16
  A 0.53 0.53 0.0 0 0 149.01 321.69
  L 149.01 343.15
  A 0.53 0.53 0.0 0 0 149.54 343.68
  L 152.68 343.68
  A 0.53 0.53 0.0 0 0 153.21 343.15
  L 153.21 321.69"
/>
<path stroke="#9294b4" vector-effect="non-scaling-stroke" d="
  M 169.25 335.21
  Q 165.69 329.33 162.27 322.95
  Q 160.96 320.50 157.79 321.28
  Q 157.29 321.41 157.28 321.93
  L 157.18 342.71
  Q 157.17 343.74 158.21 343.74
  L 160.10 343.74
  A 1.08 1.08 0.0 0 0 161.18 342.64
  L 160.99 329.77
  Q 160.97 328.85 161.45 329.64
  Q 165.11 335.84 168.85 342.62
  C 169.61 344.01 171.53 343.84 172.83 343.69
  Q 173.64 343.60 173.63 342.80
  L 173.62 321.90
  A 0.80 0.79 88.3 0 0 172.78 321.10
  L 170.47 321.24
  Q 169.72 321.28 169.73 322.03
  L 169.82 335.05
  Q 169.83 336.17 169.25 335.21"
/>
<path stroke="#9294b4" vector-effect="non-scaling-stroke" d="
  M 255.87 339.87
  A 0.65 0.65 0.0 0 1 255.21 339.21
  L 255.27 334.35
  A 0.65 0.65 0.0 0 1 255.93 333.71
  L 264.88 333.82
  A 0.65 0.65 0.0 0 0 265.54 333.19
  L 265.61 330.60
  A 0.65 0.65 0.0 0 0 264.96 329.93
  L 255.73 329.93
  A 0.65 0.65 0.0 0 1 255.08 329.23
  L 255.38 325.59
  A 0.65 0.65 0.0 0 1 256.03 324.99
  L 265.67 325.05
  A 0.65 0.65 0.0 0 0 266.32 324.44
  L 266.48 321.96
  A 0.65 0.65 0.0 0 0 265.83 321.27
  L 251.66 321.19
  A 0.65 0.65 0.0 0 0 251.01 321.84
  L 251.00 342.95
  A 0.65 0.65 0.0 0 0 251.65 343.60
  L 266.10 343.67
  A 0.65 0.65 0.0 0 0 266.75 343.03
  L 266.80 340.39
  A 0.65 0.65 0.0 0 0 266.14 339.73
  L 255.87 339.87"
/>
<path stroke="#9294b4" vector-effect="non-scaling-stroke" d="
  M 73.64 324.15
  A 0.84 0.84 0.0 0 0 74.47 324.96
  L 78.98 325.00
  A 0.84 0.84 0.0 0 1 79.81 325.84
  L 79.90 342.82
  A 0.84 0.84 0.0 0 0 80.73 343.66
  L 83.10 343.67
  A 0.84 0.84 0.0 0 0 83.94 342.84
  L 84.01 325.68
  A 0.84 0.84 0.0 0 1 84.89 324.84
  L 89.23 325.05
  A 0.84 0.84 0.0 0 0 90.11 324.22
  L 90.14 322.10
  A 0.84 0.84 0.0 0 0 89.29 321.25
  L 74.41 321.33
  A 0.84 0.84 0.0 0 0 73.57 322.21
  L 73.64 324.15"
/>
<path stroke="#9294b4" vector-effect="non-scaling-stroke" d="
  M 96.90 334.40
  A 0.65 0.65 0.0 0 1 97.55 333.74
  L 106.82 333.83
  A 0.65 0.65 0.0 0 0 107.47 333.20
  L 107.53 330.55
  A 0.65 0.65 0.0 0 0 106.88 329.88
  L 97.70 329.95
  A 0.65 0.65 0.0 0 1 97.05 329.31
  L 96.97 325.64
  A 0.65 0.65 0.0 0 1 97.63 324.98
  L 107.60 325.08
  A 0.65 0.65 0.0 0 0 108.26 324.43
  L 108.27 321.90
  A 0.65 0.65 0.0 0 0 107.62 321.25
  L 93.53 321.24
  A 0.65 0.65 0.0 0 0 92.88 321.89
  L 92.88 343.00
  A 0.65 0.65 0.0 0 0 93.53 343.65
  L 107.91 343.65
  A 0.65 0.65 0.0 0 0 108.56 343.02
  L 108.65 340.46
  A 0.65 0.65 0.0 0 0 108.00 339.79
  L 97.66 339.72
  A 0.65 0.65 0.0 0 1 97.01 339.09
  L 96.90 334.40"
/>
<path stroke="#9294b4" vector-effect="non-scaling-stroke" d="
  M 140.29 325.84
  A 0.86 0.86 0.0 0 1 141.16 324.98
  L 145.68 325.04
  A 0.86 0.86 0.0 0 0 146.55 324.14
  L 146.46 322.07
  A 0.86 0.86 0.0 0 0 145.60 321.25
  L 130.81 321.25
  A 0.86 0.86 0.0 0 0 129.95 322.11
  L 129.93 324.22
  A 0.86 0.86 0.0 0 0 130.81 325.09
  L 135.36 325.01
  A 0.86 0.86 0.0 0 1 136.24 325.88
  L 136.15 342.84
  A 0.86 0.86 0.0 0 0 137.01 343.71
  L 139.49 343.73
  A 0.86 0.86 0.0 0 0 140.36 342.87
  L 140.29 325.84"
/>
<path stroke="#9294b4" vector-effect="non-scaling-stroke" d="
  M 212.63 338.56
  C 214.52 338.55 217.71 338.14 219.56 338.79
  Q 220.09 338.98 220.27 339.51
  L 221.39 342.76
  A 1.30 1.29 81.5 0 0 222.57 343.64
  L 225.25 343.75
  Q 226.30 343.79 225.94 342.80
  L 218.34 322.10
  Q 218.04 321.27 217.16 321.27
  L 214.45 321.26
  Q 213.58 321.25 213.28 322.07
  L 205.75 342.58
  Q 205.31 343.79 206.59 343.72
  L 209.24 343.59
  A 1.29 1.28 -89.0 0 0 210.45 342.42
  Q 210.61 340.68 211.54 339.17
  Q 211.91 338.56 212.63 338.56"
/>
<path stroke="#9294b4" vector-effect="non-scaling-stroke" d="
  M 282.93 335.04
  Q 282.93 336.39 282.28 335.21
  L 274.86 321.97
  Q 274.46 321.26 273.65 321.25
  L 271.33 321.25
  Q 270.41 321.25 270.41 322.17
  L 270.32 342.77
  A 0.96 0.95 0.3 0 0 271.27 343.72
  L 273.28 343.74
  Q 274.32 343.75 274.30 342.72
  L 274.09 330.69
  Q 274.05 328.72 275.04 330.42
  Q 278.17 335.79 281.35 341.60
  Q 283.00 344.63 286.26 343.45
  Q 286.73 343.28 286.73 342.78
  L 286.81 321.87
  Q 286.81 321.29 286.23 321.27
  L 283.51 321.13
  Q 282.86 321.09 282.86 321.74
  L 282.93 335.04"
/>
<path stroke="#9294b4" vector-effect="non-scaling-stroke" d="
  M 324.80 321.37
  A 0.47 0.47 0.0 0 0 324.41 321.61
  L 320.07 329.46
  A 0.47 0.47 0.0 0 1 319.25 329.45
  L 315.19 321.63
  A 0.47 0.47 0.0 0 0 314.78 321.38
  L 310.73 321.30
  A 0.47 0.47 0.0 0 0 310.32 322.01
  L 317.38 333.89
  A 0.47 0.47 0.0 0 1 317.44 334.13
  L 317.55 343.15
  A 0.47 0.47 0.0 0 0 318.01 343.61
  L 321.19 343.71
  A 0.47 0.47 0.0 0 0 321.67 343.24
  L 321.77 334.00
  A 0.47 0.47 0.0 0 1 321.83 333.76
  L 328.80 321.92
  A 0.47 0.47 0.0 0 0 328.37 321.21
  L 324.80 321.37"
/>
<path stroke="#9294b4" vector-effect="non-scaling-stroke" d="
  M 156.06 299.50
  A 0.35 0.35 0.0 0 0 156.39 299.96
  L 161.04 300.03
  A 0.35 0.35 0.0 0 0 161.38 299.56
  L 158.87 292.59
  A 0.35 0.35 0.0 0 0 158.21 292.61
  L 156.06 299.50"
/>
<path stroke="#9294b4" vector-effect="non-scaling-stroke" d="
  M 204.2052 305.5198
  A 7.91 5.89 89.6 0 0 210.0399 297.5689
  A 7.91 5.89 89.6 0 0 204.0948 289.7002
  A 7.91 5.89 89.6 0 0 198.2601 297.6511
  A 7.91 5.89 89.6 0 0 204.2052 305.5198"
/>
<path stroke="#9294b4" vector-effect="non-scaling-stroke" d="
  M 243.89 299.58
  A 0.34 0.34 0.0 0 0 244.21 300.03
  L 248.94 299.99
  A 0.34 0.34 0.0 0 0 249.26 299.54
  L 246.85 292.79
  A 0.34 0.34 0.0 0 0 246.21 292.80
  L 243.89 299.58"
/>
<path stroke="#9294b4" vector-effect="non-scaling-stroke" d="
  M 213.03 334.31
  A 0.35 0.35 0.0 0 0 213.37 334.77
  L 218.14 334.69
  A 0.35 0.35 0.0 0 0 218.46 334.22
  L 215.96 327.52
  A 0.35 0.35 0.0 0 0 215.30 327.53
  L 213.03 334.31"
/>
</g>
<path fill="#fffeff" d="
  M 0.00 0.00
  L 400.00 0.00
  L 400.00 400.00
  L 0.00 400.00
  L 0.00 0.00
  Z
  M 76.15 129.38
  Q 89.69 136.29 103.16 145.26
  Q 120.59 156.88 141.80 175.88
  C 145.01 178.76 147.49 182.18 151.08 184.56
  A 1.78 1.78 0.0 0 0 153.33 184.33
  Q 171.70 165.87 190.90 146.36
  Q 216.66 120.19 243.24 97.75
  C 260.39 83.27 278.40 70.35 298.24 59.30
  Q 300.42 58.08 302.70 56.43
  A 0.75 0.75 0.0 0 0 302.83 55.33
  Q 296.29 47.85 289.32 41.24
  C 269.65 22.59 242.55 10.34 215.59 7.55
  Q 168.07 2.64 128.48 29.14
  C 122.06 33.43 115.33 39.24 110.11 44.43
  Q 76.42 77.93 72.12 126.29
  A 1.36 1.36 0.0 0 0 72.81 127.60
  Q 74.46 128.51 76.15 129.38
  Z
  M 240.92 259.94
  C 298.65 241.35 335.82 185.32 330.51 125.10
  Q 327.91 95.61 313.32 71.14
  Q 312.57 69.88 311.44 70.81
  Q 295.67 83.75 280.37 97.89
  Q 226.48 147.71 171.13 203.86
  Q 164.65 210.44 158.18 217.93
  C 156.30 220.11 152.30 223.65 149.60 220.41
  C 138.89 207.54 127.11 195.81 115.07 184.54
  C 106.57 176.58 97.86 169.29 89.13 161.94
  Q 82.71 156.54 73.19 149.39
  A 0.39 0.39 0.0 0 0 72.57 149.69
  Q 72.49 152.15 72.90 154.70
  Q 81.05 205.98 121.05 238.17
  C 154.25 264.88 200.15 273.07 240.92 259.94
  Z
  M 155.26 303.71
  L 161.81 303.65
  A 1.32 1.32 0.0 0 1 163.07 304.54
  L 164.21 307.86
  Q 164.49 308.69 165.36 308.74
  L 167.99 308.89
  Q 169.29 308.96 168.83 307.74
  Q 164.64 296.63 161.42 287.64
  C 160.88 286.14 158.78 286.44 157.51 286.37
  A 1.36 1.35 11.4 0 0 156.15 287.27
  L 148.68 308.06
  Q 148.34 308.99 149.33 308.95
  L 151.97 308.86
  Q 153.03 308.83 153.30 307.79
  L 154.11 304.61
  A 1.20 1.20 0.0 0 1 155.26 303.71
  Z
  M 190.98 286.98
  A 0.59 0.59 0.0 0 0 190.39 286.39
  L 187.43 286.39
  A 0.59 0.59 0.0 0 0 186.84 286.98
  L 186.84 308.32
  A 0.59 0.59 0.0 0 0 187.43 308.91
  L 190.39 308.91
  A 0.59 0.59 0.0 0 0 190.98 308.32
  L 190.98 286.98
  Z
  M 213.9185 295.2641
  A 8.97 8.97 0.0 0 0 204.9799 286.2628
  L 203.3999 286.2573
  A 8.97 8.97 0.0 0 0 194.3986 295.1959
  L 194.3815 300.1159
  A 8.97 8.97 0.0 0 0 203.3201 309.1172
  L 204.9001 309.1227
  A 8.97 8.97 0.0 0 0 213.9014 300.1841
  L 213.9185 295.2641
  Z
  M 221.79 294.92
  L 229.45 308.40
  A 1.06 1.06 0.0 0 0 230.39 308.94
  L 233.40 308.92
  Q 233.98 308.92 233.98 308.35
  L 233.97 287.42
  Q 233.97 286.10 232.66 286.28
  L 230.96 286.51
  Q 230.06 286.63 230.07 287.54
  L 230.15 300.48
  Q 230.16 301.53 229.62 300.63
  Q 226.12 294.71 222.78 288.35
  Q 221.22 285.39 218.05 286.53
  A 0.84 0.84 0.0 0 0 217.49 287.32
  L 217.48 308.04
  Q 217.48 308.86 218.29 308.86
  L 220.67 308.88
  Q 221.48 308.88 221.46 308.08
  L 221.25 295.06
  Q 221.23 293.95 221.79 294.92
  Z
  M 250.43 303.75
  A 0.60 0.60 0.0 0 1 251.01 304.19
  L 252.12 308.19
  A 0.60 0.60 0.0 0 0 252.65 308.62
  L 256.22 308.92
  A 0.60 0.60 0.0 0 0 256.84 308.12
  L 248.96 286.70
  A 0.60 0.60 0.0 0 0 248.38 286.31
  L 244.78 286.44
  A 0.60 0.60 0.0 0 0 244.24 286.83
  L 236.50 308.08
  A 0.60 0.60 0.0 0 0 237.08 308.88
  L 240.34 308.81
  A 0.60 0.60 0.0 0 0 240.89 308.40
  L 242.28 304.14
  A 0.60 0.60 0.0 0 1 242.86 303.73
  L 250.43 303.75
  Z
  M 142.23 300.03
  Q 142.23 301.50 141.51 300.22
  L 134.23 287.34
  Q 133.98 286.90 133.50 286.73
  Q 132.04 286.22 130.27 286.56
  Q 129.64 286.68 129.64 287.32
  L 129.58 308.01
  Q 129.58 308.94 130.51 308.96
  L 132.79 309.00
  Q 133.61 309.02 133.59 308.20
  L 133.39 295.97
  Q 133.36 293.92 134.36 295.70
  L 141.38 308.07
  Q 141.64 308.52 142.13 308.71
  Q 143.49 309.25 145.22 308.85
  A 1.05 1.05 0.0 0 0 146.03 307.83
  L 146.04 287.13
  Q 146.04 286.47 145.38 286.48
  L 142.98 286.49
  Q 142.21 286.50 142.21 287.27
  L 142.23 300.03
  Z
  M 173.28 290.23
  A 0.68 0.68 0.0 0 1 173.97 290.91
  L 173.94 308.24
  A 0.68 0.68 0.0 0 0 174.61 308.92
  L 177.37 308.97
  A 0.68 0.68 0.0 0 0 178.06 308.29
  L 178.03 290.81
  A 0.68 0.68 0.0 0 1 178.75 290.13
  L 183.36 290.37
  A 0.68 0.68 0.0 0 0 184.07 289.76
  L 184.29 287.25
  A 0.68 0.68 0.0 0 0 183.62 286.51
  L 168.37 286.53
  A 0.68 0.68 0.0 0 0 167.69 287.26
  L 167.86 289.67
  A 0.68 0.68 0.0 0 0 168.55 290.30
  L 173.28 290.23
  Z
  M 264.24 305.00
  A 0.60 0.60 0.0 0 1 263.64 304.40
  L 263.72 287.21
  A 0.60 0.60 0.0 0 0 263.12 286.61
  L 260.01 286.58
  A 0.60 0.60 0.0 0 0 259.41 287.18
  L 259.43 308.28
  A 0.60 0.60 0.0 0 0 260.03 308.88
  L 273.49 308.82
  A 0.60 0.60 0.0 0 0 274.09 308.20
  L 273.99 305.60
  A 0.60 0.60 0.0 0 0 273.39 305.02
  L 264.24 305.00
  Z
  M 121.08 324.86
  C 122.04 325.03 122.35 325.83 122.60 326.64
  Q 122.94 327.72 124.07 327.73
  L 126.43 327.73
  Q 127.53 327.73 127.29 326.66
  Q 125.92 320.65 119.21 320.82
  C 114.36 320.94 111.19 323.53 112.12 328.66
  C 112.53 330.92 114.35 332.54 116.46 333.19
  C 118.19 333.72 121.89 334.35 123.16 335.66
  A 2.18 2.17 48.1 0 1 123.00 338.83
  C 119.92 341.43 116.71 340.30 115.36 336.64
  Q 115.06 335.82 114.20 335.91
  L 111.83 336.15
  Q 111.03 336.23 111.16 337.02
  C 112.16 343.33 117.25 344.88 122.71 343.65
  Q 127.37 342.59 127.81 337.50
  Q 128.24 332.39 123.74 330.77
  Q 120.41 329.58 117.03 328.47
  A 1.74 1.73 27.0 0 1 116.16 325.80
  C 117.27 324.28 119.42 324.57 121.08 324.86
  Z
  M 192.52 336.07
  Q 192.82 338.26 191.04 339.24
  C 187.39 341.27 183.17 339.99 182.14 335.65
  Q 181.33 332.24 182.11 328.88
  C 182.97 325.11 188.21 323.09 191.01 326.09
  Q 191.58 326.70 192.04 327.39
  A 1.34 1.34 0.0 0 0 193.08 327.99
  Q 194.67 328.10 195.93 327.41
  A 0.80 0.79 66.3 0 0 196.30 326.45
  Q 194.82 322.16 190.83 321.20
  Q 183.86 319.54 179.81 324.41
  C 175.83 329.20 176.77 339.07 182.19 342.53
  C 185.93 344.92 193.43 344.19 196.40 340.75
  A 0.85 0.85 0.0 0 0 196.61 340.19
  L 196.76 332.33
  A 0.76 0.76 0.0 0 0 196.00 331.56
  L 188.76 331.57
  A 1.15 1.15 0.0 0 0 187.61 332.74
  L 187.64 334.18
  Q 187.66 335.44 188.93 335.46
  L 191.90 335.52
  A 0.64 0.64 0.0 0 1 192.52 336.07
  Z
  M 242.97 336.24
  Q 243.27 338.54 241.01 339.44
  C 230.40 343.67 229.60 326.45 236.08 324.98
  Q 238.27 324.48 240.46 325.25
  A 1.33 1.32 86.6 0 1 241.23 325.94
  Q 242.83 329.33 246.37 327.30
  Q 246.92 326.98 246.67 326.39
  Q 244.48 321.29 239.69 320.88
  Q 229.27 320.00 227.93 330.72
  C 226.47 342.32 237.03 347.59 246.27 341.41
  A 1.98 1.96 -16.9 0 0 247.14 339.80
  L 247.21 332.23
  A 0.73 0.73 0.0 0 0 246.48 331.50
  L 239.23 331.55
  A 1.24 1.23 -89.5 0 0 238.00 332.77
  L 237.97 334.24
  Q 237.94 335.54 239.24 335.52
  L 242.07 335.47
  Q 242.86 335.46 242.97 336.24
  Z
  M 295.36 328.24
  C 296.60 324.17 302.37 323.23 303.97 327.64
  Q 304.16 328.18 304.73 328.16
  Q 306.29 328.10 307.53 327.61
  A 1.07 1.07 0.0 0 0 308.13 326.24
  C 304.97 317.87 293.26 319.58 291.14 327.62
  Q 289.68 333.13 291.09 337.13
  Q 293.95 345.27 302.16 343.67
  Q 306.67 342.80 308.29 337.38
  Q 308.55 336.49 307.65 336.28
  L 305.28 335.73
  Q 304.44 335.54 304.21 336.36
  C 302.48 342.60 295.90 340.48 295.01 335.14
  Q 294.40 331.40 295.36 328.24
  Z
  M 153.21 321.69
  A 0.53 0.53 0.0 0 0 152.68 321.16
  L 149.54 321.16
  A 0.53 0.53 0.0 0 0 149.01 321.69
  L 149.01 343.15
  A 0.53 0.53 0.0 0 0 149.54 343.68
  L 152.68 343.68
  A 0.53 0.53 0.0 0 0 153.21 343.15
  L 153.21 321.69
  Z
  M 169.25 335.21
  Q 165.69 329.33 162.27 322.95
  Q 160.96 320.50 157.79 321.28
  Q 157.29 321.41 157.28 321.93
  L 157.18 342.71
  Q 157.17 343.74 158.21 343.74
  L 160.10 343.74
  A 1.08 1.08 0.0 0 0 161.18 342.64
  L 160.99 329.77
  Q 160.97 328.85 161.45 329.64
  Q 165.11 335.84 168.85 342.62
  C 169.61 344.01 171.53 343.84 172.83 343.69
  Q 173.64 343.60 173.63 342.80
  L 173.62 321.90
  A 0.80 0.79 88.3 0 0 172.78 321.10
  L 170.47 321.24
  Q 169.72 321.28 169.73 322.03
  L 169.82 335.05
  Q 169.83 336.17 169.25 335.21
  Z
  M 255.87 339.87
  A 0.65 0.65 0.0 0 1 255.21 339.21
  L 255.27 334.35
  A 0.65 0.65 0.0 0 1 255.93 333.71
  L 264.88 333.82
  A 0.65 0.65 0.0 0 0 265.54 333.19
  L 265.61 330.60
  A 0.65 0.65 0.0 0 0 264.96 329.93
  L 255.73 329.93
  A 0.65 0.65 0.0 0 1 255.08 329.23
  L 255.38 325.59
  A 0.65 0.65 0.0 0 1 256.03 324.99
  L 265.67 325.05
  A 0.65 0.65 0.0 0 0 266.32 324.44
  L 266.48 321.96
  A 0.65 0.65 0.0 0 0 265.83 321.27
  L 251.66 321.19
  A 0.65 0.65 0.0 0 0 251.01 321.84
  L 251.00 342.95
  A 0.65 0.65 0.0 0 0 251.65 343.60
  L 266.10 343.67
  A 0.65 0.65 0.0 0 0 266.75 343.03
  L 266.80 340.39
  A 0.65 0.65 0.0 0 0 266.14 339.73
  L 255.87 339.87
  Z
  M 73.64 324.15
  A 0.84 0.84 0.0 0 0 74.47 324.96
  L 78.98 325.00
  A 0.84 0.84 0.0 0 1 79.81 325.84
  L 79.90 342.82
  A 0.84 0.84 0.0 0 0 80.73 343.66
  L 83.10 343.67
  A 0.84 0.84 0.0 0 0 83.94 342.84
  L 84.01 325.68
  A 0.84 0.84 0.0 0 1 84.89 324.84
  L 89.23 325.05
  A 0.84 0.84 0.0 0 0 90.11 324.22
  L 90.14 322.10
  A 0.84 0.84 0.0 0 0 89.29 321.25
  L 74.41 321.33
  A 0.84 0.84 0.0 0 0 73.57 322.21
  L 73.64 324.15
  Z
  M 96.90 334.40
  A 0.65 0.65 0.0 0 1 97.55 333.74
  L 106.82 333.83
  A 0.65 0.65 0.0 0 0 107.47 333.20
  L 107.53 330.55
  A 0.65 0.65 0.0 0 0 106.88 329.88
  L 97.70 329.95
  A 0.65 0.65 0.0 0 1 97.05 329.31
  L 96.97 325.64
  A 0.65 0.65 0.0 0 1 97.63 324.98
  L 107.60 325.08
  A 0.65 0.65 0.0 0 0 108.26 324.43
  L 108.27 321.90
  A 0.65 0.65 0.0 0 0 107.62 321.25
  L 93.53 321.24
  A 0.65 0.65 0.0 0 0 92.88 321.89
  L 92.88 343.00
  A 0.65 0.65 0.0 0 0 93.53 343.65
  L 107.91 343.65
  A 0.65 0.65 0.0 0 0 108.56 343.02
  L 108.65 340.46
  A 0.65 0.65 0.0 0 0 108.00 339.79
  L 97.66 339.72
  A 0.65 0.65 0.0 0 1 97.01 339.09
  L 96.90 334.40
  Z
  M 140.29 325.84
  A 0.86 0.86 0.0 0 1 141.16 324.98
  L 145.68 325.04
  A 0.86 0.86 0.0 0 0 146.55 324.14
  L 146.46 322.07
  A 0.86 0.86 0.0 0 0 145.60 321.25
  L 130.81 321.25
  A 0.86 0.86 0.0 0 0 129.95 322.11
  L 129.93 324.22
  A 0.86 0.86 0.0 0 0 130.81 325.09
  L 135.36 325.01
  A 0.86 0.86 0.0 0 1 136.24 325.88
  L 136.15 342.84
  A 0.86 0.86 0.0 0 0 137.01 343.71
  L 139.49 343.73
  A 0.86 0.86 0.0 0 0 140.36 342.87
  L 140.29 325.84
  Z
  M 212.63 338.56
  C 214.52 338.55 217.71 338.14 219.56 338.79
  Q 220.09 338.98 220.27 339.51
  L 221.39 342.76
  A 1.30 1.29 81.5 0 0 222.57 343.64
  L 225.25 343.75
  Q 226.30 343.79 225.94 342.80
  L 218.34 322.10
  Q 218.04 321.27 217.16 321.27
  L 214.45 321.26
  Q 213.58 321.25 213.28 322.07
  L 205.75 342.58
  Q 205.31 343.79 206.59 343.72
  L 209.24 343.59
  A 1.29 1.28 -89.0 0 0 210.45 342.42
  Q 210.61 340.68 211.54 339.17
  Q 211.91 338.56 212.63 338.56
  Z
  M 282.93 335.04
  Q 282.93 336.39 282.28 335.21
  L 274.86 321.97
  Q 274.46 321.26 273.65 321.25
  L 271.33 321.25
  Q 270.41 321.25 270.41 322.17
  L 270.32 342.77
  A 0.96 0.95 0.3 0 0 271.27 343.72
  L 273.28 343.74
  Q 274.32 343.75 274.30 342.72
  L 274.09 330.69
  Q 274.05 328.72 275.04 330.42
  Q 278.17 335.79 281.35 341.60
  Q 283.00 344.63 286.26 343.45
  Q 286.73 343.28 286.73 342.78
  L 286.81 321.87
  Q 286.81 321.29 286.23 321.27
  L 283.51 321.13
  Q 282.86 321.09 282.86 321.74
  L 282.93 335.04
  Z
  M 324.80 321.37
  A 0.47 0.47 0.0 0 0 324.41 321.61
  L 320.07 329.46
  A 0.47 0.47 0.0 0 1 319.25 329.45
  L 315.19 321.63
  A 0.47 0.47 0.0 0 0 314.78 321.38
  L 310.73 321.30
  A 0.47 0.47 0.0 0 0 310.32 322.01
  L 317.38 333.89
  A 0.47 0.47 0.0 0 1 317.44 334.13
  L 317.55 343.15
  A 0.47 0.47 0.0 0 0 318.01 343.61
  L 321.19 343.71
  A 0.47 0.47 0.0 0 0 321.67 343.24
  L 321.77 334.00
  A 0.47 0.47 0.0 0 1 321.83 333.76
  L 328.80 321.92
  A 0.47 0.47 0.0 0 0 328.37 321.21
  L 324.80 321.37
  Z"
/>
<path fill="#fa9124" d="
  M 76.15 129.38
  Q 74.46 128.51 72.81 127.60
  A 1.36 1.36 0.0 0 1 72.12 126.29
  Q 76.42 77.93 110.11 44.43
  C 115.33 39.24 122.06 33.43 128.48 29.14
  Q 168.07 2.64 215.59 7.55
  C 242.55 10.34 269.65 22.59 289.32 41.24
  Q 296.29 47.85 302.83 55.33
  A 0.75 0.75 0.0 0 1 302.70 56.43
  Q 300.42 58.08 298.24 59.30
  C 278.40 70.35 260.39 83.27 243.24 97.75
  Q 216.66 120.19 190.90 146.36
  Q 171.70 165.87 153.33 184.33
  A 1.78 1.78 0.0 0 1 151.08 184.56
  C 147.49 182.18 145.01 178.76 141.80 175.88
  Q 120.59 156.88 103.16 145.26
  Q 89.69 136.29 76.15 129.38
  Z"
/>
<path fill="#18a756" d="
  M 330.51 125.10
  C 335.82 185.32 298.65 241.35 240.92 259.94
  C 200.15 273.07 154.25 264.88 121.05 238.17
  Q 81.05 205.98 72.90 154.70
  Q 72.49 152.15 72.57 149.69
  A 0.39 0.39 0.0 0 1 73.19 149.39
  Q 82.71 156.54 89.13 161.94
  C 97.86 169.29 106.57 176.58 115.07 184.54
  C 127.11 195.81 138.89 207.54 149.60 220.41
  C 152.30 223.65 156.30 220.11 158.18 217.93
  Q 164.65 210.44 171.13 203.86
  Q 226.48 147.71 280.37 97.89
  Q 295.67 83.75 311.44 70.81
  Q 312.57 69.88 313.32 71.14
  Q 327.91 95.61 330.51 125.10
  Z"
/>
<path fill="#252968" d="
  M 154.11 304.61
  L 153.30 307.79
  Q 153.03 308.83 151.97 308.86
  L 149.33 308.95
  Q 148.34 308.99 148.68 308.06
  L 156.15 287.27
  A 1.36 1.35 11.4 0 1 157.51 286.37
  C 158.78 286.44 160.88 286.14 161.42 287.64
  Q 164.64 296.63 168.83 307.74
  Q 169.29 308.96 167.99 308.89
  L 165.36 308.74
  Q 164.49 308.69 164.21 307.86
  L 163.07 304.54
  A 1.32 1.32 0.0 0 0 161.81 303.65
  L 155.26 303.71
  A 1.20 1.20 0.0 0 0 154.11 304.61
  Z
  M 156.06 299.50
  A 0.35 0.35 0.0 0 0 156.39 299.96
  L 161.04 300.03
  A 0.35 0.35 0.0 0 0 161.38 299.56
  L 158.87 292.59
  A 0.35 0.35 0.0 0 0 158.21 292.61
  L 156.06 299.50
  Z"
/>
<rect fill="#252968" x="186.84" y="286.39" width="4.14" height="22.52" rx="0.59"/>
<path fill="#252968" d="
  M 213.9014 300.1841
  A 8.97 8.97 0.0 0 1 204.9001 309.1227
  L 203.3201 309.1172
  A 8.97 8.97 0.0 0 1 194.3815 300.1159
  L 194.3986 295.1959
  A 8.97 8.97 0.0 0 1 203.3999 286.2573
  L 204.9799 286.2628
  A 8.97 8.97 0.0 0 1 213.9185 295.2641
  L 213.9014 300.1841
  Z
  M 204.2052 305.5198
  A 7.91 5.89 89.6 0 0 210.0399 297.5689
  A 7.91 5.89 89.6 0 0 204.0948 289.7002
  A 7.91 5.89 89.6 0 0 198.2601 297.6511
  A 7.91 5.89 89.6 0 0 204.2052 305.5198
  Z"
/>
<path fill="#252968" d="
  M 221.25 295.06
  L 221.46 308.08
  Q 221.48 308.88 220.67 308.88
  L 218.29 308.86
  Q 217.48 308.86 217.48 308.04
  L 217.49 287.32
  A 0.84 0.84 0.0 0 1 218.05 286.53
  Q 221.22 285.39 222.78 288.35
  Q 226.12 294.71 229.62 300.63
  Q 230.16 301.53 230.15 300.48
  L 230.07 287.54
  Q 230.06 286.63 230.96 286.51
  L 232.66 286.28
  Q 233.97 286.10 233.97 287.42
  L 233.98 308.35
  Q 233.98 308.92 233.40 308.92
  L 230.39 308.94
  A 1.06 1.06 0.0 0 1 229.45 308.40
  L 221.79 294.92
  Q 221.23 293.95 221.25 295.06
  Z"
/>
<path fill="#252968" d="
  M 250.43 303.75
  L 242.86 303.73
  A 0.60 0.60 0.0 0 0 242.28 304.14
  L 240.89 308.40
  A 0.60 0.60 0.0 0 1 240.34 308.81
  L 237.08 308.88
  A 0.60 0.60 0.0 0 1 236.50 308.08
  L 244.24 286.83
  A 0.60 0.60 0.0 0 1 244.78 286.44
  L 248.38 286.31
  A 0.60 0.60 0.0 0 1 248.96 286.70
  L 256.84 308.12
  A 0.60 0.60 0.0 0 1 256.22 308.92
  L 252.65 308.62
  A 0.60 0.60 0.0 0 1 252.12 308.19
  L 251.01 304.19
  A 0.60 0.60 0.0 0 0 250.43 303.75
  Z
  M 243.89 299.58
  A 0.34 0.34 0.0 0 0 244.21 300.03
  L 248.94 299.99
  A 0.34 0.34 0.0 0 0 249.26 299.54
  L 246.85 292.79
  A 0.34 0.34 0.0 0 0 246.21 292.80
  L 243.89 299.58
  Z"
/>
<path fill="#252968" d="
  M 142.23 300.03
  L 142.21 287.27
  Q 142.21 286.50 142.98 286.49
  L 145.38 286.48
  Q 146.04 286.47 146.04 287.13
  L 146.03 307.83
  A 1.05 1.05 0.0 0 1 145.22 308.85
  Q 143.49 309.25 142.13 308.71
  Q 141.64 308.52 141.38 308.07
  L 134.36 295.70
  Q 133.36 293.92 133.39 295.97
  L 133.59 308.20
  Q 133.61 309.02 132.79 309.00
  L 130.51 308.96
  Q 129.58 308.94 129.58 308.01
  L 129.64 287.32
  Q 129.64 286.68 130.27 286.56
  Q 132.04 286.22 133.50 286.73
  Q 133.98 286.90 134.23 287.34
  L 141.51 300.22
  Q 142.23 301.50 142.23 300.03
  Z"
/>
<path fill="#252968" d="
  M 173.28 290.23
  L 168.55 290.30
  A 0.68 0.68 0.0 0 1 167.86 289.67
  L 167.69 287.26
  A 0.68 0.68 0.0 0 1 168.37 286.53
  L 183.62 286.51
  A 0.68 0.68 0.0 0 1 184.29 287.25
  L 184.07 289.76
  A 0.68 0.68 0.0 0 1 183.36 290.37
  L 178.75 290.13
  A 0.68 0.68 0.0 0 0 178.03 290.81
  L 178.06 308.29
  A 0.68 0.68 0.0 0 1 177.37 308.97
  L 174.61 308.92
  A 0.68 0.68 0.0 0 1 173.94 308.24
  L 173.97 290.91
  A 0.68 0.68 0.0 0 0 173.28 290.23
  Z"
/>
<path fill="#252968" d="
  M 264.24 305.00
  L 273.39 305.02
  A 0.60 0.60 0.0 0 1 273.99 305.60
  L 274.09 308.20
  A 0.60 0.60 0.0 0 1 273.49 308.82
  L 260.03 308.88
  A 0.60 0.60 0.0 0 1 259.43 308.28
  L 259.41 287.18
  A 0.60 0.60 0.0 0 1 260.01 286.58
  L 263.12 286.61
  A 0.60 0.60 0.0 0 1 263.72 287.21
  L 263.64 304.40
  A 0.60 0.60 0.0 0 0 264.24 305.00
  Z"
/>
<ellipse fill="#fffeff" cx="0.00" cy="0.00" transform="translate(204.15,297.61) rotate(89.6)" rx="7.91" ry="5.89"/>
<path fill="#fffeff" d="
  M 156.06 299.50
  L 158.21 292.61
  A 0.35 0.35 0.0 0 1 158.87 292.59
  L 161.38 299.56
  A 0.35 0.35 0.0 0 1 161.04 300.03
  L 156.39 299.96
  A 0.35 0.35 0.0 0 1 156.06 299.50
  Z"
/>
<path fill="#fffeff" d="
  M 243.89 299.58
  L 246.21 292.80
  A 0.34 0.34 0.0 0 1 246.85 292.79
  L 249.26 299.54
  A 0.34 0.34 0.0 0 1 248.94 299.99
  L 244.21 300.03
  A 0.34 0.34 0.0 0 1 243.89 299.58
  Z"
/>
<path fill="#252968" d="
  M 121.08 324.86
  C 119.42 324.57 117.27 324.28 116.16 325.80
  A 1.74 1.73 27.0 0 0 117.03 328.47
  Q 120.41 329.58 123.74 330.77
  Q 128.24 332.39 127.81 337.50
  Q 127.37 342.59 122.71 343.65
  C 117.25 344.88 112.16 343.33 111.16 337.02
  Q 111.03 336.23 111.83 336.15
  L 114.20 335.91
  Q 115.06 335.82 115.36 336.64
  C 116.71 340.30 119.92 341.43 123.00 338.83
  A 2.18 2.17 48.1 0 0 123.16 335.66
  C 121.89 334.35 118.19 333.72 116.46 333.19
  C 114.35 332.54 112.53 330.92 112.12 328.66
  C 111.19 323.53 114.36 320.94 119.21 320.82
  Q 125.92 320.65 127.29 326.66
  Q 127.53 327.73 126.43 327.73
  L 124.07 327.73
  Q 122.94 327.72 122.60 326.64
  C 122.35 325.83 122.04 325.03 121.08 324.86
  Z"
/>
<path fill="#252968" d="
  M 191.90 335.52
  L 188.93 335.46
  Q 187.66 335.44 187.64 334.18
  L 187.61 332.74
  A 1.15 1.15 0.0 0 1 188.76 331.57
  L 196.00 331.56
  A 0.76 0.76 0.0 0 1 196.76 332.33
  L 196.61 340.19
  A 0.85 0.85 0.0 0 1 196.40 340.75
  C 193.43 344.19 185.93 344.92 182.19 342.53
  C 176.77 339.07 175.83 329.20 179.81 324.41
  Q 183.86 319.54 190.83 321.20
  Q 194.82 322.16 196.30 326.45
  A 0.80 0.79 66.3 0 1 195.93 327.41
  Q 194.67 328.10 193.08 327.99
  A 1.34 1.34 0.0 0 1 192.04 327.39
  Q 191.58 326.70 191.01 326.09
  C 188.21 323.09 182.97 325.11 182.11 328.88
  Q 181.33 332.24 182.14 335.65
  C 183.17 339.99 187.39 341.27 191.04 339.24
  Q 192.82 338.26 192.52 336.07
  A 0.64 0.64 0.0 0 0 191.90 335.52
  Z"
/>
<path fill="#252968" d="
  M 242.07 335.47
  L 239.24 335.52
  Q 237.94 335.54 237.97 334.24
  L 238.00 332.77
  A 1.24 1.23 -89.5 0 1 239.23 331.55
  L 246.48 331.50
  A 0.73 0.73 0.0 0 1 247.21 332.23
  L 247.14 339.80
  A 1.98 1.96 -16.9 0 1 246.27 341.41
  C 237.03 347.59 226.47 342.32 227.93 330.72
  Q 229.27 320.00 239.69 320.88
  Q 244.48 321.29 246.67 326.39
  Q 246.92 326.98 246.37 327.30
  Q 242.83 329.33 241.23 325.94
  A 1.33 1.32 86.6 0 0 240.46 325.25
  Q 238.27 324.48 236.08 324.98
  C 229.60 326.45 230.40 343.67 241.01 339.44
  Q 243.27 338.54 242.97 336.24
  Q 242.86 335.46 242.07 335.47
  Z"
/>
<path fill="#252968" d="
  M 303.97 327.64
  C 302.37 323.23 296.60 324.17 295.36 328.24
  Q 294.40 331.40 295.01 335.14
  C 295.90 340.48 302.48 342.60 304.21 336.36
  Q 304.44 335.54 305.28 335.73
  L 307.65 336.28
  Q 308.55 336.49 308.29 337.38
  Q 306.67 342.80 302.16 343.67
  Q 293.95 345.27 291.09 337.13
  Q 289.68 333.13 291.14 327.62
  C 293.26 319.58 304.97 317.87 308.13 326.24
  A 1.07 1.07 0.0 0 1 307.53 327.61
  Q 306.29 328.10 304.73 328.16
  Q 304.16 328.18 303.97 327.64
  Z"
/>
<rect fill="#252968" x="149.01" y="321.16" width="4.20" height="22.52" rx="0.53"/>
<path fill="#252968" d="
  M 169.82 335.05
  L 169.73 322.03
  Q 169.72 321.28 170.47 321.24
  L 172.78 321.10
  A 0.80 0.79 88.3 0 1 173.62 321.90
  L 173.63 342.80
  Q 173.64 343.60 172.83 343.69
  C 171.53 343.84 169.61 344.01 168.85 342.62
  Q 165.11 335.84 161.45 329.64
  Q 160.97 328.85 160.99 329.77
  L 161.18 342.64
  A 1.08 1.08 0.0 0 1 160.10 343.74
  L 158.21 343.74
  Q 157.17 343.74 157.18 342.71
  L 157.28 321.93
  Q 157.29 321.41 157.79 321.28
  Q 160.96 320.50 162.27 322.95
  Q 165.69 329.33 169.25 335.21
  Q 169.83 336.17 169.82 335.05
  Z"
/>
<path fill="#252968" d="
  M 255.87 339.87
  L 266.14 339.73
  A 0.65 0.65 0.0 0 1 266.80 340.39
  L 266.75 343.03
  A 0.65 0.65 0.0 0 1 266.10 343.67
  L 251.65 343.60
  A 0.65 0.65 0.0 0 1 251.00 342.95
  L 251.01 321.84
  A 0.65 0.65 0.0 0 1 251.66 321.19
  L 265.83 321.27
  A 0.65 0.65 0.0 0 1 266.48 321.96
  L 266.32 324.44
  A 0.65 0.65 0.0 0 1 265.67 325.05
  L 256.03 324.99
  A 0.65 0.65 0.0 0 0 255.38 325.59
  L 255.08 329.23
  A 0.65 0.65 0.0 0 0 255.73 329.93
  L 264.96 329.93
  A 0.65 0.65 0.0 0 1 265.61 330.60
  L 265.54 333.19
  A 0.65 0.65 0.0 0 1 264.88 333.82
  L 255.93 333.71
  A 0.65 0.65 0.0 0 0 255.27 334.35
  L 255.21 339.21
  A 0.65 0.65 0.0 0 0 255.87 339.87
  Z"
/>
<path fill="#252968" d="
  M 73.64 324.15
  L 73.57 322.21
  A 0.84 0.84 0.0 0 1 74.41 321.33
  L 89.29 321.25
  A 0.84 0.84 0.0 0 1 90.14 322.10
  L 90.11 324.22
  A 0.84 0.84 0.0 0 1 89.23 325.05
  L 84.89 324.84
  A 0.84 0.84 0.0 0 0 84.01 325.68
  L 83.94 342.84
  A 0.84 0.84 0.0 0 1 83.10 343.67
  L 80.73 343.66
  A 0.84 0.84 0.0 0 1 79.90 342.82
  L 79.81 325.84
  A 0.84 0.84 0.0 0 0 78.98 325.00
  L 74.47 324.96
  A 0.84 0.84 0.0 0 1 73.64 324.15
  Z"
/>
<path fill="#252968" d="
  M 96.90 334.40
  L 97.01 339.09
  A 0.65 0.65 0.0 0 0 97.66 339.72
  L 108.00 339.79
  A 0.65 0.65 0.0 0 1 108.65 340.46
  L 108.56 343.02
  A 0.65 0.65 0.0 0 1 107.91 343.65
  L 93.53 343.65
  A 0.65 0.65 0.0 0 1 92.88 343.00
  L 92.88 321.89
  A 0.65 0.65 0.0 0 1 93.53 321.24
  L 107.62 321.25
  A 0.65 0.65 0.0 0 1 108.27 321.90
  L 108.26 324.43
  A 0.65 0.65 0.0 0 1 107.60 325.08
  L 97.63 324.98
  A 0.65 0.65 0.0 0 0 96.97 325.64
  L 97.05 329.31
  A 0.65 0.65 0.0 0 0 97.70 329.95
  L 106.88 329.88
  A 0.65 0.65 0.0 0 1 107.53 330.55
  L 107.47 333.20
  A 0.65 0.65 0.0 0 1 106.82 333.83
  L 97.55 333.74
  A 0.65 0.65 0.0 0 0 96.90 334.40
  Z"
/>
<path fill="#252968" d="
  M 140.29 325.84
  L 140.36 342.87
  A 0.86 0.86 0.0 0 1 139.49 343.73
  L 137.01 343.71
  A 0.86 0.86 0.0 0 1 136.15 342.84
  L 136.24 325.88
  A 0.86 0.86 0.0 0 0 135.36 325.01
  L 130.81 325.09
  A 0.86 0.86 0.0 0 1 129.93 324.22
  L 129.95 322.11
  A 0.86 0.86 0.0 0 1 130.81 321.25
  L 145.60 321.25
  A 0.86 0.86 0.0 0 1 146.46 322.07
  L 146.55 324.14
  A 0.86 0.86 0.0 0 1 145.68 325.04
  L 141.16 324.98
  A 0.86 0.86 0.0 0 0 140.29 325.84
  Z"
/>
<path fill="#252968" d="
  M 211.54 339.17
  Q 210.61 340.68 210.45 342.42
  A 1.29 1.28 -89.0 0 1 209.24 343.59
  L 206.59 343.72
  Q 205.31 343.79 205.75 342.58
  L 213.28 322.07
  Q 213.58 321.25 214.45 321.26
  L 217.16 321.27
  Q 218.04 321.27 218.34 322.10
  L 225.94 342.80
  Q 226.30 343.79 225.25 343.75
  L 222.57 343.64
  A 1.30 1.29 81.5 0 1 221.39 342.76
  L 220.27 339.51
  Q 220.09 338.98 219.56 338.79
  C 217.71 338.14 214.52 338.55 212.63 338.56
  Q 211.91 338.56 211.54 339.17
  Z
  M 213.03 334.31
  A 0.35 0.35 0.0 0 0 213.37 334.77
  L 218.14 334.69
  A 0.35 0.35 0.0 0 0 218.46 334.22
  L 215.96 327.52
  A 0.35 0.35 0.0 0 0 215.30 327.53
  L 213.03 334.31
  Z"
/>
<path fill="#252968" d="
  M 282.93 335.04
  L 282.86 321.74
  Q 282.86 321.09 283.51 321.13
  L 286.23 321.27
  Q 286.81 321.29 286.81 321.87
  L 286.73 342.78
  Q 286.73 343.28 286.26 343.45
  Q 283.00 344.63 281.35 341.60
  Q 278.17 335.79 275.04 330.42
  Q 274.05 328.72 274.09 330.69
  L 274.30 342.72
  Q 274.32 343.75 273.28 343.74
  L 271.27 343.72
  A 0.96 0.95 0.3 0 1 270.32 342.77
  L 270.41 322.17
  Q 270.41 321.25 271.33 321.25
  L 273.65 321.25
  Q 274.46 321.26 274.86 321.97
  L 282.28 335.21
  Q 282.93 336.39 282.93 335.04
  Z"
/>
<path fill="#252968" d="
  M 324.80 321.37
  L 328.37 321.21
  A 0.47 0.47 0.0 0 1 328.80 321.92
  L 321.83 333.76
  A 0.47 0.47 0.0 0 0 321.77 334.00
  L 321.67 343.24
  A 0.47 0.47 0.0 0 1 321.19 343.71
  L 318.01 343.61
  A 0.47 0.47 0.0 0 1 317.55 343.15
  L 317.44 334.13
  A 0.47 0.47 0.0 0 0 317.38 333.89
  L 310.32 322.01
  A 0.47 0.47 0.0 0 1 310.73 321.30
  L 314.78 321.38
  A 0.47 0.47 0.0 0 1 315.19 321.63
  L 319.25 329.45
  A 0.47 0.47 0.0 0 0 320.07 329.46
  L 324.41 321.61
  A 0.47 0.47 0.0 0 1 324.80 321.37
  Z"
/>
<path fill="#fffeff" d="
  M 213.03 334.31
  L 215.30 327.53
  A 0.35 0.35 0.0 0 1 215.96 327.52
  L 218.46 334.22
  A 0.35 0.35 0.0 0 1 218.14 334.69
  L 213.37 334.77
  A 0.35 0.35 0.0 0 1 213.03 334.31
  Z"
/>
</svg>
