<?xml version="1.0" encoding="UTF-8" standalone="no"?>
<!DOCTYPE svg PUBLIC "-//W3C//DTD SVG 1.1//EN" "http://www.w3.org/Graphics/SVG/1.1/DTD/svg11.dtd">
<svg xmlns="http://www.w3.org/2000/svg" version="1.1" viewBox="0.00 0.00 225.00 225.00">
<g stroke-width="2.00" fill="none" stroke-linecap="butt">
<path stroke="#80caa1" vector-effect="non-scaling-stroke" d="
  M 117.88 225.00
  Q 159.89 222.48 189.68 194.43
  C 207.82 177.35 220.61 153.27 223.80 128.00
  Q 228.57 90.25 210.58 57.72
  A 1.14 1.14 0.0 0 0 208.88 57.37
  Q 190.91 71.54 170.69 89.20
  Q 118.93 134.43 72.18 184.82
  Q 71.80 185.23 71.46 184.79
  C 68.07 180.33 64.47 175.84 60.72 171.77
  Q 32.67 141.35 0.54 112.78
  A 0.15 0.15 0.0 0 0 0.29 112.89
  C -0.45 145.81 15.14 177.51 40.07 198.68
  Q 68.47 222.80 107.00 225.00"
/>
<path stroke="#f9c796" vector-effect="non-scaling-stroke" d="
  M 10.76 64.84
  Q 2.53 81.97 0.49 102.44
  C 0.37 103.72 0.72 104.38 1.86 104.95
  C 27.86 117.89 53.00 135.01 71.36 157.32
  A 0.74 0.74 0.0 0 0 72.50 157.32
  C 81.96 145.84 91.85 134.74 102.54 124.46
  Q 134.30 93.91 171.26 69.33
  Q 188.03 58.18 204.45 49.44
  A 0.82 0.81 -32.0 0 0 204.73 48.25
  Q 178.90 12.80 137.22 3.03
  C 116.99 -1.71 93.75 -0.25 74.98 6.68
  Q 30.90 22.97 10.76 64.84"
/>
</g>
<path fill="#ffffff" d="
  M 0.00 0.00
  L 225.00 0.00
  L 225.00 225.00
  L 117.88 225.00
  Q 159.89 222.48 189.68 194.43
  C 207.82 177.35 220.61 153.27 223.80 128.00
  Q 228.57 90.25 210.58 57.72
  A 1.14 1.14 0.0 0 0 208.88 57.37
  Q 190.91 71.54 170.69 89.20
  Q 118.93 134.43 72.18 184.82
  Q 71.80 185.23 71.46 184.79
  C 68.07 180.33 64.47 175.84 60.72 171.77
  Q 32.67 141.35 0.54 112.78
  A 0.15 0.15 0.0 0 0 0.29 112.89
  C -0.45 145.81 15.14 177.51 40.07 198.68
  Q 68.47 222.80 107.00 225.00
  L 0.00 225.00
  L 0.00 0.00
  Z
  M 10.76 64.84
  Q 2.53 81.97 0.49 102.44
  C 0.37 103.72 0.72 104.38 1.86 104.95
  C 27.86 117.89 53.00 135.01 71.36 157.32
  A 0.74 0.74 0.0 0 0 72.50 157.32
  C 81.96 145.84 91.85 134.74 102.54 124.46
  Q 134.30 93.91 171.26 69.33
  Q 188.03 58.18 204.45 49.44
  A 0.82 0.81 -32.0 0 0 204.73 48.25
  Q 178.90 12.80 137.22 3.03
  C 116.99 -1.71 93.75 -0.25 74.98 6.68
  Q 30.90 22.97 10.76 64.84
  Z"
/>
<path fill="#f28e2c" d="
  M 10.76 64.84
  Q 30.90 22.97 74.98 6.68
  C 93.75 -0.25 116.99 -1.71 137.22 3.03
  Q 178.90 12.80 204.73 48.25
  A 0.82 0.81 -32.0 0 1 204.45 49.44
  Q 188.03 58.18 171.26 69.33
  Q 134.30 93.91 102.54 124.46
  C 91.85 134.74 81.96 145.84 72.50 157.32
  A 0.74 0.74 0.0 0 1 71.36 157.32
  C 53.00 135.01 27.86 117.89 1.86 104.95
  C 0.72 104.38 0.37 103.72 0.49 102.44
  Q 2.53 81.97 10.76 64.84
  Z"
/>
<path fill="#019443" d="
  M 117.88 225.00
  L 107.00 225.00
  Q 68.47 222.80 40.07 198.68
  C 15.14 177.51 -0.45 145.81 0.29 112.89
  A 0.15 0.15 0.0 0 1 0.54 112.78
  Q 32.67 141.35 60.72 171.77
  C 64.47 175.84 68.07 180.33 71.46 184.79
  Q 71.80 185.23 72.18 184.82
  Q 118.93 134.43 170.69 89.20
  Q 190.91 71.54 208.88 57.37
  A 1.14 1.14 0.0 0 1 210.58 57.72
  Q 228.57 90.25 223.80 128.00
  C 220.61 153.27 207.82 177.35 189.68 194.43
  Q 159.89 222.48 117.88 225.00
  Z"
/>
</svg>
